<?xml version="1.0" encoding="utf-8" standalone="no"?>
<!DOCTYPE svg PUBLIC "-//W3C//DTD SVG 1.1//EN"
  "http://www.w3.org/Graphics/SVG/1.1/DTD/svg11.dtd">
<svg xmlns:xlink="http://www.w3.org/1999/xlink" width="856.8pt" height="568.637812pt" viewBox="0 0 856.8 568.637812" xmlns="http://www.w3.org/2000/svg" version="1.1">
 <metadata>
  <rdf:RDF xmlns:dc="http://purl.org/dc/elements/1.1/" xmlns:cc="http://creativecommons.org/ns#" xmlns:rdf="http://www.w3.org/1999/02/22-rdf-syntax-ns#">
   <cc:Work>
    <dc:type rdf:resource="http://purl.org/dc/dcmitype/StillImage"/>
    <dc:date>2026-01-03T04:01:04.287061</dc:date>
    <dc:format>image/svg+xml</dc:format>
    <dc:creator>
     <cc:Agent>
      <dc:title>Matplotlib v3.10.8, https://matplotlib.org/</dc:title>
     </cc:Agent>
    </dc:creator>
   </cc:Work>
  </rdf:RDF>
 </metadata>
 <defs>
  <style type="text/css">*{stroke-linejoin: round; stroke-linecap: butt}</style>
 </defs>
 <g id="figure_1">
  <g id="patch_1">
   <path d="M 0 568.637812 
L 856.8 568.637812 
L 856.8 0 
L 0 0 
z
" style="fill: #ffffff"/>
  </g>
  <g id="axes_1">
   <g id="patch_2">
    <path d="M 88.961344 514.786573 
Q 428.401412 514.786573 766.723446 514.786573 
" clip-path="url(#p7b5ec4ebb9)" style="fill: none; stroke: #666666; stroke-linecap: round"/>
    <path d="M 762.723446 512.786573 
L 766.723446 514.786573 
L 762.723446 516.786573 
z
" clip-path="url(#p7b5ec4ebb9)" style="fill: #666666; stroke: #666666; stroke-linecap: round"/>
   </g>
   <g id="patch_3">
    <path d="M 771.60456 507.646852 
Q 732.986984 451.3158 695.001582 395.906895 
" clip-path="url(#p7b5ec4ebb9)" style="fill: none; stroke: #666666; stroke-linecap: round"/>
    <path d="M 695.613733 400.336937 
L 695.001582 395.906895 
L 698.912906 398.075199 
z
" clip-path="url(#p7b5ec4ebb9)" style="fill: #666666; stroke: #666666; stroke-linecap: round"/>
   </g>
   <g id="patch_4">
    <path d="M 680.864654 388.810495 
Q 406.642028 419.58016 133.530464 450.225157 
" clip-path="url(#p7b5ec4ebb9)" style="fill: none; stroke: #666666; stroke-linecap: round"/>
    <path d="M 137.728533 451.766656 
L 133.530464 450.225157 
L 137.282504 447.791601 
z
" clip-path="url(#p7b5ec4ebb9)" style="fill: #666666; stroke: #666666; stroke-linecap: round"/>
   </g>
   <g id="patch_5">
    <path d="M 684.579767 380.704703 
Q 645.96219 324.373651 607.976789 268.964746 
" clip-path="url(#p7b5ec4ebb9)" style="fill: none; stroke: #666666; stroke-linecap: round"/>
    <path d="M 608.58894 273.394788 
L 607.976789 268.964746 
L 611.888113 271.13305 
z
" clip-path="url(#p7b5ec4ebb9)" style="fill: #666666; stroke: #666666; stroke-linecap: round"/>
   </g>
   <g id="patch_6">
    <path d="M 128.707837 444.175777 
Q 167.325413 387.844726 205.310815 332.435821 
" clip-path="url(#p7b5ec4ebb9)" style="fill: none; stroke: #666666; stroke-linecap: round"/>
    <path d="M 201.39949 334.604125 
L 205.310815 332.435821 
L 204.698663 336.865863 
z
" clip-path="url(#p7b5ec4ebb9)" style="fill: #666666; stroke: #666666; stroke-linecap: round"/>
   </g>
   <g id="patch_7">
    <path d="M 215.73263 317.233629 
Q 297.861943 197.432465 379.359082 78.553449 
" clip-path="url(#p7b5ec4ebb9)" style="fill: none; stroke: #666666; stroke-linecap: round"/>
    <path d="M 375.447757 80.721753 
L 379.359082 78.553449 
L 378.74693 82.98349 
z
" clip-path="url(#p7b5ec4ebb9)" style="fill: #666666; stroke: #666666; stroke-linecap: round"/>
   </g>
   <g id="patch_8">
    <path d="M 219.385996 322.987922 
Q 406.643572 292.63785 592.797515 262.46665 
" clip-path="url(#p7b5ec4ebb9)" style="fill: none; stroke: #666666; stroke-linecap: round"/>
    <path d="M 588.529062 261.132368 
L 592.797515 262.46665 
L 589.169018 265.080843 
z
" clip-path="url(#p7b5ec4ebb9)" style="fill: #666666; stroke: #666666; stroke-linecap: round"/>
   </g>
   <g id="patch_9">
    <path d="M 389.782217 77.628773 
Q 406.64332 102.223887 422.872248 125.896853 
" clip-path="url(#p7b5ec4ebb9)" style="fill: none; stroke: #666666; stroke-linecap: round"/>
    <path d="M 422.260097 121.466811 
L 422.872248 125.896853 
L 418.960924 123.728549 
z
" clip-path="url(#p7b5ec4ebb9)" style="fill: #666666; stroke: #666666; stroke-linecap: round"/>
   </g>
   <g id="patch_10">
    <path d="M 433.294613 126.820405 
Q 450.155717 102.225292 466.384645 78.552326 
" clip-path="url(#p7b5ec4ebb9)" style="fill: none; stroke: #666666; stroke-linecap: round"/>
    <path d="M 462.47332 80.72063 
L 466.384645 78.552326 
L 465.772493 82.982368 
z
" clip-path="url(#p7b5ec4ebb9)" style="fill: #666666; stroke: #666666; stroke-linecap: round"/>
   </g>
   <g id="patch_11">
    <path d="M 436.188092 137.746929 
Q 493.668669 165.6957 550.143768 193.155577 
" clip-path="url(#p7b5ec4ebb9)" style="fill: none; stroke: #666666; stroke-linecap: round"/>
    <path d="M 547.421023 189.607809 
L 550.143768 193.155577 
L 545.671907 193.205113 
z
" clip-path="url(#p7b5ec4ebb9)" style="fill: #666666; stroke: #666666; stroke-linecap: round"/>
   </g>
   <g id="patch_12">
    <path d="M 476.80701 77.628773 
Q 515.424587 133.959825 553.409988 189.36873 
" clip-path="url(#p7b5ec4ebb9)" style="fill: none; stroke: #666666; stroke-linecap: round"/>
    <path d="M 552.797837 184.938688 
L 553.409988 189.36873 
L 549.498664 187.200426 
z
" clip-path="url(#p7b5ec4ebb9)" style="fill: #666666; stroke: #666666; stroke-linecap: round"/>
   </g>
   <g id="patch_13">
    <path d="M 597.554973 253.762554 
Q 580.69387 229.167441 564.464942 205.494475 
" clip-path="url(#p7b5ec4ebb9)" style="fill: none; stroke: #666666; stroke-linecap: round"/>
    <path d="M 565.077093 209.924516 
L 564.464942 205.494475 
L 568.376266 207.662779 
z
" clip-path="url(#p7b5ec4ebb9)" style="fill: #666666; stroke: #666666; stroke-linecap: round"/>
   </g>
   <g id="text_1">
    <g id="patch_14">
     <path d="M 400.116044 425.8342 
L 414.391769 424.232366 
Q 416.478672 423.998201 416.244508 421.911297 
L 415.489082 415.178859 
Q 415.254917 413.091955 413.168013 413.32612 
L 398.892288 414.927955 
Q 396.805384 415.16212 397.039549 417.249023 
L 397.794975 423.981462 
Q 398.02914 426.068365 400.116044 425.8342 
z
" clip-path="url(#p7b5ec4ebb9)" style="fill: #ffffff; stroke: #ffffff; stroke-linejoin: miter"/>
    </g>
    <g clip-path="url(#p7b5ec4ebb9)">
     <!-- true -->
     <g transform="translate(399.719549 422.300594) rotate(-6.402202) scale(0.07 -0.07)">
      <defs>
       <path id="DejaVuSans-74" d="M 1172 4494 
L 1172 3500 
L 2356 3500 
L 2356 3053 
L 1172 3053 
L 1172 1153 
Q 1172 725 1289 603 
Q 1406 481 1766 481 
L 2356 481 
L 2356 0 
L 1766 0 
Q 1100 0 847 248 
Q 594 497 594 1153 
L 594 3053 
L 172 3053 
L 172 3500 
L 594 3500 
L 594 4494 
L 1172 4494 
z
" transform="scale(0.015625)"/>
       <path id="DejaVuSans-72" d="M 2631 2963 
Q 2534 3019 2420 3045 
Q 2306 3072 2169 3072 
Q 1681 3072 1420 2755 
Q 1159 2438 1159 1844 
L 1159 0 
L 581 0 
L 581 3500 
L 1159 3500 
L 1159 2956 
Q 1341 3275 1631 3429 
Q 1922 3584 2338 3584 
Q 2397 3584 2469 3576 
Q 2541 3569 2628 3553 
L 2631 2963 
z
" transform="scale(0.015625)"/>
       <path id="DejaVuSans-75" d="M 544 1381 
L 544 3500 
L 1119 3500 
L 1119 1403 
Q 1119 906 1312 657 
Q 1506 409 1894 409 
Q 2359 409 2629 706 
Q 2900 1003 2900 1516 
L 2900 3500 
L 3475 3500 
L 3475 0 
L 2900 0 
L 2900 538 
Q 2691 219 2414 64 
Q 2138 -91 1772 -91 
Q 1169 -91 856 284 
Q 544 659 544 1381 
z
M 1991 3584 
L 1991 3584 
z
" transform="scale(0.015625)"/>
       <path id="DejaVuSans-65" d="M 3597 1894 
L 3597 1613 
L 953 1613 
Q 991 1019 1311 708 
Q 1631 397 2203 397 
Q 2534 397 2845 478 
Q 3156 559 3463 722 
L 3463 178 
Q 3153 47 2828 -22 
Q 2503 -91 2169 -91 
Q 1331 -91 842 396 
Q 353 884 353 1716 
Q 353 2575 817 3079 
Q 1281 3584 2069 3584 
Q 2775 3584 3186 3129 
Q 3597 2675 3597 1894 
z
M 3022 2063 
Q 3016 2534 2758 2815 
Q 2500 3097 2075 3097 
Q 1594 3097 1305 2825 
Q 1016 2553 972 2059 
L 3022 2063 
z
" transform="scale(0.015625)"/>
      </defs>
      <use xlink:href="#DejaVuSans-74"/>
      <use xlink:href="#DejaVuSans-72" transform="translate(39.208984 0)"/>
      <use xlink:href="#DejaVuSans-75" transform="translate(80.322266 0)"/>
      <use xlink:href="#DejaVuSans-65" transform="translate(143.701172 0)"/>
     </g>
    </g>
   </g>
   <g id="text_2">
    <g id="patch_15">
     <path d="M 636.728362 320.609014 
L 646.14417 334.343755 
Q 647.331583 336.07582 649.063649 334.888408 
L 654.651365 331.057767 
Q 656.383431 329.870354 655.196019 328.138288 
L 645.78021 314.403548 
Q 644.592798 312.671482 642.860732 313.858894 
L 637.273015 317.689536 
Q 635.54095 318.876948 636.728362 320.609014 
z
" clip-path="url(#p7b5ec4ebb9)" style="fill: #ffffff; stroke: #ffffff; stroke-linejoin: miter"/>
    </g>
    <g clip-path="url(#p7b5ec4ebb9)">
     <!-- false -->
     <g transform="translate(639.661146 318.598453) rotate(-304.432465) scale(0.07 -0.07)">
      <defs>
       <path id="DejaVuSans-66" d="M 2375 4863 
L 2375 4384 
L 1825 4384 
Q 1516 4384 1395 4259 
Q 1275 4134 1275 3809 
L 1275 3500 
L 2222 3500 
L 2222 3053 
L 1275 3053 
L 1275 0 
L 697 0 
L 697 3053 
L 147 3053 
L 147 3500 
L 697 3500 
L 697 3744 
Q 697 4328 969 4595 
Q 1241 4863 1831 4863 
L 2375 4863 
z
" transform="scale(0.015625)"/>
       <path id="DejaVuSans-61" d="M 2194 1759 
Q 1497 1759 1228 1600 
Q 959 1441 959 1056 
Q 959 750 1161 570 
Q 1363 391 1709 391 
Q 2188 391 2477 730 
Q 2766 1069 2766 1631 
L 2766 1759 
L 2194 1759 
z
M 3341 1997 
L 3341 0 
L 2766 0 
L 2766 531 
Q 2569 213 2275 61 
Q 1981 -91 1556 -91 
Q 1019 -91 701 211 
Q 384 513 384 1019 
Q 384 1609 779 1909 
Q 1175 2209 1959 2209 
L 2766 2209 
L 2766 2266 
Q 2766 2663 2505 2880 
Q 2244 3097 1772 3097 
Q 1472 3097 1187 3025 
Q 903 2953 641 2809 
L 641 3341 
Q 956 3463 1253 3523 
Q 1550 3584 1831 3584 
Q 2591 3584 2966 3190 
Q 3341 2797 3341 1997 
z
" transform="scale(0.015625)"/>
       <path id="DejaVuSans-6c" d="M 603 4863 
L 1178 4863 
L 1178 0 
L 603 0 
L 603 4863 
z
" transform="scale(0.015625)"/>
       <path id="DejaVuSans-73" d="M 2834 3397 
L 2834 2853 
Q 2591 2978 2328 3040 
Q 2066 3103 1784 3103 
Q 1356 3103 1142 2972 
Q 928 2841 928 2578 
Q 928 2378 1081 2264 
Q 1234 2150 1697 2047 
L 1894 2003 
Q 2506 1872 2764 1633 
Q 3022 1394 3022 966 
Q 3022 478 2636 193 
Q 2250 -91 1575 -91 
Q 1294 -91 989 -36 
Q 684 19 347 128 
L 347 722 
Q 666 556 975 473 
Q 1284 391 1588 391 
Q 1994 391 2212 530 
Q 2431 669 2431 922 
Q 2431 1156 2273 1281 
Q 2116 1406 1581 1522 
L 1381 1569 
Q 847 1681 609 1914 
Q 372 2147 372 2553 
Q 372 3047 722 3315 
Q 1072 3584 1716 3584 
Q 2034 3584 2315 3537 
Q 2597 3491 2834 3397 
z
" transform="scale(0.015625)"/>
      </defs>
      <use xlink:href="#DejaVuSans-66"/>
      <use xlink:href="#DejaVuSans-61" transform="translate(35.205078 0)"/>
      <use xlink:href="#DejaVuSans-6c" transform="translate(96.484375 0)"/>
      <use xlink:href="#DejaVuSans-73" transform="translate(124.267578 0)"/>
      <use xlink:href="#DejaVuSans-65" transform="translate(176.367188 0)"/>
     </g>
    </g>
   </g>
   <g id="text_3">
    <g id="patch_16">
     <path d="M 298.326546 206.459405 
L 306.449188 194.610992 
Q 307.636601 192.878926 305.904535 191.691514 
L 300.316818 187.860872 
Q 298.584753 186.67346 297.39734 188.405526 
L 289.274698 200.253938 
Q 288.087286 201.986004 289.819352 203.173417 
L 295.407068 207.004058 
Q 297.139134 208.19147 298.326546 206.459405 
z
" clip-path="url(#p7b5ec4ebb9)" style="fill: #ffffff; stroke: #ffffff; stroke-linejoin: miter"/>
    </g>
    <g clip-path="url(#p7b5ec4ebb9)">
     <!-- true -->
     <g transform="translate(295.393762 204.448843) rotate(-55.567535) scale(0.07 -0.07)">
      <use xlink:href="#DejaVuSans-74"/>
      <use xlink:href="#DejaVuSans-72" transform="translate(39.208984 0)"/>
      <use xlink:href="#DejaVuSans-75" transform="translate(80.322266 0)"/>
      <use xlink:href="#DejaVuSans-65" transform="translate(143.701172 0)"/>
     </g>
    </g>
   </g>
   <g id="text_4">
    <g id="patch_17">
     <path d="M 399.302565 299.386605 
L 415.740406 296.722415 
Q 417.813356 296.386439 417.477379 294.313489 
L 416.393505 287.626068 
Q 416.057528 285.553118 413.984579 285.889095 
L 397.546737 288.553284 
Q 395.473787 288.889261 395.809764 290.96221 
L 396.893638 297.649632 
Q 397.229615 299.722582 399.302565 299.386605 
z
" clip-path="url(#p7b5ec4ebb9)" style="fill: #ffffff; stroke: #ffffff; stroke-linejoin: miter"/>
    </g>
    <g clip-path="url(#p7b5ec4ebb9)">
     <!-- false -->
     <g transform="translate(398.733679 295.876626) rotate(-9.20625) scale(0.07 -0.07)">
      <use xlink:href="#DejaVuSans-66"/>
      <use xlink:href="#DejaVuSans-61" transform="translate(35.205078 0)"/>
      <use xlink:href="#DejaVuSans-6c" transform="translate(96.484375 0)"/>
      <use xlink:href="#DejaVuSans-73" transform="translate(124.267578 0)"/>
      <use xlink:href="#DejaVuSans-65" transform="translate(176.367188 0)"/>
     </g>
    </g>
   </g>
   <g id="text_5">
    <g id="patch_18">
     <path d="M 450.620319 111.252232 
L 458.742962 99.403819 
Q 459.930374 97.671753 458.198308 96.484341 
L 452.610592 92.653699 
Q 450.878526 91.466287 449.691114 93.198353 
L 441.568471 105.046765 
Q 440.381059 106.778831 442.113125 107.966244 
L 447.700841 111.796885 
Q 449.432907 112.984298 450.620319 111.252232 
z
" clip-path="url(#p7b5ec4ebb9)" style="fill: #ffffff; stroke: #ffffff; stroke-linejoin: miter"/>
    </g>
    <g clip-path="url(#p7b5ec4ebb9)">
     <!-- true -->
     <g transform="translate(447.687535 109.241671) rotate(-55.567535) scale(0.07 -0.07)">
      <use xlink:href="#DejaVuSans-74"/>
      <use xlink:href="#DejaVuSans-72" transform="translate(39.208984 0)"/>
      <use xlink:href="#DejaVuSans-75" transform="translate(80.322266 0)"/>
      <use xlink:href="#DejaVuSans-65" transform="translate(143.701172 0)"/>
     </g>
    </g>
   </g>
   <g id="text_6">
    <g id="patch_19">
     <path d="M 483.781226 166.989749 
L 498.75711 174.27147 
Q 500.645694 175.189756 501.56398 173.301172 
L 504.526409 167.20852 
Q 505.444695 165.319936 503.556111 164.40165 
L 488.580227 157.119929 
Q 486.691643 156.201643 485.773357 158.090227 
L 482.810928 164.182879 
Q 481.892642 166.071463 483.781226 166.989749 
z
" clip-path="url(#p7b5ec4ebb9)" style="fill: #ffffff; stroke: #ffffff; stroke-linejoin: miter"/>
    </g>
    <g clip-path="url(#p7b5ec4ebb9)">
     <!-- false -->
     <g transform="translate(485.336095 163.791943) rotate(-334.069597) scale(0.07 -0.07)">
      <use xlink:href="#DejaVuSans-66"/>
      <use xlink:href="#DejaVuSans-61" transform="translate(35.205078 0)"/>
      <use xlink:href="#DejaVuSans-6c" transform="translate(96.484375 0)"/>
      <use xlink:href="#DejaVuSans-73" transform="translate(124.267578 0)"/>
      <use xlink:href="#DejaVuSans-65" transform="translate(176.367188 0)"/>
     </g>
    </g>
   </g>
   <g id="PathCollection_1">
    <defs>
     <path id="C0_0_2e1857126c" d="M 0 22.36068 
C 5.930122 22.36068 11.618159 20.004617 15.811388 15.811388 
C 20.004617 11.618159 22.36068 5.930122 22.36068 -0 
C 22.36068 -5.930122 20.004617 -11.618159 15.811388 -15.811388 
C 11.618159 -20.004617 5.930122 -22.36068 0 -22.36068 
C -5.930122 -22.36068 -11.618159 -20.004617 -15.811388 -15.811388 
C -20.004617 -11.618159 -22.36068 -5.930122 -22.36068 0 
C -22.36068 5.930122 -20.004617 11.618159 -15.811388 15.811388 
C -11.618159 20.004617 -5.930122 22.36068 0 22.36068 
z
"/>
    </defs>
    <g clip-path="url(#p7b5ec4ebb9)">
     <use xlink:href="#C0_0_2e1857126c" x="80.300826" y="514.786573" style="fill: #e8f5e9; stroke: #e8f5e9"/>
    </g>
    <g clip-path="url(#p7b5ec4ebb9)">
     <use xlink:href="#C0_0_2e1857126c" x="776.499174" y="514.786573" style="fill: #e8f5e9; stroke: #e8f5e9"/>
    </g>
    <g clip-path="url(#p7b5ec4ebb9)">
     <use xlink:href="#C0_0_2e1857126c" x="689.47438" y="387.844424" style="fill: #fff3e0; stroke: #fff3e0"/>
    </g>
    <g clip-path="url(#p7b5ec4ebb9)">
     <use xlink:href="#C0_0_2e1857126c" x="123.813223" y="451.315498" style="fill: #e8f5e9; stroke: #e8f5e9"/>
    </g>
    <g clip-path="url(#p7b5ec4ebb9)">
     <use xlink:href="#C0_0_2e1857126c" x="210.838017" y="324.37335" style="fill: #fff3e0; stroke: #fff3e0"/>
    </g>
    <g clip-path="url(#p7b5ec4ebb9)">
     <use xlink:href="#C0_0_2e1857126c" x="384.887603" y="70.489052" style="fill: #e8f5e9; stroke: #e8f5e9"/>
    </g>
    <g clip-path="url(#p7b5ec4ebb9)">
     <use xlink:href="#C0_0_2e1857126c" x="428.4" y="133.960127" style="fill: #fff3e0; stroke: #fff3e0"/>
    </g>
    <g clip-path="url(#p7b5ec4ebb9)">
     <use xlink:href="#C0_0_2e1857126c" x="471.912397" y="70.489052" style="fill: #e3f2fd; stroke: #e3f2fd"/>
    </g>
    <g clip-path="url(#p7b5ec4ebb9)">
     <use xlink:href="#C0_0_2e1857126c" x="602.449587" y="260.902275" style="fill: #e8f5e9; stroke: #e8f5e9"/>
    </g>
    <g clip-path="url(#p7b5ec4ebb9)">
     <use xlink:href="#C0_0_2e1857126c" x="558.93719" y="197.431201" style="fill: #eceff1; stroke: #eceff1"/>
    </g>
   </g>
   <g id="text_7">
    <g clip-path="url(#p7b5ec4ebb9)">
     <!-- build -->
     <g transform="translate(70.464576 516.994073) scale(0.08 -0.08)">
      <defs>
       <path id="DejaVuSans-62" d="M 3116 1747 
Q 3116 2381 2855 2742 
Q 2594 3103 2138 3103 
Q 1681 3103 1420 2742 
Q 1159 2381 1159 1747 
Q 1159 1113 1420 752 
Q 1681 391 2138 391 
Q 2594 391 2855 752 
Q 3116 1113 3116 1747 
z
M 1159 2969 
Q 1341 3281 1617 3432 
Q 1894 3584 2278 3584 
Q 2916 3584 3314 3078 
Q 3713 2572 3713 1747 
Q 3713 922 3314 415 
Q 2916 -91 2278 -91 
Q 1894 -91 1617 61 
Q 1341 213 1159 525 
L 1159 0 
L 581 0 
L 581 4863 
L 1159 4863 
L 1159 2969 
z
" transform="scale(0.015625)"/>
       <path id="DejaVuSans-69" d="M 603 3500 
L 1178 3500 
L 1178 0 
L 603 0 
L 603 3500 
z
M 603 4863 
L 1178 4863 
L 1178 4134 
L 603 4134 
L 603 4863 
z
" transform="scale(0.015625)"/>
       <path id="DejaVuSans-64" d="M 2906 2969 
L 2906 4863 
L 3481 4863 
L 3481 0 
L 2906 0 
L 2906 525 
Q 2725 213 2448 61 
Q 2172 -91 1784 -91 
Q 1150 -91 751 415 
Q 353 922 353 1747 
Q 353 2572 751 3078 
Q 1150 3584 1784 3584 
Q 2172 3584 2448 3432 
Q 2725 3281 2906 2969 
z
M 947 1747 
Q 947 1113 1208 752 
Q 1469 391 1925 391 
Q 2381 391 2643 752 
Q 2906 1113 2906 1747 
Q 2906 2381 2643 2742 
Q 2381 3103 1925 3103 
Q 1469 3103 1208 2742 
Q 947 2381 947 1747 
z
" transform="scale(0.015625)"/>
      </defs>
      <use xlink:href="#DejaVuSans-62"/>
      <use xlink:href="#DejaVuSans-75" transform="translate(63.476562 0)"/>
      <use xlink:href="#DejaVuSans-69" transform="translate(126.855469 0)"/>
      <use xlink:href="#DejaVuSans-6c" transform="translate(154.638672 0)"/>
      <use xlink:href="#DejaVuSans-64" transform="translate(182.421875 0)"/>
     </g>
    </g>
   </g>
   <g id="text_8">
    <g clip-path="url(#p7b5ec4ebb9)">
     <!-- test -->
     <g transform="translate(768.817924 516.994073) scale(0.08 -0.08)">
      <use xlink:href="#DejaVuSans-74"/>
      <use xlink:href="#DejaVuSans-65" transform="translate(39.208984 0)"/>
      <use xlink:href="#DejaVuSans-73" transform="translate(100.732422 0)"/>
      <use xlink:href="#DejaVuSans-74" transform="translate(152.832031 0)"/>
     </g>
    </g>
   </g>
   <g id="text_9">
    <g clip-path="url(#p7b5ec4ebb9)">
     <!-- check_tests -->
     <g transform="translate(665.99813 389.940674) scale(0.08 -0.08)">
      <defs>
       <path id="DejaVuSans-63" d="M 3122 3366 
L 3122 2828 
Q 2878 2963 2633 3030 
Q 2388 3097 2138 3097 
Q 1578 3097 1268 2742 
Q 959 2388 959 1747 
Q 959 1106 1268 751 
Q 1578 397 2138 397 
Q 2388 397 2633 464 
Q 2878 531 3122 666 
L 3122 134 
Q 2881 22 2623 -34 
Q 2366 -91 2075 -91 
Q 1284 -91 818 406 
Q 353 903 353 1747 
Q 353 2603 823 3093 
Q 1294 3584 2113 3584 
Q 2378 3584 2631 3529 
Q 2884 3475 3122 3366 
z
" transform="scale(0.015625)"/>
       <path id="DejaVuSans-68" d="M 3513 2113 
L 3513 0 
L 2938 0 
L 2938 2094 
Q 2938 2591 2744 2837 
Q 2550 3084 2163 3084 
Q 1697 3084 1428 2787 
Q 1159 2491 1159 1978 
L 1159 0 
L 581 0 
L 581 4863 
L 1159 4863 
L 1159 2956 
Q 1366 3272 1645 3428 
Q 1925 3584 2291 3584 
Q 2894 3584 3203 3211 
Q 3513 2838 3513 2113 
z
" transform="scale(0.015625)"/>
       <path id="DejaVuSans-6b" d="M 581 4863 
L 1159 4863 
L 1159 1991 
L 2875 3500 
L 3609 3500 
L 1753 1863 
L 3688 0 
L 2938 0 
L 1159 1709 
L 1159 0 
L 581 0 
L 581 4863 
z
" transform="scale(0.015625)"/>
       <path id="DejaVuSans-5f" d="M 3263 -1063 
L 3263 -1509 
L -63 -1509 
L -63 -1063 
L 3263 -1063 
z
" transform="scale(0.015625)"/>
      </defs>
      <use xlink:href="#DejaVuSans-63"/>
      <use xlink:href="#DejaVuSans-68" transform="translate(54.980469 0)"/>
      <use xlink:href="#DejaVuSans-65" transform="translate(118.359375 0)"/>
      <use xlink:href="#DejaVuSans-63" transform="translate(179.882812 0)"/>
      <use xlink:href="#DejaVuSans-6b" transform="translate(234.863281 0)"/>
      <use xlink:href="#DejaVuSans-5f" transform="translate(292.773438 0)"/>
      <use xlink:href="#DejaVuSans-74" transform="translate(342.773438 0)"/>
      <use xlink:href="#DejaVuSans-65" transform="translate(381.982422 0)"/>
      <use xlink:href="#DejaVuSans-73" transform="translate(443.505859 0)"/>
      <use xlink:href="#DejaVuSans-74" transform="translate(495.605469 0)"/>
      <use xlink:href="#DejaVuSans-73" transform="translate(534.814453 0)"/>
     </g>
    </g>
   </g>
   <g id="text_10">
    <g clip-path="url(#p7b5ec4ebb9)">
     <!-- security_scan -->
     <g transform="translate(96.573223 453.411748) scale(0.08 -0.08)">
      <defs>
       <path id="DejaVuSans-79" d="M 2059 -325 
Q 1816 -950 1584 -1140 
Q 1353 -1331 966 -1331 
L 506 -1331 
L 506 -850 
L 844 -850 
Q 1081 -850 1212 -737 
Q 1344 -625 1503 -206 
L 1606 56 
L 191 3500 
L 800 3500 
L 1894 763 
L 2988 3500 
L 3597 3500 
L 2059 -325 
z
" transform="scale(0.015625)"/>
       <path id="DejaVuSans-6e" d="M 3513 2113 
L 3513 0 
L 2938 0 
L 2938 2094 
Q 2938 2591 2744 2837 
Q 2550 3084 2163 3084 
Q 1697 3084 1428 2787 
Q 1159 2491 1159 1978 
L 1159 0 
L 581 0 
L 581 3500 
L 1159 3500 
L 1159 2956 
Q 1366 3272 1645 3428 
Q 1925 3584 2291 3584 
Q 2894 3584 3203 3211 
Q 3513 2838 3513 2113 
z
" transform="scale(0.015625)"/>
      </defs>
      <use xlink:href="#DejaVuSans-73"/>
      <use xlink:href="#DejaVuSans-65" transform="translate(52.099609 0)"/>
      <use xlink:href="#DejaVuSans-63" transform="translate(113.623047 0)"/>
      <use xlink:href="#DejaVuSans-75" transform="translate(168.603516 0)"/>
      <use xlink:href="#DejaVuSans-72" transform="translate(231.982422 0)"/>
      <use xlink:href="#DejaVuSans-69" transform="translate(273.095703 0)"/>
      <use xlink:href="#DejaVuSans-74" transform="translate(300.878906 0)"/>
      <use xlink:href="#DejaVuSans-79" transform="translate(340.087891 0)"/>
      <use xlink:href="#DejaVuSans-5f" transform="translate(399.267578 0)"/>
      <use xlink:href="#DejaVuSans-73" transform="translate(449.267578 0)"/>
      <use xlink:href="#DejaVuSans-63" transform="translate(501.367188 0)"/>
      <use xlink:href="#DejaVuSans-61" transform="translate(556.347656 0)"/>
      <use xlink:href="#DejaVuSans-6e" transform="translate(617.626953 0)"/>
     </g>
    </g>
   </g>
   <g id="text_11">
    <g clip-path="url(#p7b5ec4ebb9)">
     <!-- check_security -->
     <g transform="translate(181.156142 326.4696) scale(0.08 -0.08)">
      <use xlink:href="#DejaVuSans-63"/>
      <use xlink:href="#DejaVuSans-68" transform="translate(54.980469 0)"/>
      <use xlink:href="#DejaVuSans-65" transform="translate(118.359375 0)"/>
      <use xlink:href="#DejaVuSans-63" transform="translate(179.882812 0)"/>
      <use xlink:href="#DejaVuSans-6b" transform="translate(234.863281 0)"/>
      <use xlink:href="#DejaVuSans-5f" transform="translate(292.773438 0)"/>
      <use xlink:href="#DejaVuSans-73" transform="translate(342.773438 0)"/>
      <use xlink:href="#DejaVuSans-65" transform="translate(394.873047 0)"/>
      <use xlink:href="#DejaVuSans-63" transform="translate(456.396484 0)"/>
      <use xlink:href="#DejaVuSans-75" transform="translate(511.376953 0)"/>
      <use xlink:href="#DejaVuSans-72" transform="translate(574.755859 0)"/>
      <use xlink:href="#DejaVuSans-69" transform="translate(615.869141 0)"/>
      <use xlink:href="#DejaVuSans-74" transform="translate(643.652344 0)"/>
      <use xlink:href="#DejaVuSans-79" transform="translate(682.861328 0)"/>
     </g>
    </g>
   </g>
   <g id="text_12">
    <g clip-path="url(#p7b5ec4ebb9)">
     <!-- push_image -->
     <g transform="translate(360.735103 72.585302) scale(0.08 -0.08)">
      <defs>
       <path id="DejaVuSans-70" d="M 1159 525 
L 1159 -1331 
L 581 -1331 
L 581 3500 
L 1159 3500 
L 1159 2969 
Q 1341 3281 1617 3432 
Q 1894 3584 2278 3584 
Q 2916 3584 3314 3078 
Q 3713 2572 3713 1747 
Q 3713 922 3314 415 
Q 2916 -91 2278 -91 
Q 1894 -91 1617 61 
Q 1341 213 1159 525 
z
M 3116 1747 
Q 3116 2381 2855 2742 
Q 2594 3103 2138 3103 
Q 1681 3103 1420 2742 
Q 1159 2381 1159 1747 
Q 1159 1113 1420 752 
Q 1681 391 2138 391 
Q 2594 391 2855 752 
Q 3116 1113 3116 1747 
z
" transform="scale(0.015625)"/>
       <path id="DejaVuSans-6d" d="M 3328 2828 
Q 3544 3216 3844 3400 
Q 4144 3584 4550 3584 
Q 5097 3584 5394 3201 
Q 5691 2819 5691 2113 
L 5691 0 
L 5113 0 
L 5113 2094 
Q 5113 2597 4934 2840 
Q 4756 3084 4391 3084 
Q 3944 3084 3684 2787 
Q 3425 2491 3425 1978 
L 3425 0 
L 2847 0 
L 2847 2094 
Q 2847 2600 2669 2842 
Q 2491 3084 2119 3084 
Q 1678 3084 1418 2786 
Q 1159 2488 1159 1978 
L 1159 0 
L 581 0 
L 581 3500 
L 1159 3500 
L 1159 2956 
Q 1356 3278 1631 3431 
Q 1906 3584 2284 3584 
Q 2666 3584 2933 3390 
Q 3200 3197 3328 2828 
z
" transform="scale(0.015625)"/>
       <path id="DejaVuSans-67" d="M 2906 1791 
Q 2906 2416 2648 2759 
Q 2391 3103 1925 3103 
Q 1463 3103 1205 2759 
Q 947 2416 947 1791 
Q 947 1169 1205 825 
Q 1463 481 1925 481 
Q 2391 481 2648 825 
Q 2906 1169 2906 1791 
z
M 3481 434 
Q 3481 -459 3084 -895 
Q 2688 -1331 1869 -1331 
Q 1566 -1331 1297 -1286 
Q 1028 -1241 775 -1147 
L 775 -588 
Q 1028 -725 1275 -790 
Q 1522 -856 1778 -856 
Q 2344 -856 2625 -561 
Q 2906 -266 2906 331 
L 2906 616 
Q 2728 306 2450 153 
Q 2172 0 1784 0 
Q 1141 0 747 490 
Q 353 981 353 1791 
Q 353 2603 747 3093 
Q 1141 3584 1784 3584 
Q 2172 3584 2450 3431 
Q 2728 3278 2906 2969 
L 2906 3500 
L 3481 3500 
L 3481 434 
z
" transform="scale(0.015625)"/>
      </defs>
      <use xlink:href="#DejaVuSans-70"/>
      <use xlink:href="#DejaVuSans-75" transform="translate(63.476562 0)"/>
      <use xlink:href="#DejaVuSans-73" transform="translate(126.855469 0)"/>
      <use xlink:href="#DejaVuSans-68" transform="translate(178.955078 0)"/>
      <use xlink:href="#DejaVuSans-5f" transform="translate(242.333984 0)"/>
      <use xlink:href="#DejaVuSans-69" transform="translate(292.333984 0)"/>
      <use xlink:href="#DejaVuSans-6d" transform="translate(320.117188 0)"/>
      <use xlink:href="#DejaVuSans-61" transform="translate(417.529297 0)"/>
      <use xlink:href="#DejaVuSans-67" transform="translate(478.808594 0)"/>
      <use xlink:href="#DejaVuSans-65" transform="translate(542.285156 0)"/>
     </g>
    </g>
   </g>
   <g id="text_13">
    <g clip-path="url(#p7b5ec4ebb9)">
     <!-- trigger_deploy -->
     <g transform="translate(399.425625 136.056377) scale(0.08 -0.08)">
      <defs>
       <path id="DejaVuSans-6f" d="M 1959 3097 
Q 1497 3097 1228 2736 
Q 959 2375 959 1747 
Q 959 1119 1226 758 
Q 1494 397 1959 397 
Q 2419 397 2687 759 
Q 2956 1122 2956 1747 
Q 2956 2369 2687 2733 
Q 2419 3097 1959 3097 
z
M 1959 3584 
Q 2709 3584 3137 3096 
Q 3566 2609 3566 1747 
Q 3566 888 3137 398 
Q 2709 -91 1959 -91 
Q 1206 -91 779 398 
Q 353 888 353 1747 
Q 353 2609 779 3096 
Q 1206 3584 1959 3584 
z
" transform="scale(0.015625)"/>
      </defs>
      <use xlink:href="#DejaVuSans-74"/>
      <use xlink:href="#DejaVuSans-72" transform="translate(39.208984 0)"/>
      <use xlink:href="#DejaVuSans-69" transform="translate(80.322266 0)"/>
      <use xlink:href="#DejaVuSans-67" transform="translate(108.105469 0)"/>
      <use xlink:href="#DejaVuSans-67" transform="translate(171.582031 0)"/>
      <use xlink:href="#DejaVuSans-65" transform="translate(235.058594 0)"/>
      <use xlink:href="#DejaVuSans-72" transform="translate(296.582031 0)"/>
      <use xlink:href="#DejaVuSans-5f" transform="translate(337.695312 0)"/>
      <use xlink:href="#DejaVuSans-64" transform="translate(387.695312 0)"/>
      <use xlink:href="#DejaVuSans-65" transform="translate(451.171875 0)"/>
      <use xlink:href="#DejaVuSans-70" transform="translate(512.695312 0)"/>
      <use xlink:href="#DejaVuSans-6c" transform="translate(576.171875 0)"/>
      <use xlink:href="#DejaVuSans-6f" transform="translate(603.955078 0)"/>
      <use xlink:href="#DejaVuSans-79" transform="translate(665.136719 0)"/>
     </g>
    </g>
   </g>
   <g id="text_14">
    <g clip-path="url(#p7b5ec4ebb9)">
     <!-- auto_deploy -->
     <g transform="translate(447.444272 72.585302) scale(0.08 -0.08)">
      <use xlink:href="#DejaVuSans-61"/>
      <use xlink:href="#DejaVuSans-75" transform="translate(61.279297 0)"/>
      <use xlink:href="#DejaVuSans-74" transform="translate(124.658203 0)"/>
      <use xlink:href="#DejaVuSans-6f" transform="translate(163.867188 0)"/>
      <use xlink:href="#DejaVuSans-5f" transform="translate(225.048828 0)"/>
      <use xlink:href="#DejaVuSans-64" transform="translate(275.048828 0)"/>
      <use xlink:href="#DejaVuSans-65" transform="translate(338.525391 0)"/>
      <use xlink:href="#DejaVuSans-70" transform="translate(400.048828 0)"/>
      <use xlink:href="#DejaVuSans-6c" transform="translate(463.525391 0)"/>
      <use xlink:href="#DejaVuSans-6f" transform="translate(491.308594 0)"/>
      <use xlink:href="#DejaVuSans-79" transform="translate(552.490234 0)"/>
     </g>
    </g>
   </g>
   <g id="text_15">
    <g clip-path="url(#p7b5ec4ebb9)">
     <!-- notify_failure -->
     <g transform="translate(576.449587 262.998525) scale(0.08 -0.08)">
      <use xlink:href="#DejaVuSans-6e"/>
      <use xlink:href="#DejaVuSans-6f" transform="translate(63.378906 0)"/>
      <use xlink:href="#DejaVuSans-74" transform="translate(124.560547 0)"/>
      <use xlink:href="#DejaVuSans-69" transform="translate(163.769531 0)"/>
      <use xlink:href="#DejaVuSans-66" transform="translate(191.552734 0)"/>
      <use xlink:href="#DejaVuSans-79" transform="translate(225.007812 0)"/>
      <use xlink:href="#DejaVuSans-5f" transform="translate(284.1875 0)"/>
      <use xlink:href="#DejaVuSans-66" transform="translate(334.1875 0)"/>
      <use xlink:href="#DejaVuSans-61" transform="translate(369.392578 0)"/>
      <use xlink:href="#DejaVuSans-69" transform="translate(430.671875 0)"/>
      <use xlink:href="#DejaVuSans-6c" transform="translate(458.455078 0)"/>
      <use xlink:href="#DejaVuSans-75" transform="translate(486.238281 0)"/>
      <use xlink:href="#DejaVuSans-72" transform="translate(549.617188 0)"/>
      <use xlink:href="#DejaVuSans-65" transform="translate(588.480469 0)"/>
     </g>
    </g>
   </g>
   <g id="text_16">
    <g clip-path="url(#p7b5ec4ebb9)">
     <!-- complete -->
     <g transform="translate(540.252815 199.638701) scale(0.08 -0.08)">
      <use xlink:href="#DejaVuSans-63"/>
      <use xlink:href="#DejaVuSans-6f" transform="translate(54.980469 0)"/>
      <use xlink:href="#DejaVuSans-6d" transform="translate(116.162109 0)"/>
      <use xlink:href="#DejaVuSans-70" transform="translate(213.574219 0)"/>
      <use xlink:href="#DejaVuSans-6c" transform="translate(277.050781 0)"/>
      <use xlink:href="#DejaVuSans-65" transform="translate(304.833984 0)"/>
      <use xlink:href="#DejaVuSans-74" transform="translate(366.357422 0)"/>
      <use xlink:href="#DejaVuSans-65" transform="translate(405.566406 0)"/>
     </g>
    </g>
   </g>
   <g id="text_17">
    <!-- cicd -->
    <g transform="translate(412.690469 17.837812) scale(0.14 -0.14)">
     <defs>
      <path id="DejaVuSans-Bold-63" d="M 3366 3391 
L 3366 2478 
Q 3138 2634 2908 2709 
Q 2678 2784 2431 2784 
Q 1963 2784 1702 2511 
Q 1441 2238 1441 1747 
Q 1441 1256 1702 982 
Q 1963 709 2431 709 
Q 2694 709 2930 787 
Q 3166 866 3366 1019 
L 3366 103 
Q 3103 6 2833 -42 
Q 2563 -91 2291 -91 
Q 1344 -91 809 395 
Q 275 881 275 1747 
Q 275 2613 809 3098 
Q 1344 3584 2291 3584 
Q 2566 3584 2833 3536 
Q 3100 3488 3366 3391 
z
" transform="scale(0.015625)"/>
      <path id="DejaVuSans-Bold-69" d="M 538 3500 
L 1656 3500 
L 1656 0 
L 538 0 
L 538 3500 
z
M 538 4863 
L 1656 4863 
L 1656 3950 
L 538 3950 
L 538 4863 
z
" transform="scale(0.015625)"/>
      <path id="DejaVuSans-Bold-64" d="M 2919 2988 
L 2919 4863 
L 4044 4863 
L 4044 0 
L 2919 0 
L 2919 506 
Q 2688 197 2409 53 
Q 2131 -91 1766 -91 
Q 1119 -91 703 423 
Q 288 938 288 1747 
Q 288 2556 703 3070 
Q 1119 3584 1766 3584 
Q 2128 3584 2408 3439 
Q 2688 3294 2919 2988 
z
M 2181 722 
Q 2541 722 2730 984 
Q 2919 1247 2919 1747 
Q 2919 2247 2730 2509 
Q 2541 2772 2181 2772 
Q 1825 2772 1636 2509 
Q 1447 2247 1447 1747 
Q 1447 1247 1636 984 
Q 1825 722 2181 722 
z
" transform="scale(0.015625)"/>
     </defs>
     <use xlink:href="#DejaVuSans-Bold-63"/>
     <use xlink:href="#DejaVuSans-Bold-69" transform="translate(59.277344 0)"/>
     <use xlink:href="#DejaVuSans-Bold-63" transform="translate(93.554688 0)"/>
     <use xlink:href="#DejaVuSans-Bold-64" transform="translate(152.832031 0)"/>
    </g>
   </g>
  </g>
 </g>
 <defs>
  <clipPath id="p7b5ec4ebb9">
   <rect x="7.2" y="23.837812" width="842.4" height="537.6"/>
  </clipPath>
 </defs>
</svg>
