<?xml version="1.0" encoding="utf-8" standalone="no"?>
<!DOCTYPE svg PUBLIC "-//W3C//DTD SVG 1.1//EN"
  "http://www.w3.org/Graphics/SVG/1.1/DTD/svg11.dtd">
<svg xmlns:xlink="http://www.w3.org/1999/xlink" width="856.8pt" height="568.637812pt" viewBox="0 0 856.8 568.637812" xmlns="http://www.w3.org/2000/svg" version="1.1">
 <metadata>
  <rdf:RDF xmlns:dc="http://purl.org/dc/elements/1.1/" xmlns:cc="http://creativecommons.org/ns#" xmlns:rdf="http://www.w3.org/1999/02/22-rdf-syntax-ns#">
   <cc:Work>
    <dc:type rdf:resource="http://purl.org/dc/dcmitype/StillImage"/>
    <dc:date>2026-01-03T04:00:45.822316</dc:date>
    <dc:format>image/svg+xml</dc:format>
    <dc:creator>
     <cc:Agent>
      <dc:title>Matplotlib v3.10.8, https://matplotlib.org/</dc:title>
     </cc:Agent>
    </dc:creator>
   </cc:Work>
  </rdf:RDF>
 </metadata>
 <defs>
  <style type="text/css">*{stroke-linejoin: round; stroke-linecap: butt}</style>
 </defs>
 <g id="figure_1">
  <g id="patch_1">
   <path d="M 0 568.637812 
L 856.8 568.637812 
L 856.8 0 
L 0 0 
z
" style="fill: #ffffff"/>
  </g>
  <g id="axes_1">
   <g id="patch_2">
    <path d="M 281.857982 421.26688 
Q 254.348752 403.711133 227.78199 386.756846 
" clip-path="url(#p26174f7c84)" style="fill: none; stroke: #666666; stroke-linecap: round"/>
    <path d="M 230.077939 390.594634 
L 227.78199 386.756846 
L 232.22979 387.22276 
z
" clip-path="url(#p26174f7c84)" style="fill: #666666; stroke: #666666; stroke-linecap: round"/>
   </g>
   <g id="patch_3">
    <path d="M 219.540496 372.838613 
Q 219.540496 359.282556 219.540496 346.844533 
" clip-path="url(#p26174f7c84)" style="fill: none; stroke: #666666; stroke-linecap: round"/>
    <path d="M 217.540496 350.844533 
L 219.540496 346.844533 
L 221.540496 350.844533 
z
" clip-path="url(#p26174f7c84)" style="fill: #666666; stroke: #666666; stroke-linecap: round"/>
   </g>
   <g id="patch_4">
    <path d="M 219.540496 328.408861 
Q 219.540496 314.852804 219.540496 302.414781 
" clip-path="url(#p26174f7c84)" style="fill: none; stroke: #666666; stroke-linecap: round"/>
    <path d="M 217.540496 306.414781 
L 219.540496 302.414781 
L 221.540496 306.414781 
z
" clip-path="url(#p26174f7c84)" style="fill: #666666; stroke: #666666; stroke-linecap: round"/>
   </g>
   <g id="patch_5">
    <path d="M 214.940675 299.976559 
Q 149.920697 403.712135 85.494493 506.500382 
" clip-path="url(#p26174f7c84)" style="fill: none; stroke: #666666; stroke-linecap: round"/>
    <path d="M 89.313474 504.173284 
L 85.494493 506.500382 
L 85.924204 502.048938 
z
" clip-path="url(#p26174f7c84)" style="fill: #666666; stroke: #666666; stroke-linecap: round"/>
   </g>
   <g id="patch_6">
    <path d="M 88.94479 514.215913 
Q 416.798986 492.571545 743.537577 471.000828 
" clip-path="url(#p26174f7c84)" style="fill: none; stroke: #666666; stroke-linecap: round"/>
    <path d="M 739.414515 469.268672 
L 743.537577 471.000828 
L 739.678015 473.259983 
z
" clip-path="url(#p26174f7c84)" style="fill: #666666; stroke: #666666; stroke-linecap: round"/>
   </g>
   <g id="patch_7">
    <path d="M 88.961344 514.786573 
Q 428.401412 514.786573 766.723446 514.786573 
" clip-path="url(#p26174f7c84)" style="fill: none; stroke: #666666; stroke-linecap: round"/>
    <path d="M 762.723446 512.786573 
L 766.723446 514.786573 
L 762.723446 516.786573 
z
" clip-path="url(#p26174f7c84)" style="fill: #666666; stroke: #666666; stroke-linecap: round"/>
   </g>
   <g id="patch_8">
    <path d="M 84.311063 507.108855 
Q 196.333735 292.638098 307.838789 79.158336 
" clip-path="url(#p26174f7c84)" style="fill: none; stroke: #666666; stroke-linecap: round"/>
    <path d="M 304.214157 81.777885 
L 307.838789 79.158336 
L 307.759649 83.629772 
z
" clip-path="url(#p26174f7c84)" style="fill: #666666; stroke: #666666; stroke-linecap: round"/>
   </g>
   <g id="patch_9">
    <path d="M 309.028442 78.478625 
Q 265.953766 181.563321 223.310148 283.616423 
" clip-path="url(#p26174f7c84)" style="fill: none; stroke: #666666; stroke-linecap: round"/>
    <path d="M 226.697726 280.696779 
L 223.310148 283.616423 
L 223.00698 279.154574 
z
" clip-path="url(#p26174f7c84)" style="fill: #666666; stroke: #666666; stroke-linecap: round"/>
   </g>
   <g id="patch_10">
    <path d="M 772.489291 507.109533 
Q 764.895077 492.570183 757.818481 479.021829 
" clip-path="url(#p26174f7c84)" style="fill: none; stroke: #666666; stroke-linecap: round"/>
    <path d="M 757.897622 483.493265 
L 757.818481 479.021829 
L 761.443114 481.641378 
z
" clip-path="url(#p26174f7c84)" style="fill: #666666; stroke: #666666; stroke-linecap: round"/>
   </g>
   <g id="patch_11">
    <path d="M 749.282679 462.67978 
Q 730.086135 425.927423 711.407209 390.16606 
" clip-path="url(#p26174f7c84)" style="fill: none; stroke: #666666; stroke-linecap: round"/>
    <path d="M 711.48635 394.637496 
L 711.407209 390.16606 
L 715.031842 392.785609 
z
" clip-path="url(#p26174f7c84)" style="fill: #666666; stroke: #666666; stroke-linecap: round"/>
   </g>
   <g id="patch_12">
    <path d="M 698.795126 378.401823 
Q 648.864503 359.283089 599.977988 340.56415 
" clip-path="url(#p26174f7c84)" style="fill: none; stroke: #666666; stroke-linecap: round"/>
    <path d="M 602.99833 343.862261 
L 599.977988 340.56415 
L 604.428682 340.126743 
z
" clip-path="url(#p26174f7c84)" style="fill: #666666; stroke: #666666; stroke-linecap: round"/>
   </g>
   <g id="patch_13">
    <path d="M 702.870164 373.821632 
Q 672.070116 314.854018 641.787686 256.8774 
" clip-path="url(#p26174f7c84)" style="fill: none; stroke: #666666; stroke-linecap: round"/>
    <path d="M 641.866826 261.348836 
L 641.787686 256.8774 
L 645.412319 259.496949 
z
" clip-path="url(#p26174f7c84)" style="fill: #666666; stroke: #666666; stroke-linecap: round"/>
   </g>
   <g id="patch_14">
    <path d="M 701.540147 374.682621 
Q 672.070666 337.069153 643.290715 300.335768 
" clip-path="url(#p26174f7c84)" style="fill: none; stroke: #666666; stroke-linecap: round"/>
    <path d="M 644.183311 304.717922 
L 643.290715 300.335768 
L 647.331996 302.250984 
z
" clip-path="url(#p26174f7c84)" style="fill: #666666; stroke: #666666; stroke-linecap: round"/>
   </g>
   <g id="patch_15">
    <path d="M 633.249621 255.885101 
Q 614.053077 292.637459 595.374151 328.398821 
" clip-path="url(#p26174f7c84)" style="fill: none; stroke: #666666; stroke-linecap: round"/>
    <path d="M 598.998784 325.779272 
L 595.374151 328.398821 
L 595.453292 323.927385 
z
" clip-path="url(#p26174f7c84)" style="fill: #666666; stroke: #666666; stroke-linecap: round"/>
   </g>
   <g id="patch_16">
    <path d="M 631.001764 298.628128 
Q 614.052592 314.852977 597.911057 330.304702 
" clip-path="url(#p26174f7c84)" style="fill: none; stroke: #666666; stroke-linecap: round"/>
    <path d="M 602.183558 328.983437 
L 597.911057 330.304702 
L 599.417546 326.093943 
z
" clip-path="url(#p26174f7c84)" style="fill: #666666; stroke: #666666; stroke-linecap: round"/>
   </g>
   <g id="patch_17">
    <path d="M 586.836398 329.390524 
Q 579.242185 314.851175 572.165589 301.302821 
" clip-path="url(#p26174f7c84)" style="fill: none; stroke: #666666; stroke-linecap: round"/>
    <path d="M 572.244729 305.774256 
L 572.165589 301.302821 
L 575.790222 303.92237 
z
" clip-path="url(#p26174f7c84)" style="fill: #666666; stroke: #666666; stroke-linecap: round"/>
   </g>
   <g id="patch_18">
    <path d="M 563.630495 284.962128 
Q 532.830447 225.994514 502.548016 168.017896 
" clip-path="url(#p26174f7c84)" style="fill: none; stroke: #666666; stroke-linecap: round"/>
    <path d="M 502.627157 172.489331 
L 502.548016 168.017896 
L 506.172649 170.637445 
z
" clip-path="url(#p26174f7c84)" style="fill: #666666; stroke: #666666; stroke-linecap: round"/>
   </g>
   <g id="patch_19">
    <path d="M 559.283859 290.352463 
Q 486.416766 270.423001 414.6281 250.788494 
" clip-path="url(#p26174f7c84)" style="fill: none; stroke: #666666; stroke-linecap: round"/>
    <path d="M 417.958763 253.772901 
L 414.6281 250.788494 
L 419.014023 249.914607 
z
" clip-path="url(#p26174f7c84)" style="fill: #666666; stroke: #666666; stroke-linecap: round"/>
   </g>
   <g id="patch_20">
    <path d="M 401.183506 240.53102 
Q 358.780291 159.348798 316.894695 79.157571 
" clip-path="url(#p26174f7c84)" style="fill: none; stroke: #666666; stroke-linecap: round"/>
    <path d="M 316.973836 83.629007 
L 316.894695 79.157571 
L 320.519328 81.77712 
z
" clip-path="url(#p26174f7c84)" style="fill: #666666; stroke: #666666; stroke-linecap: round"/>
   </g>
   <g id="patch_21">
    <path d="M 494.009952 151.671516 
Q 486.415738 137.132167 479.339143 123.583812 
" clip-path="url(#p26174f7c84)" style="fill: none; stroke: #666666; stroke-linecap: round"/>
    <path d="M 479.418283 128.055248 
L 479.339143 123.583812 
L 482.963775 126.203361 
z
" clip-path="url(#p26174f7c84)" style="fill: #666666; stroke: #666666; stroke-linecap: round"/>
   </g>
   <g id="patch_22">
    <path d="M 470.80334 122.595845 
Q 451.606796 159.348202 432.92787 195.109565 
" clip-path="url(#p26174f7c84)" style="fill: none; stroke: #666666; stroke-linecap: round"/>
    <path d="M 436.552503 192.490016 
L 432.92787 195.109565 
L 433.007011 190.638129 
z
" clip-path="url(#p26174f7c84)" style="fill: #666666; stroke: #666666; stroke-linecap: round"/>
   </g>
   <g id="text_1">
    <g id="patch_23">
     <path d="M 404.872136 498.858224 
L 429.448793 497.235716 
Q 431.544231 497.097379 431.405894 495.00194 
L 430.959612 488.241968 
Q 430.821275 486.146529 428.725836 486.284867 
L 404.14918 487.907375 
Q 402.053741 488.045712 402.192078 490.141151 
L 402.63836 496.901123 
Q 402.776697 498.996562 404.872136 498.858224 
z
" clip-path="url(#p26174f7c84)" style="fill: #ffffff; stroke: #ffffff; stroke-linejoin: miter"/>
    </g>
    <g clip-path="url(#p26174f7c84)">
     <!-- default -->
     <g transform="translate(404.637899 495.310167) rotate(-3.777087) scale(0.07 -0.07)">
      <defs>
       <path id="DejaVuSans-64" d="M 2906 2969 
L 2906 4863 
L 3481 4863 
L 3481 0 
L 2906 0 
L 2906 525 
Q 2725 213 2448 61 
Q 2172 -91 1784 -91 
Q 1150 -91 751 415 
Q 353 922 353 1747 
Q 353 2572 751 3078 
Q 1150 3584 1784 3584 
Q 2172 3584 2448 3432 
Q 2725 3281 2906 2969 
z
M 947 1747 
Q 947 1113 1208 752 
Q 1469 391 1925 391 
Q 2381 391 2643 752 
Q 2906 1113 2906 1747 
Q 2906 2381 2643 2742 
Q 2381 3103 1925 3103 
Q 1469 3103 1208 2742 
Q 947 2381 947 1747 
z
" transform="scale(0.015625)"/>
       <path id="DejaVuSans-65" d="M 3597 1894 
L 3597 1613 
L 953 1613 
Q 991 1019 1311 708 
Q 1631 397 2203 397 
Q 2534 397 2845 478 
Q 3156 559 3463 722 
L 3463 178 
Q 3153 47 2828 -22 
Q 2503 -91 2169 -91 
Q 1331 -91 842 396 
Q 353 884 353 1716 
Q 353 2575 817 3079 
Q 1281 3584 2069 3584 
Q 2775 3584 3186 3129 
Q 3597 2675 3597 1894 
z
M 3022 2063 
Q 3016 2534 2758 2815 
Q 2500 3097 2075 3097 
Q 1594 3097 1305 2825 
Q 1016 2553 972 2059 
L 3022 2063 
z
" transform="scale(0.015625)"/>
       <path id="DejaVuSans-66" d="M 2375 4863 
L 2375 4384 
L 1825 4384 
Q 1516 4384 1395 4259 
Q 1275 4134 1275 3809 
L 1275 3500 
L 2222 3500 
L 2222 3053 
L 1275 3053 
L 1275 0 
L 697 0 
L 697 3053 
L 147 3053 
L 147 3500 
L 697 3500 
L 697 3744 
Q 697 4328 969 4595 
Q 1241 4863 1831 4863 
L 2375 4863 
z
" transform="scale(0.015625)"/>
       <path id="DejaVuSans-61" d="M 2194 1759 
Q 1497 1759 1228 1600 
Q 959 1441 959 1056 
Q 959 750 1161 570 
Q 1363 391 1709 391 
Q 2188 391 2477 730 
Q 2766 1069 2766 1631 
L 2766 1759 
L 2194 1759 
z
M 3341 1997 
L 3341 0 
L 2766 0 
L 2766 531 
Q 2569 213 2275 61 
Q 1981 -91 1556 -91 
Q 1019 -91 701 211 
Q 384 513 384 1019 
Q 384 1609 779 1909 
Q 1175 2209 1959 2209 
L 2766 2209 
L 2766 2266 
Q 2766 2663 2505 2880 
Q 2244 3097 1772 3097 
Q 1472 3097 1187 3025 
Q 903 2953 641 2809 
L 641 3341 
Q 956 3463 1253 3523 
Q 1550 3584 1831 3584 
Q 2591 3584 2966 3190 
Q 3341 2797 3341 1997 
z
" transform="scale(0.015625)"/>
       <path id="DejaVuSans-75" d="M 544 1381 
L 544 3500 
L 1119 3500 
L 1119 1403 
Q 1119 906 1312 657 
Q 1506 409 1894 409 
Q 2359 409 2629 706 
Q 2900 1003 2900 1516 
L 2900 3500 
L 3475 3500 
L 3475 0 
L 2900 0 
L 2900 538 
Q 2691 219 2414 64 
Q 2138 -91 1772 -91 
Q 1169 -91 856 284 
Q 544 659 544 1381 
z
M 1991 3584 
L 1991 3584 
z
" transform="scale(0.015625)"/>
       <path id="DejaVuSans-6c" d="M 603 4863 
L 1178 4863 
L 1178 0 
L 603 0 
L 603 4863 
z
" transform="scale(0.015625)"/>
       <path id="DejaVuSans-74" d="M 1172 4494 
L 1172 3500 
L 2356 3500 
L 2356 3053 
L 1172 3053 
L 1172 1153 
Q 1172 725 1289 603 
Q 1406 481 1766 481 
L 2356 481 
L 2356 0 
L 1766 0 
Q 1100 0 847 248 
Q 594 497 594 1153 
L 594 3053 
L 172 3053 
L 172 3500 
L 594 3500 
L 594 4494 
L 1172 4494 
z
" transform="scale(0.015625)"/>
      </defs>
      <use xlink:href="#DejaVuSans-64"/>
      <use xlink:href="#DejaVuSans-65" transform="translate(63.476562 0)"/>
      <use xlink:href="#DejaVuSans-66" transform="translate(125 0)"/>
      <use xlink:href="#DejaVuSans-61" transform="translate(160.205078 0)"/>
      <use xlink:href="#DejaVuSans-75" transform="translate(221.484375 0)"/>
      <use xlink:href="#DejaVuSans-6c" transform="translate(284.863281 0)"/>
      <use xlink:href="#DejaVuSans-74" transform="translate(312.646484 0)"/>
     </g>
    </g>
   </g>
   <g id="text_2">
    <g id="patch_24">
     <path d="M 414.3861 520.273917 
L 442.416725 520.273917 
Q 444.516725 520.273917 444.516725 518.173917 
L 444.516725 511.399229 
Q 444.516725 509.299229 442.416725 509.299229 
L 414.3861 509.299229 
Q 412.2861 509.299229 412.2861 511.399229 
L 412.2861 518.173917 
Q 412.2861 520.273917 414.3861 520.273917 
z
" clip-path="url(#p26174f7c84)" style="fill: #ffffff; stroke: #ffffff; stroke-linejoin: miter"/>
    </g>
    <g clip-path="url(#p26174f7c84)">
     <!-- warning -->
     <g transform="translate(414.3861 516.718135) scale(0.07 -0.07)">
      <defs>
       <path id="DejaVuSans-77" d="M 269 3500 
L 844 3500 
L 1563 769 
L 2278 3500 
L 2956 3500 
L 3675 769 
L 4391 3500 
L 4966 3500 
L 4050 0 
L 3372 0 
L 2619 2869 
L 1863 0 
L 1184 0 
L 269 3500 
z
" transform="scale(0.015625)"/>
       <path id="DejaVuSans-72" d="M 2631 2963 
Q 2534 3019 2420 3045 
Q 2306 3072 2169 3072 
Q 1681 3072 1420 2755 
Q 1159 2438 1159 1844 
L 1159 0 
L 581 0 
L 581 3500 
L 1159 3500 
L 1159 2956 
Q 1341 3275 1631 3429 
Q 1922 3584 2338 3584 
Q 2397 3584 2469 3576 
Q 2541 3569 2628 3553 
L 2631 2963 
z
" transform="scale(0.015625)"/>
       <path id="DejaVuSans-6e" d="M 3513 2113 
L 3513 0 
L 2938 0 
L 2938 2094 
Q 2938 2591 2744 2837 
Q 2550 3084 2163 3084 
Q 1697 3084 1428 2787 
Q 1159 2491 1159 1978 
L 1159 0 
L 581 0 
L 581 3500 
L 1159 3500 
L 1159 2956 
Q 1366 3272 1645 3428 
Q 1925 3584 2291 3584 
Q 2894 3584 3203 3211 
Q 3513 2838 3513 2113 
z
" transform="scale(0.015625)"/>
       <path id="DejaVuSans-69" d="M 603 3500 
L 1178 3500 
L 1178 0 
L 603 0 
L 603 3500 
z
M 603 4863 
L 1178 4863 
L 1178 4134 
L 603 4134 
L 603 4863 
z
" transform="scale(0.015625)"/>
       <path id="DejaVuSans-67" d="M 2906 1791 
Q 2906 2416 2648 2759 
Q 2391 3103 1925 3103 
Q 1463 3103 1205 2759 
Q 947 2416 947 1791 
Q 947 1169 1205 825 
Q 1463 481 1925 481 
Q 2391 481 2648 825 
Q 2906 1169 2906 1791 
z
M 3481 434 
Q 3481 -459 3084 -895 
Q 2688 -1331 1869 -1331 
Q 1566 -1331 1297 -1286 
Q 1028 -1241 775 -1147 
L 775 -588 
Q 1028 -725 1275 -790 
Q 1522 -856 1778 -856 
Q 2344 -856 2625 -561 
Q 2906 -266 2906 331 
L 2906 616 
Q 2728 306 2450 153 
Q 2172 0 1784 0 
Q 1141 0 747 490 
Q 353 981 353 1791 
Q 353 2603 747 3093 
Q 1141 3584 1784 3584 
Q 2172 3584 2450 3431 
Q 2728 3278 2906 2969 
L 2906 3500 
L 3481 3500 
L 3481 434 
z
" transform="scale(0.015625)"/>
      </defs>
      <use xlink:href="#DejaVuSans-77"/>
      <use xlink:href="#DejaVuSans-61" transform="translate(81.787109 0)"/>
      <use xlink:href="#DejaVuSans-72" transform="translate(143.066406 0)"/>
      <use xlink:href="#DejaVuSans-6e" transform="translate(182.429688 0)"/>
      <use xlink:href="#DejaVuSans-69" transform="translate(245.808594 0)"/>
      <use xlink:href="#DejaVuSans-6e" transform="translate(273.591797 0)"/>
      <use xlink:href="#DejaVuSans-67" transform="translate(336.970703 0)"/>
     </g>
    </g>
   </g>
   <g id="text_3">
    <g id="patch_25">
     <path d="M 196.708046 303.773908 
L 205.687092 286.583256 
Q 206.659333 284.721873 204.797949 283.749632 
L 198.793048 280.613144 
Q 196.931665 279.640904 195.959424 281.502287 
L 186.980379 298.692939 
Q 186.008138 300.554323 187.869522 301.526563 
L 193.874422 304.663051 
Q 195.735806 305.635292 196.708046 303.773908 
z
" clip-path="url(#p26174f7c84)" style="fill: #ffffff; stroke: #ffffff; stroke-linejoin: miter"/>
    </g>
    <g clip-path="url(#p26174f7c84)">
     <!-- failed -->
     <g transform="translate(193.556297 302.127682) rotate(-62.42097) scale(0.07 -0.07)">
      <use xlink:href="#DejaVuSans-66"/>
      <use xlink:href="#DejaVuSans-61" transform="translate(35.205078 0)"/>
      <use xlink:href="#DejaVuSans-69" transform="translate(96.484375 0)"/>
      <use xlink:href="#DejaVuSans-6c" transform="translate(124.267578 0)"/>
      <use xlink:href="#DejaVuSans-65" transform="translate(152.050781 0)"/>
      <use xlink:href="#DejaVuSans-64" transform="translate(213.574219 0)"/>
     </g>
    </g>
   </g>
   <g id="text_4">
    <g id="patch_26">
     <path d="M 639.418783 361.542125 
L 654.385806 367.273088 
Q 656.346953 368.024023 657.097888 366.062876 
L 659.520435 359.736134 
Q 660.27137 357.774988 658.310223 357.024053 
L 643.3432 351.29309 
Q 641.382053 350.542155 640.631118 352.503302 
L 638.208571 358.830043 
Q 637.457636 360.79119 639.418783 361.542125 
z
" clip-path="url(#p26174f7c84)" style="fill: #ffffff; stroke: #ffffff; stroke-linejoin: miter"/>
    </g>
    <g clip-path="url(#p26174f7c84)">
     <!-- pass -->
     <g transform="translate(640.690288 358.221454) rotate(-339.047858) scale(0.07 -0.07)">
      <defs>
       <path id="DejaVuSans-70" d="M 1159 525 
L 1159 -1331 
L 581 -1331 
L 581 3500 
L 1159 3500 
L 1159 2969 
Q 1341 3281 1617 3432 
Q 1894 3584 2278 3584 
Q 2916 3584 3314 3078 
Q 3713 2572 3713 1747 
Q 3713 922 3314 415 
Q 2916 -91 2278 -91 
Q 1894 -91 1617 61 
Q 1341 213 1159 525 
z
M 3116 1747 
Q 3116 2381 2855 2742 
Q 2594 3103 2138 3103 
Q 1681 3103 1420 2742 
Q 1159 2381 1159 1747 
Q 1159 1113 1420 752 
Q 1681 391 2138 391 
Q 2594 391 2855 752 
Q 3116 1113 3116 1747 
z
" transform="scale(0.015625)"/>
       <path id="DejaVuSans-73" d="M 2834 3397 
L 2834 2853 
Q 2591 2978 2328 3040 
Q 2066 3103 1784 3103 
Q 1356 3103 1142 2972 
Q 928 2841 928 2578 
Q 928 2378 1081 2264 
Q 1234 2150 1697 2047 
L 1894 2003 
Q 2506 1872 2764 1633 
Q 3022 1394 3022 966 
Q 3022 478 2636 193 
Q 2250 -91 1575 -91 
Q 1294 -91 989 -36 
Q 684 19 347 128 
L 347 722 
Q 666 556 975 473 
Q 1284 391 1588 391 
Q 1994 391 2212 530 
Q 2431 669 2431 922 
Q 2431 1156 2273 1281 
Q 2116 1406 1581 1522 
L 1381 1569 
Q 847 1681 609 1914 
Q 372 2147 372 2553 
Q 372 3047 722 3315 
Q 1072 3584 1716 3584 
Q 2034 3584 2315 3537 
Q 2597 3491 2834 3397 
z
" transform="scale(0.015625)"/>
      </defs>
      <use xlink:href="#DejaVuSans-70"/>
      <use xlink:href="#DejaVuSans-61" transform="translate(63.476562 0)"/>
      <use xlink:href="#DejaVuSans-73" transform="translate(124.755859 0)"/>
      <use xlink:href="#DejaVuSans-73" transform="translate(176.855469 0)"/>
     </g>
    </g>
   </g>
   <g id="text_5">
    <g id="patch_27">
     <path d="M 663.223388 309.769132 
L 671.189177 325.019874 
Q 672.161417 326.881257 674.022801 325.909017 
L 680.027701 322.772528 
Q 681.889085 321.800288 680.916844 319.938905 
L 672.951055 304.688163 
Q 671.978815 302.82678 670.117431 303.79902 
L 664.112531 306.935508 
Q 662.251147 307.907749 663.223388 309.769132 
z
" clip-path="url(#p26174f7c84)" style="fill: #ffffff; stroke: #ffffff; stroke-linejoin: miter"/>
    </g>
    <g clip-path="url(#p26174f7c84)">
     <!-- warn -->
     <g transform="translate(666.375137 308.122906) rotate(-297.57903) scale(0.07 -0.07)">
      <use xlink:href="#DejaVuSans-77"/>
      <use xlink:href="#DejaVuSans-61" transform="translate(81.787109 0)"/>
      <use xlink:href="#DejaVuSans-72" transform="translate(143.066406 0)"/>
      <use xlink:href="#DejaVuSans-6e" transform="translate(182.429688 0)"/>
     </g>
    </g>
   </g>
   <g id="text_6">
    <g id="patch_28">
     <path d="M 664.469147 336.264345 
L 671.033227 344.642429 
Q 672.328369 346.295489 673.981429 345.000346 
L 679.314267 340.822162 
Q 680.967327 339.52702 679.672184 337.87396 
L 673.108105 329.495876 
Q 671.812962 327.842816 670.159903 329.137959 
L 664.827064 333.316143 
Q 663.174005 334.611286 664.469147 336.264345 
z
" clip-path="url(#p26174f7c84)" style="fill: #ffffff; stroke: #ffffff; stroke-linejoin: miter"/>
    </g>
    <g clip-path="url(#p26174f7c84)">
     <!-- fail -->
     <g transform="translate(667.268156 334.071372) rotate(-308.078065) scale(0.07 -0.07)">
      <use xlink:href="#DejaVuSans-66"/>
      <use xlink:href="#DejaVuSans-61" transform="translate(35.205078 0)"/>
      <use xlink:href="#DejaVuSans-69" transform="translate(96.484375 0)"/>
      <use xlink:href="#DejaVuSans-6c" transform="translate(124.267578 0)"/>
     </g>
    </g>
   </g>
   <g id="text_7">
    <g id="patch_29">
     <path d="M 522.265081 217.619245 
L 533.668145 239.450753 
Q 534.640385 241.312136 536.501769 240.339896 
L 542.50667 237.203407 
Q 544.368053 236.231167 543.395813 234.369783 
L 531.992748 212.538276 
Q 531.020508 210.676892 529.159124 211.649133 
L 523.154224 214.785621 
Q 521.29284 215.757862 522.265081 217.619245 
z
" clip-path="url(#p26174f7c84)" style="fill: #ffffff; stroke: #ffffff; stroke-linejoin: miter"/>
    </g>
    <g clip-path="url(#p26174f7c84)">
     <!-- default -->
     <g transform="translate(525.41683 215.973019) rotate(-297.57903) scale(0.07 -0.07)">
      <use xlink:href="#DejaVuSans-64"/>
      <use xlink:href="#DejaVuSans-65" transform="translate(63.476562 0)"/>
      <use xlink:href="#DejaVuSans-66" transform="translate(125 0)"/>
      <use xlink:href="#DejaVuSans-61" transform="translate(160.205078 0)"/>
      <use xlink:href="#DejaVuSans-75" transform="translate(221.484375 0)"/>
      <use xlink:href="#DejaVuSans-6c" transform="translate(284.863281 0)"/>
      <use xlink:href="#DejaVuSans-74" transform="translate(312.646484 0)"/>
     </g>
    </g>
   </g>
   <g id="text_8">
    <g id="patch_30">
     <path d="M 476.93792 273.519378 
L 493.000326 277.912515 
Q 495.02593 278.466527 495.579942 276.440923 
L 497.367205 269.90624 
Q 497.921217 267.880636 495.895613 267.326624 
L 479.833206 262.933488 
Q 477.807602 262.379476 477.253591 264.40508 
L 475.466327 270.939763 
Q 474.912316 272.965367 476.93792 273.519378 
z
" clip-path="url(#p26174f7c84)" style="fill: #ffffff; stroke: #ffffff; stroke-linejoin: miter"/>
    </g>
    <g clip-path="url(#p26174f7c84)">
     <!-- false -->
     <g transform="translate(477.875988 270.089567) rotate(-344.703453) scale(0.07 -0.07)">
      <use xlink:href="#DejaVuSans-66"/>
      <use xlink:href="#DejaVuSans-61" transform="translate(35.205078 0)"/>
      <use xlink:href="#DejaVuSans-6c" transform="translate(96.484375 0)"/>
      <use xlink:href="#DejaVuSans-73" transform="translate(124.267578 0)"/>
      <use xlink:href="#DejaVuSans-65" transform="translate(176.367188 0)"/>
     </g>
    </g>
   </g>
   <g id="PathCollection_1">
    <defs>
     <path id="C0_0_9f56a0a152" d="M 0 22.36068 
C 5.930122 22.36068 11.618159 20.004617 15.811388 15.811388 
C 20.004617 11.618159 22.36068 5.930122 22.36068 -0 
C 22.36068 -5.930122 20.004617 -11.618159 15.811388 -15.811388 
C 11.618159 -20.004617 5.930122 -22.36068 0 -22.36068 
C -5.930122 -22.36068 -11.618159 -20.004617 -15.811388 -15.811388 
C -20.004617 -11.618159 -22.36068 -5.930122 -22.36068 0 
C -22.36068 5.930122 -20.004617 11.618159 -15.811388 15.811388 
C -11.618159 20.004617 -5.930122 22.36068 0 22.36068 
z
"/>
    </defs>
    <g clip-path="url(#p26174f7c84)">
     <use xlink:href="#C0_0_9f56a0a152" x="289.160331" y="425.927069" style="fill: #e3f2fd; stroke: #e3f2fd"/>
    </g>
    <g clip-path="url(#p26174f7c84)">
     <use xlink:href="#C0_0_9f56a0a152" x="219.540496" y="381.497317" style="fill: #e3f2fd; stroke: #e3f2fd"/>
    </g>
    <g clip-path="url(#p26174f7c84)">
     <use xlink:href="#C0_0_9f56a0a152" x="219.540496" y="337.067565" style="fill: #e3f2fd; stroke: #e3f2fd"/>
    </g>
    <g clip-path="url(#p26174f7c84)">
     <use xlink:href="#C0_0_9f56a0a152" x="219.540496" y="292.637813" style="fill: #e8f5e9; stroke: #e8f5e9"/>
    </g>
    <g clip-path="url(#p26174f7c84)">
     <use xlink:href="#C0_0_9f56a0a152" x="80.300826" y="514.786573" style="fill: #fff3e0; stroke: #fff3e0"/>
    </g>
    <g clip-path="url(#p26174f7c84)">
     <use xlink:href="#C0_0_9f56a0a152" x="312.366942" y="70.489052" style="fill: #e3f2fd; stroke: #e3f2fd"/>
    </g>
    <g clip-path="url(#p26174f7c84)">
     <use xlink:href="#C0_0_9f56a0a152" x="776.499174" y="514.786573" style="fill: #ffebee; stroke: #ffebee"/>
    </g>
    <g clip-path="url(#p26174f7c84)">
     <use xlink:href="#C0_0_9f56a0a152" x="753.292562" y="470.356821" style="fill: #e8f5e9; stroke: #e8f5e9"/>
    </g>
    <g clip-path="url(#p26174f7c84)">
     <use xlink:href="#C0_0_9f56a0a152" x="706.879339" y="381.497317" style="fill: #fff3e0; stroke: #fff3e0"/>
    </g>
    <g clip-path="url(#p26174f7c84)">
     <use xlink:href="#C0_0_9f56a0a152" x="637.259504" y="248.20806" style="fill: #ffebee; stroke: #ffebee"/>
    </g>
    <g clip-path="url(#p26174f7c84)">
     <use xlink:href="#C0_0_9f56a0a152" x="637.259504" y="292.637813" style="fill: #eceff1; stroke: #eceff1"/>
    </g>
    <g clip-path="url(#p26174f7c84)">
     <use xlink:href="#C0_0_9f56a0a152" x="590.846281" y="337.067565" style="fill: #e3f2fd; stroke: #e3f2fd"/>
    </g>
    <g clip-path="url(#p26174f7c84)">
     <use xlink:href="#C0_0_9f56a0a152" x="567.639669" y="292.637813" style="fill: #fff3e0; stroke: #fff3e0"/>
    </g>
    <g clip-path="url(#p26174f7c84)">
     <use xlink:href="#C0_0_9f56a0a152" x="405.193388" y="248.20806" style="fill: #e3f2fd; stroke: #e3f2fd"/>
    </g>
    <g clip-path="url(#p26174f7c84)">
     <use xlink:href="#C0_0_9f56a0a152" x="498.019835" y="159.348556" style="fill: #ffebee; stroke: #ffebee"/>
    </g>
    <g clip-path="url(#p26174f7c84)">
     <use xlink:href="#C0_0_9f56a0a152" x="474.813223" y="114.918804" style="fill: #e8f5e9; stroke: #e8f5e9"/>
    </g>
    <g clip-path="url(#p26174f7c84)">
     <use xlink:href="#C0_0_9f56a0a152" x="428.4" y="203.778308" style="fill: #eceff1; stroke: #eceff1"/>
    </g>
   </g>
   <g id="text_9">
    <g clip-path="url(#p26174f7c84)">
     <!-- analyze_requirements -->
     <g transform="translate(244.922206 428.023319) scale(0.08 -0.08)">
      <defs>
       <path id="DejaVuSans-79" d="M 2059 -325 
Q 1816 -950 1584 -1140 
Q 1353 -1331 966 -1331 
L 506 -1331 
L 506 -850 
L 844 -850 
Q 1081 -850 1212 -737 
Q 1344 -625 1503 -206 
L 1606 56 
L 191 3500 
L 800 3500 
L 1894 763 
L 2988 3500 
L 3597 3500 
L 2059 -325 
z
" transform="scale(0.015625)"/>
       <path id="DejaVuSans-7a" d="M 353 3500 
L 3084 3500 
L 3084 2975 
L 922 459 
L 3084 459 
L 3084 0 
L 275 0 
L 275 525 
L 2438 3041 
L 353 3041 
L 353 3500 
z
" transform="scale(0.015625)"/>
       <path id="DejaVuSans-5f" d="M 3263 -1063 
L 3263 -1509 
L -63 -1509 
L -63 -1063 
L 3263 -1063 
z
" transform="scale(0.015625)"/>
       <path id="DejaVuSans-71" d="M 947 1747 
Q 947 1113 1208 752 
Q 1469 391 1925 391 
Q 2381 391 2643 752 
Q 2906 1113 2906 1747 
Q 2906 2381 2643 2742 
Q 2381 3103 1925 3103 
Q 1469 3103 1208 2742 
Q 947 2381 947 1747 
z
M 2906 525 
Q 2725 213 2448 61 
Q 2172 -91 1784 -91 
Q 1150 -91 751 415 
Q 353 922 353 1747 
Q 353 2572 751 3078 
Q 1150 3584 1784 3584 
Q 2172 3584 2448 3432 
Q 2725 3281 2906 2969 
L 2906 3500 
L 3481 3500 
L 3481 -1331 
L 2906 -1331 
L 2906 525 
z
" transform="scale(0.015625)"/>
       <path id="DejaVuSans-6d" d="M 3328 2828 
Q 3544 3216 3844 3400 
Q 4144 3584 4550 3584 
Q 5097 3584 5394 3201 
Q 5691 2819 5691 2113 
L 5691 0 
L 5113 0 
L 5113 2094 
Q 5113 2597 4934 2840 
Q 4756 3084 4391 3084 
Q 3944 3084 3684 2787 
Q 3425 2491 3425 1978 
L 3425 0 
L 2847 0 
L 2847 2094 
Q 2847 2600 2669 2842 
Q 2491 3084 2119 3084 
Q 1678 3084 1418 2786 
Q 1159 2488 1159 1978 
L 1159 0 
L 581 0 
L 581 3500 
L 1159 3500 
L 1159 2956 
Q 1356 3278 1631 3431 
Q 1906 3584 2284 3584 
Q 2666 3584 2933 3390 
Q 3200 3197 3328 2828 
z
" transform="scale(0.015625)"/>
      </defs>
      <use xlink:href="#DejaVuSans-61"/>
      <use xlink:href="#DejaVuSans-6e" transform="translate(61.279297 0)"/>
      <use xlink:href="#DejaVuSans-61" transform="translate(124.658203 0)"/>
      <use xlink:href="#DejaVuSans-6c" transform="translate(185.9375 0)"/>
      <use xlink:href="#DejaVuSans-79" transform="translate(213.720703 0)"/>
      <use xlink:href="#DejaVuSans-7a" transform="translate(272.900391 0)"/>
      <use xlink:href="#DejaVuSans-65" transform="translate(325.390625 0)"/>
      <use xlink:href="#DejaVuSans-5f" transform="translate(386.914062 0)"/>
      <use xlink:href="#DejaVuSans-72" transform="translate(436.914062 0)"/>
      <use xlink:href="#DejaVuSans-65" transform="translate(475.777344 0)"/>
      <use xlink:href="#DejaVuSans-71" transform="translate(537.300781 0)"/>
      <use xlink:href="#DejaVuSans-75" transform="translate(600.777344 0)"/>
      <use xlink:href="#DejaVuSans-69" transform="translate(664.15625 0)"/>
      <use xlink:href="#DejaVuSans-72" transform="translate(691.939453 0)"/>
      <use xlink:href="#DejaVuSans-65" transform="translate(730.802734 0)"/>
      <use xlink:href="#DejaVuSans-6d" transform="translate(792.326172 0)"/>
      <use xlink:href="#DejaVuSans-65" transform="translate(889.738281 0)"/>
      <use xlink:href="#DejaVuSans-6e" transform="translate(951.261719 0)"/>
      <use xlink:href="#DejaVuSans-74" transform="translate(1014.640625 0)"/>
      <use xlink:href="#DejaVuSans-73" transform="translate(1053.849609 0)"/>
     </g>
    </g>
   </g>
   <g id="text_10">
    <g clip-path="url(#p26174f7c84)">
     <!-- create_dockerfile -->
     <g transform="translate(185.289871 383.593567) scale(0.08 -0.08)">
      <defs>
       <path id="DejaVuSans-63" d="M 3122 3366 
L 3122 2828 
Q 2878 2963 2633 3030 
Q 2388 3097 2138 3097 
Q 1578 3097 1268 2742 
Q 959 2388 959 1747 
Q 959 1106 1268 751 
Q 1578 397 2138 397 
Q 2388 397 2633 464 
Q 2878 531 3122 666 
L 3122 134 
Q 2881 22 2623 -34 
Q 2366 -91 2075 -91 
Q 1284 -91 818 406 
Q 353 903 353 1747 
Q 353 2603 823 3093 
Q 1294 3584 2113 3584 
Q 2378 3584 2631 3529 
Q 2884 3475 3122 3366 
z
" transform="scale(0.015625)"/>
       <path id="DejaVuSans-6f" d="M 1959 3097 
Q 1497 3097 1228 2736 
Q 959 2375 959 1747 
Q 959 1119 1226 758 
Q 1494 397 1959 397 
Q 2419 397 2687 759 
Q 2956 1122 2956 1747 
Q 2956 2369 2687 2733 
Q 2419 3097 1959 3097 
z
M 1959 3584 
Q 2709 3584 3137 3096 
Q 3566 2609 3566 1747 
Q 3566 888 3137 398 
Q 2709 -91 1959 -91 
Q 1206 -91 779 398 
Q 353 888 353 1747 
Q 353 2609 779 3096 
Q 1206 3584 1959 3584 
z
" transform="scale(0.015625)"/>
       <path id="DejaVuSans-6b" d="M 581 4863 
L 1159 4863 
L 1159 1991 
L 2875 3500 
L 3609 3500 
L 1753 1863 
L 3688 0 
L 2938 0 
L 1159 1709 
L 1159 0 
L 581 0 
L 581 4863 
z
" transform="scale(0.015625)"/>
      </defs>
      <use xlink:href="#DejaVuSans-63"/>
      <use xlink:href="#DejaVuSans-72" transform="translate(54.980469 0)"/>
      <use xlink:href="#DejaVuSans-65" transform="translate(93.84375 0)"/>
      <use xlink:href="#DejaVuSans-61" transform="translate(155.367188 0)"/>
      <use xlink:href="#DejaVuSans-74" transform="translate(216.646484 0)"/>
      <use xlink:href="#DejaVuSans-65" transform="translate(255.855469 0)"/>
      <use xlink:href="#DejaVuSans-5f" transform="translate(317.378906 0)"/>
      <use xlink:href="#DejaVuSans-64" transform="translate(367.378906 0)"/>
      <use xlink:href="#DejaVuSans-6f" transform="translate(430.855469 0)"/>
      <use xlink:href="#DejaVuSans-63" transform="translate(492.037109 0)"/>
      <use xlink:href="#DejaVuSans-6b" transform="translate(547.017578 0)"/>
      <use xlink:href="#DejaVuSans-65" transform="translate(601.302734 0)"/>
      <use xlink:href="#DejaVuSans-72" transform="translate(662.826172 0)"/>
      <use xlink:href="#DejaVuSans-66" transform="translate(703.939453 0)"/>
      <use xlink:href="#DejaVuSans-69" transform="translate(739.144531 0)"/>
      <use xlink:href="#DejaVuSans-6c" transform="translate(766.927734 0)"/>
      <use xlink:href="#DejaVuSans-65" transform="translate(794.710938 0)"/>
     </g>
    </g>
   </g>
   <g id="text_11">
    <g clip-path="url(#p26174f7c84)">
     <!-- create_compose -->
     <g transform="translate(186.769871 339.052565) scale(0.08 -0.08)">
      <use xlink:href="#DejaVuSans-63"/>
      <use xlink:href="#DejaVuSans-72" transform="translate(54.980469 0)"/>
      <use xlink:href="#DejaVuSans-65" transform="translate(93.84375 0)"/>
      <use xlink:href="#DejaVuSans-61" transform="translate(155.367188 0)"/>
      <use xlink:href="#DejaVuSans-74" transform="translate(216.646484 0)"/>
      <use xlink:href="#DejaVuSans-65" transform="translate(255.855469 0)"/>
      <use xlink:href="#DejaVuSans-5f" transform="translate(317.378906 0)"/>
      <use xlink:href="#DejaVuSans-63" transform="translate(367.378906 0)"/>
      <use xlink:href="#DejaVuSans-6f" transform="translate(422.359375 0)"/>
      <use xlink:href="#DejaVuSans-6d" transform="translate(483.541016 0)"/>
      <use xlink:href="#DejaVuSans-70" transform="translate(580.953125 0)"/>
      <use xlink:href="#DejaVuSans-6f" transform="translate(644.429688 0)"/>
      <use xlink:href="#DejaVuSans-73" transform="translate(705.611328 0)"/>
      <use xlink:href="#DejaVuSans-65" transform="translate(757.710938 0)"/>
     </g>
    </g>
   </g>
   <g id="text_12">
    <g clip-path="url(#p26174f7c84)">
     <!-- build_image -->
     <g transform="translate(195.244871 294.734063) scale(0.08 -0.08)">
      <defs>
       <path id="DejaVuSans-62" d="M 3116 1747 
Q 3116 2381 2855 2742 
Q 2594 3103 2138 3103 
Q 1681 3103 1420 2742 
Q 1159 2381 1159 1747 
Q 1159 1113 1420 752 
Q 1681 391 2138 391 
Q 2594 391 2855 752 
Q 3116 1113 3116 1747 
z
M 1159 2969 
Q 1341 3281 1617 3432 
Q 1894 3584 2278 3584 
Q 2916 3584 3314 3078 
Q 3713 2572 3713 1747 
Q 3713 922 3314 415 
Q 2916 -91 2278 -91 
Q 1894 -91 1617 61 
Q 1341 213 1159 525 
L 1159 0 
L 581 0 
L 581 4863 
L 1159 4863 
L 1159 2969 
z
" transform="scale(0.015625)"/>
      </defs>
      <use xlink:href="#DejaVuSans-62"/>
      <use xlink:href="#DejaVuSans-75" transform="translate(63.476562 0)"/>
      <use xlink:href="#DejaVuSans-69" transform="translate(126.855469 0)"/>
      <use xlink:href="#DejaVuSans-6c" transform="translate(154.638672 0)"/>
      <use xlink:href="#DejaVuSans-64" transform="translate(182.421875 0)"/>
      <use xlink:href="#DejaVuSans-5f" transform="translate(245.898438 0)"/>
      <use xlink:href="#DejaVuSans-69" transform="translate(295.898438 0)"/>
      <use xlink:href="#DejaVuSans-6d" transform="translate(323.681641 0)"/>
      <use xlink:href="#DejaVuSans-61" transform="translate(421.09375 0)"/>
      <use xlink:href="#DejaVuSans-67" transform="translate(482.373047 0)"/>
      <use xlink:href="#DejaVuSans-65" transform="translate(545.849609 0)"/>
     </g>
    </g>
   </g>
   <g id="text_13">
    <g clip-path="url(#p26174f7c84)">
     <!-- check_build -->
     <g transform="translate(56.753326 516.882823) scale(0.08 -0.08)">
      <defs>
       <path id="DejaVuSans-68" d="M 3513 2113 
L 3513 0 
L 2938 0 
L 2938 2094 
Q 2938 2591 2744 2837 
Q 2550 3084 2163 3084 
Q 1697 3084 1428 2787 
Q 1159 2491 1159 1978 
L 1159 0 
L 581 0 
L 581 4863 
L 1159 4863 
L 1159 2956 
Q 1366 3272 1645 3428 
Q 1925 3584 2291 3584 
Q 2894 3584 3203 3211 
Q 3513 2838 3513 2113 
z
" transform="scale(0.015625)"/>
      </defs>
      <use xlink:href="#DejaVuSans-63"/>
      <use xlink:href="#DejaVuSans-68" transform="translate(54.980469 0)"/>
      <use xlink:href="#DejaVuSans-65" transform="translate(118.359375 0)"/>
      <use xlink:href="#DejaVuSans-63" transform="translate(179.882812 0)"/>
      <use xlink:href="#DejaVuSans-6b" transform="translate(234.863281 0)"/>
      <use xlink:href="#DejaVuSans-5f" transform="translate(292.773438 0)"/>
      <use xlink:href="#DejaVuSans-62" transform="translate(342.773438 0)"/>
      <use xlink:href="#DejaVuSans-75" transform="translate(406.25 0)"/>
      <use xlink:href="#DejaVuSans-69" transform="translate(469.628906 0)"/>
      <use xlink:href="#DejaVuSans-6c" transform="translate(497.412109 0)"/>
      <use xlink:href="#DejaVuSans-64" transform="translate(525.195312 0)"/>
     </g>
    </g>
   </g>
   <g id="text_14">
    <g clip-path="url(#p26174f7c84)">
     <!-- fix_dockerfile -->
     <g transform="translate(285.925067 72.585302) scale(0.08 -0.08)">
      <defs>
       <path id="DejaVuSans-78" d="M 3513 3500 
L 2247 1797 
L 3578 0 
L 2900 0 
L 1881 1375 
L 863 0 
L 184 0 
L 1544 1831 
L 300 3500 
L 978 3500 
L 1906 2253 
L 2834 3500 
L 3513 3500 
z
" transform="scale(0.015625)"/>
      </defs>
      <use xlink:href="#DejaVuSans-66"/>
      <use xlink:href="#DejaVuSans-69" transform="translate(35.205078 0)"/>
      <use xlink:href="#DejaVuSans-78" transform="translate(62.988281 0)"/>
      <use xlink:href="#DejaVuSans-5f" transform="translate(122.167969 0)"/>
      <use xlink:href="#DejaVuSans-64" transform="translate(172.167969 0)"/>
      <use xlink:href="#DejaVuSans-6f" transform="translate(235.644531 0)"/>
      <use xlink:href="#DejaVuSans-63" transform="translate(296.826172 0)"/>
      <use xlink:href="#DejaVuSans-6b" transform="translate(351.806641 0)"/>
      <use xlink:href="#DejaVuSans-65" transform="translate(406.091797 0)"/>
      <use xlink:href="#DejaVuSans-72" transform="translate(467.615234 0)"/>
      <use xlink:href="#DejaVuSans-66" transform="translate(508.728516 0)"/>
      <use xlink:href="#DejaVuSans-69" transform="translate(543.933594 0)"/>
      <use xlink:href="#DejaVuSans-6c" transform="translate(571.716797 0)"/>
      <use xlink:href="#DejaVuSans-65" transform="translate(599.5 0)"/>
     </g>
    </g>
   </g>
   <g id="text_15">
    <g clip-path="url(#p26174f7c84)">
     <!-- review_size -->
     <g transform="translate(753.516674 516.882823) scale(0.08 -0.08)">
      <defs>
       <path id="DejaVuSans-76" d="M 191 3500 
L 800 3500 
L 1894 563 
L 2988 3500 
L 3597 3500 
L 2284 0 
L 1503 0 
L 191 3500 
z
" transform="scale(0.015625)"/>
      </defs>
      <use xlink:href="#DejaVuSans-72"/>
      <use xlink:href="#DejaVuSans-65" transform="translate(38.863281 0)"/>
      <use xlink:href="#DejaVuSans-76" transform="translate(100.386719 0)"/>
      <use xlink:href="#DejaVuSans-69" transform="translate(159.566406 0)"/>
      <use xlink:href="#DejaVuSans-65" transform="translate(187.349609 0)"/>
      <use xlink:href="#DejaVuSans-77" transform="translate(248.873047 0)"/>
      <use xlink:href="#DejaVuSans-5f" transform="translate(330.660156 0)"/>
      <use xlink:href="#DejaVuSans-73" transform="translate(380.660156 0)"/>
      <use xlink:href="#DejaVuSans-69" transform="translate(432.759766 0)"/>
      <use xlink:href="#DejaVuSans-7a" transform="translate(460.542969 0)"/>
      <use xlink:href="#DejaVuSans-65" transform="translate(513.033203 0)"/>
     </g>
    </g>
   </g>
   <g id="text_16">
    <g clip-path="url(#p26174f7c84)">
     <!-- security_scan -->
     <g transform="translate(726.052562 472.453071) scale(0.08 -0.08)">
      <use xlink:href="#DejaVuSans-73"/>
      <use xlink:href="#DejaVuSans-65" transform="translate(52.099609 0)"/>
      <use xlink:href="#DejaVuSans-63" transform="translate(113.623047 0)"/>
      <use xlink:href="#DejaVuSans-75" transform="translate(168.603516 0)"/>
      <use xlink:href="#DejaVuSans-72" transform="translate(231.982422 0)"/>
      <use xlink:href="#DejaVuSans-69" transform="translate(273.095703 0)"/>
      <use xlink:href="#DejaVuSans-74" transform="translate(300.878906 0)"/>
      <use xlink:href="#DejaVuSans-79" transform="translate(340.087891 0)"/>
      <use xlink:href="#DejaVuSans-5f" transform="translate(399.267578 0)"/>
      <use xlink:href="#DejaVuSans-73" transform="translate(449.267578 0)"/>
      <use xlink:href="#DejaVuSans-63" transform="translate(501.367188 0)"/>
      <use xlink:href="#DejaVuSans-61" transform="translate(556.347656 0)"/>
      <use xlink:href="#DejaVuSans-6e" transform="translate(617.626953 0)"/>
     </g>
    </g>
   </g>
   <g id="text_17">
    <g clip-path="url(#p26174f7c84)">
     <!-- check_security -->
     <g transform="translate(677.197464 383.593567) scale(0.08 -0.08)">
      <use xlink:href="#DejaVuSans-63"/>
      <use xlink:href="#DejaVuSans-68" transform="translate(54.980469 0)"/>
      <use xlink:href="#DejaVuSans-65" transform="translate(118.359375 0)"/>
      <use xlink:href="#DejaVuSans-63" transform="translate(179.882812 0)"/>
      <use xlink:href="#DejaVuSans-6b" transform="translate(234.863281 0)"/>
      <use xlink:href="#DejaVuSans-5f" transform="translate(292.773438 0)"/>
      <use xlink:href="#DejaVuSans-73" transform="translate(342.773438 0)"/>
      <use xlink:href="#DejaVuSans-65" transform="translate(394.873047 0)"/>
      <use xlink:href="#DejaVuSans-63" transform="translate(456.396484 0)"/>
      <use xlink:href="#DejaVuSans-75" transform="translate(511.376953 0)"/>
      <use xlink:href="#DejaVuSans-72" transform="translate(574.755859 0)"/>
      <use xlink:href="#DejaVuSans-69" transform="translate(615.869141 0)"/>
      <use xlink:href="#DejaVuSans-74" transform="translate(643.652344 0)"/>
      <use xlink:href="#DejaVuSans-79" transform="translate(682.861328 0)"/>
     </g>
    </g>
   </g>
   <g id="text_18">
    <g clip-path="url(#p26174f7c84)">
     <!-- review_vulnerabilities -->
     <g transform="translate(593.829504 250.30431) scale(0.08 -0.08)">
      <use xlink:href="#DejaVuSans-72"/>
      <use xlink:href="#DejaVuSans-65" transform="translate(38.863281 0)"/>
      <use xlink:href="#DejaVuSans-76" transform="translate(100.386719 0)"/>
      <use xlink:href="#DejaVuSans-69" transform="translate(159.566406 0)"/>
      <use xlink:href="#DejaVuSans-65" transform="translate(187.349609 0)"/>
      <use xlink:href="#DejaVuSans-77" transform="translate(248.873047 0)"/>
      <use xlink:href="#DejaVuSans-5f" transform="translate(330.660156 0)"/>
      <use xlink:href="#DejaVuSans-76" transform="translate(380.660156 0)"/>
      <use xlink:href="#DejaVuSans-75" transform="translate(439.839844 0)"/>
      <use xlink:href="#DejaVuSans-6c" transform="translate(503.21875 0)"/>
      <use xlink:href="#DejaVuSans-6e" transform="translate(531.001953 0)"/>
      <use xlink:href="#DejaVuSans-65" transform="translate(594.380859 0)"/>
      <use xlink:href="#DejaVuSans-72" transform="translate(655.904297 0)"/>
      <use xlink:href="#DejaVuSans-61" transform="translate(697.017578 0)"/>
      <use xlink:href="#DejaVuSans-62" transform="translate(758.296875 0)"/>
      <use xlink:href="#DejaVuSans-69" transform="translate(821.773438 0)"/>
      <use xlink:href="#DejaVuSans-6c" transform="translate(849.556641 0)"/>
      <use xlink:href="#DejaVuSans-69" transform="translate(877.339844 0)"/>
      <use xlink:href="#DejaVuSans-74" transform="translate(905.123047 0)"/>
      <use xlink:href="#DejaVuSans-69" transform="translate(944.332031 0)"/>
      <use xlink:href="#DejaVuSans-65" transform="translate(972.115234 0)"/>
      <use xlink:href="#DejaVuSans-73" transform="translate(1033.638672 0)"/>
     </g>
    </g>
   </g>
   <g id="text_19">
    <g clip-path="url(#p26174f7c84)">
     <!-- block_push -->
     <g transform="translate(614.952629 294.734063) scale(0.08 -0.08)">
      <use xlink:href="#DejaVuSans-62"/>
      <use xlink:href="#DejaVuSans-6c" transform="translate(63.476562 0)"/>
      <use xlink:href="#DejaVuSans-6f" transform="translate(91.259766 0)"/>
      <use xlink:href="#DejaVuSans-63" transform="translate(152.441406 0)"/>
      <use xlink:href="#DejaVuSans-6b" transform="translate(207.421875 0)"/>
      <use xlink:href="#DejaVuSans-5f" transform="translate(265.332031 0)"/>
      <use xlink:href="#DejaVuSans-70" transform="translate(315.332031 0)"/>
      <use xlink:href="#DejaVuSans-75" transform="translate(378.808594 0)"/>
      <use xlink:href="#DejaVuSans-73" transform="translate(442.1875 0)"/>
      <use xlink:href="#DejaVuSans-68" transform="translate(494.287109 0)"/>
     </g>
    </g>
   </g>
   <g id="text_20">
    <g clip-path="url(#p26174f7c84)">
     <!-- test_container -->
     <g transform="translate(562.211906 339.163815) scale(0.08 -0.08)">
      <use xlink:href="#DejaVuSans-74"/>
      <use xlink:href="#DejaVuSans-65" transform="translate(39.208984 0)"/>
      <use xlink:href="#DejaVuSans-73" transform="translate(100.732422 0)"/>
      <use xlink:href="#DejaVuSans-74" transform="translate(152.832031 0)"/>
      <use xlink:href="#DejaVuSans-5f" transform="translate(192.041016 0)"/>
      <use xlink:href="#DejaVuSans-63" transform="translate(242.041016 0)"/>
      <use xlink:href="#DejaVuSans-6f" transform="translate(297.021484 0)"/>
      <use xlink:href="#DejaVuSans-6e" transform="translate(358.203125 0)"/>
      <use xlink:href="#DejaVuSans-74" transform="translate(421.582031 0)"/>
      <use xlink:href="#DejaVuSans-61" transform="translate(460.791016 0)"/>
      <use xlink:href="#DejaVuSans-69" transform="translate(522.070312 0)"/>
      <use xlink:href="#DejaVuSans-6e" transform="translate(549.853516 0)"/>
      <use xlink:href="#DejaVuSans-65" transform="translate(613.232422 0)"/>
      <use xlink:href="#DejaVuSans-72" transform="translate(674.755859 0)"/>
     </g>
    </g>
   </g>
   <g id="text_21">
    <g clip-path="url(#p26174f7c84)">
     <!-- check_tests -->
     <g transform="translate(544.163419 294.734063) scale(0.08 -0.08)">
      <use xlink:href="#DejaVuSans-63"/>
      <use xlink:href="#DejaVuSans-68" transform="translate(54.980469 0)"/>
      <use xlink:href="#DejaVuSans-65" transform="translate(118.359375 0)"/>
      <use xlink:href="#DejaVuSans-63" transform="translate(179.882812 0)"/>
      <use xlink:href="#DejaVuSans-6b" transform="translate(234.863281 0)"/>
      <use xlink:href="#DejaVuSans-5f" transform="translate(292.773438 0)"/>
      <use xlink:href="#DejaVuSans-74" transform="translate(342.773438 0)"/>
      <use xlink:href="#DejaVuSans-65" transform="translate(381.982422 0)"/>
      <use xlink:href="#DejaVuSans-73" transform="translate(443.505859 0)"/>
      <use xlink:href="#DejaVuSans-74" transform="translate(495.605469 0)"/>
      <use xlink:href="#DejaVuSans-73" transform="translate(534.814453 0)"/>
     </g>
    </g>
   </g>
   <g id="text_22">
    <g clip-path="url(#p26174f7c84)">
     <!-- investigate_failure -->
     <g transform="translate(368.302763 250.30431) scale(0.08 -0.08)">
      <use xlink:href="#DejaVuSans-69"/>
      <use xlink:href="#DejaVuSans-6e" transform="translate(27.783203 0)"/>
      <use xlink:href="#DejaVuSans-76" transform="translate(91.162109 0)"/>
      <use xlink:href="#DejaVuSans-65" transform="translate(150.341797 0)"/>
      <use xlink:href="#DejaVuSans-73" transform="translate(211.865234 0)"/>
      <use xlink:href="#DejaVuSans-74" transform="translate(263.964844 0)"/>
      <use xlink:href="#DejaVuSans-69" transform="translate(303.173828 0)"/>
      <use xlink:href="#DejaVuSans-67" transform="translate(330.957031 0)"/>
      <use xlink:href="#DejaVuSans-61" transform="translate(394.433594 0)"/>
      <use xlink:href="#DejaVuSans-74" transform="translate(455.712891 0)"/>
      <use xlink:href="#DejaVuSans-65" transform="translate(494.921875 0)"/>
      <use xlink:href="#DejaVuSans-5f" transform="translate(556.445312 0)"/>
      <use xlink:href="#DejaVuSans-66" transform="translate(606.445312 0)"/>
      <use xlink:href="#DejaVuSans-61" transform="translate(641.650391 0)"/>
      <use xlink:href="#DejaVuSans-69" transform="translate(702.929688 0)"/>
      <use xlink:href="#DejaVuSans-6c" transform="translate(730.712891 0)"/>
      <use xlink:href="#DejaVuSans-75" transform="translate(758.496094 0)"/>
      <use xlink:href="#DejaVuSans-72" transform="translate(821.875 0)"/>
      <use xlink:href="#DejaVuSans-65" transform="translate(860.738281 0)"/>
     </g>
    </g>
   </g>
   <g id="text_23">
    <g clip-path="url(#p26174f7c84)">
     <!-- push_approval -->
     <g transform="translate(468.864835 161.444806) scale(0.08 -0.08)">
      <use xlink:href="#DejaVuSans-70"/>
      <use xlink:href="#DejaVuSans-75" transform="translate(63.476562 0)"/>
      <use xlink:href="#DejaVuSans-73" transform="translate(126.855469 0)"/>
      <use xlink:href="#DejaVuSans-68" transform="translate(178.955078 0)"/>
      <use xlink:href="#DejaVuSans-5f" transform="translate(242.333984 0)"/>
      <use xlink:href="#DejaVuSans-61" transform="translate(292.333984 0)"/>
      <use xlink:href="#DejaVuSans-70" transform="translate(353.613281 0)"/>
      <use xlink:href="#DejaVuSans-70" transform="translate(417.089844 0)"/>
      <use xlink:href="#DejaVuSans-72" transform="translate(480.566406 0)"/>
      <use xlink:href="#DejaVuSans-6f" transform="translate(519.429688 0)"/>
      <use xlink:href="#DejaVuSans-76" transform="translate(580.611328 0)"/>
      <use xlink:href="#DejaVuSans-61" transform="translate(639.791016 0)"/>
      <use xlink:href="#DejaVuSans-6c" transform="translate(701.070312 0)"/>
     </g>
    </g>
   </g>
   <g id="text_24">
    <g clip-path="url(#p26174f7c84)">
     <!-- push_image -->
     <g transform="translate(450.660723 117.015054) scale(0.08 -0.08)">
      <use xlink:href="#DejaVuSans-70"/>
      <use xlink:href="#DejaVuSans-75" transform="translate(63.476562 0)"/>
      <use xlink:href="#DejaVuSans-73" transform="translate(126.855469 0)"/>
      <use xlink:href="#DejaVuSans-68" transform="translate(178.955078 0)"/>
      <use xlink:href="#DejaVuSans-5f" transform="translate(242.333984 0)"/>
      <use xlink:href="#DejaVuSans-69" transform="translate(292.333984 0)"/>
      <use xlink:href="#DejaVuSans-6d" transform="translate(320.117188 0)"/>
      <use xlink:href="#DejaVuSans-61" transform="translate(417.529297 0)"/>
      <use xlink:href="#DejaVuSans-67" transform="translate(478.808594 0)"/>
      <use xlink:href="#DejaVuSans-65" transform="translate(542.285156 0)"/>
     </g>
    </g>
   </g>
   <g id="text_25">
    <g clip-path="url(#p26174f7c84)">
     <!-- complete -->
     <g transform="translate(409.715625 205.985808) scale(0.08 -0.08)">
      <use xlink:href="#DejaVuSans-63"/>
      <use xlink:href="#DejaVuSans-6f" transform="translate(54.980469 0)"/>
      <use xlink:href="#DejaVuSans-6d" transform="translate(116.162109 0)"/>
      <use xlink:href="#DejaVuSans-70" transform="translate(213.574219 0)"/>
      <use xlink:href="#DejaVuSans-6c" transform="translate(277.050781 0)"/>
      <use xlink:href="#DejaVuSans-65" transform="translate(304.833984 0)"/>
      <use xlink:href="#DejaVuSans-74" transform="translate(366.357422 0)"/>
      <use xlink:href="#DejaVuSans-65" transform="translate(405.566406 0)"/>
     </g>
    </g>
   </g>
   <g id="text_26">
    <!-- container_setup -->
    <g transform="translate(365.052187 17.837812) scale(0.14 -0.14)">
     <defs>
      <path id="DejaVuSans-Bold-63" d="M 3366 3391 
L 3366 2478 
Q 3138 2634 2908 2709 
Q 2678 2784 2431 2784 
Q 1963 2784 1702 2511 
Q 1441 2238 1441 1747 
Q 1441 1256 1702 982 
Q 1963 709 2431 709 
Q 2694 709 2930 787 
Q 3166 866 3366 1019 
L 3366 103 
Q 3103 6 2833 -42 
Q 2563 -91 2291 -91 
Q 1344 -91 809 395 
Q 275 881 275 1747 
Q 275 2613 809 3098 
Q 1344 3584 2291 3584 
Q 2566 3584 2833 3536 
Q 3100 3488 3366 3391 
z
" transform="scale(0.015625)"/>
      <path id="DejaVuSans-Bold-6f" d="M 2203 2784 
Q 1831 2784 1636 2517 
Q 1441 2250 1441 1747 
Q 1441 1244 1636 976 
Q 1831 709 2203 709 
Q 2569 709 2762 976 
Q 2956 1244 2956 1747 
Q 2956 2250 2762 2517 
Q 2569 2784 2203 2784 
z
M 2203 3584 
Q 3106 3584 3614 3096 
Q 4122 2609 4122 1747 
Q 4122 884 3614 396 
Q 3106 -91 2203 -91 
Q 1297 -91 786 396 
Q 275 884 275 1747 
Q 275 2609 786 3096 
Q 1297 3584 2203 3584 
z
" transform="scale(0.015625)"/>
      <path id="DejaVuSans-Bold-6e" d="M 4056 2131 
L 4056 0 
L 2931 0 
L 2931 347 
L 2931 1631 
Q 2931 2084 2911 2256 
Q 2891 2428 2841 2509 
Q 2775 2619 2662 2680 
Q 2550 2741 2406 2741 
Q 2056 2741 1856 2470 
Q 1656 2200 1656 1722 
L 1656 0 
L 538 0 
L 538 3500 
L 1656 3500 
L 1656 2988 
Q 1909 3294 2193 3439 
Q 2478 3584 2822 3584 
Q 3428 3584 3742 3212 
Q 4056 2841 4056 2131 
z
" transform="scale(0.015625)"/>
      <path id="DejaVuSans-Bold-74" d="M 1759 4494 
L 1759 3500 
L 2913 3500 
L 2913 2700 
L 1759 2700 
L 1759 1216 
Q 1759 972 1856 886 
Q 1953 800 2241 800 
L 2816 800 
L 2816 0 
L 1856 0 
Q 1194 0 917 276 
Q 641 553 641 1216 
L 641 2700 
L 84 2700 
L 84 3500 
L 641 3500 
L 641 4494 
L 1759 4494 
z
" transform="scale(0.015625)"/>
      <path id="DejaVuSans-Bold-61" d="M 2106 1575 
Q 1756 1575 1579 1456 
Q 1403 1338 1403 1106 
Q 1403 894 1545 773 
Q 1688 653 1941 653 
Q 2256 653 2472 879 
Q 2688 1106 2688 1447 
L 2688 1575 
L 2106 1575 
z
M 3816 1997 
L 3816 0 
L 2688 0 
L 2688 519 
Q 2463 200 2181 54 
Q 1900 -91 1497 -91 
Q 953 -91 614 226 
Q 275 544 275 1050 
Q 275 1666 698 1953 
Q 1122 2241 2028 2241 
L 2688 2241 
L 2688 2328 
Q 2688 2594 2478 2717 
Q 2269 2841 1825 2841 
Q 1466 2841 1156 2769 
Q 847 2697 581 2553 
L 581 3406 
Q 941 3494 1303 3539 
Q 1666 3584 2028 3584 
Q 2975 3584 3395 3211 
Q 3816 2838 3816 1997 
z
" transform="scale(0.015625)"/>
      <path id="DejaVuSans-Bold-69" d="M 538 3500 
L 1656 3500 
L 1656 0 
L 538 0 
L 538 3500 
z
M 538 4863 
L 1656 4863 
L 1656 3950 
L 538 3950 
L 538 4863 
z
" transform="scale(0.015625)"/>
      <path id="DejaVuSans-Bold-65" d="M 4031 1759 
L 4031 1441 
L 1416 1441 
Q 1456 1047 1700 850 
Q 1944 653 2381 653 
Q 2734 653 3104 758 
Q 3475 863 3866 1075 
L 3866 213 
Q 3469 63 3072 -14 
Q 2675 -91 2278 -91 
Q 1328 -91 801 392 
Q 275 875 275 1747 
Q 275 2603 792 3093 
Q 1309 3584 2216 3584 
Q 3041 3584 3536 3087 
Q 4031 2591 4031 1759 
z
M 2881 2131 
Q 2881 2450 2695 2645 
Q 2509 2841 2209 2841 
Q 1884 2841 1681 2658 
Q 1478 2475 1428 2131 
L 2881 2131 
z
" transform="scale(0.015625)"/>
      <path id="DejaVuSans-Bold-72" d="M 3138 2547 
Q 2991 2616 2845 2648 
Q 2700 2681 2553 2681 
Q 2122 2681 1889 2404 
Q 1656 2128 1656 1613 
L 1656 0 
L 538 0 
L 538 3500 
L 1656 3500 
L 1656 2925 
Q 1872 3269 2151 3426 
Q 2431 3584 2822 3584 
Q 2878 3584 2943 3579 
Q 3009 3575 3134 3559 
L 3138 2547 
z
" transform="scale(0.015625)"/>
      <path id="DejaVuSans-Bold-5f" d="M 3200 -916 
L 3200 -1509 
L 0 -1509 
L 0 -916 
L 3200 -916 
z
" transform="scale(0.015625)"/>
      <path id="DejaVuSans-Bold-73" d="M 3272 3391 
L 3272 2541 
Q 2913 2691 2578 2766 
Q 2244 2841 1947 2841 
Q 1628 2841 1473 2761 
Q 1319 2681 1319 2516 
Q 1319 2381 1436 2309 
Q 1553 2238 1856 2203 
L 2053 2175 
Q 2913 2066 3209 1816 
Q 3506 1566 3506 1031 
Q 3506 472 3093 190 
Q 2681 -91 1863 -91 
Q 1516 -91 1145 -36 
Q 775 19 384 128 
L 384 978 
Q 719 816 1070 734 
Q 1422 653 1784 653 
Q 2113 653 2278 743 
Q 2444 834 2444 1013 
Q 2444 1163 2330 1236 
Q 2216 1309 1875 1350 
L 1678 1375 
Q 931 1469 631 1722 
Q 331 1975 331 2491 
Q 331 3047 712 3315 
Q 1094 3584 1881 3584 
Q 2191 3584 2531 3537 
Q 2872 3491 3272 3391 
z
" transform="scale(0.015625)"/>
      <path id="DejaVuSans-Bold-75" d="M 500 1363 
L 500 3500 
L 1625 3500 
L 1625 3150 
Q 1625 2866 1622 2436 
Q 1619 2006 1619 1863 
Q 1619 1441 1641 1255 
Q 1663 1069 1716 984 
Q 1784 875 1895 815 
Q 2006 756 2150 756 
Q 2500 756 2700 1025 
Q 2900 1294 2900 1772 
L 2900 3500 
L 4019 3500 
L 4019 0 
L 2900 0 
L 2900 506 
Q 2647 200 2364 54 
Q 2081 -91 1741 -91 
Q 1134 -91 817 281 
Q 500 653 500 1363 
z
" transform="scale(0.015625)"/>
      <path id="DejaVuSans-Bold-70" d="M 1656 506 
L 1656 -1331 
L 538 -1331 
L 538 3500 
L 1656 3500 
L 1656 2988 
Q 1888 3294 2169 3439 
Q 2450 3584 2816 3584 
Q 3463 3584 3878 3070 
Q 4294 2556 4294 1747 
Q 4294 938 3878 423 
Q 3463 -91 2816 -91 
Q 2450 -91 2169 54 
Q 1888 200 1656 506 
z
M 2400 2772 
Q 2041 2772 1848 2508 
Q 1656 2244 1656 1747 
Q 1656 1250 1848 986 
Q 2041 722 2400 722 
Q 2759 722 2948 984 
Q 3138 1247 3138 1747 
Q 3138 2247 2948 2509 
Q 2759 2772 2400 2772 
z
" transform="scale(0.015625)"/>
     </defs>
     <use xlink:href="#DejaVuSans-Bold-63"/>
     <use xlink:href="#DejaVuSans-Bold-6f" transform="translate(59.277344 0)"/>
     <use xlink:href="#DejaVuSans-Bold-6e" transform="translate(127.978516 0)"/>
     <use xlink:href="#DejaVuSans-Bold-74" transform="translate(199.169922 0)"/>
     <use xlink:href="#DejaVuSans-Bold-61" transform="translate(246.972656 0)"/>
     <use xlink:href="#DejaVuSans-Bold-69" transform="translate(314.453125 0)"/>
     <use xlink:href="#DejaVuSans-Bold-6e" transform="translate(348.730469 0)"/>
     <use xlink:href="#DejaVuSans-Bold-65" transform="translate(419.921875 0)"/>
     <use xlink:href="#DejaVuSans-Bold-72" transform="translate(487.744141 0)"/>
     <use xlink:href="#DejaVuSans-Bold-5f" transform="translate(537.060547 0)"/>
     <use xlink:href="#DejaVuSans-Bold-73" transform="translate(587.060547 0)"/>
     <use xlink:href="#DejaVuSans-Bold-65" transform="translate(646.582031 0)"/>
     <use xlink:href="#DejaVuSans-Bold-74" transform="translate(714.404297 0)"/>
     <use xlink:href="#DejaVuSans-Bold-75" transform="translate(762.207031 0)"/>
     <use xlink:href="#DejaVuSans-Bold-70" transform="translate(833.398438 0)"/>
    </g>
   </g>
  </g>
 </g>
 <defs>
  <clipPath id="p26174f7c84">
   <rect x="7.2" y="23.837812" width="842.4" height="537.6"/>
  </clipPath>
 </defs>
</svg>
