<?xml version="1.0" encoding="utf-8" standalone="no"?>
<!DOCTYPE svg PUBLIC "-//W3C//DTD SVG 1.1//EN"
  "http://www.w3.org/Graphics/SVG/1.1/DTD/svg11.dtd">
<svg xmlns:xlink="http://www.w3.org/1999/xlink" width="856.8pt" height="568.637812pt" viewBox="0 0 856.8 568.637812" xmlns="http://www.w3.org/2000/svg" version="1.1">
 <metadata>
  <rdf:RDF xmlns:dc="http://purl.org/dc/elements/1.1/" xmlns:cc="http://creativecommons.org/ns#" xmlns:rdf="http://www.w3.org/1999/02/22-rdf-syntax-ns#">
   <cc:Work>
    <dc:type rdf:resource="http://purl.org/dc/dcmitype/StillImage"/>
    <dc:date>2026-01-03T04:00:49.904135</dc:date>
    <dc:format>image/svg+xml</dc:format>
    <dc:creator>
     <cc:Agent>
      <dc:title>Matplotlib v3.10.8, https://matplotlib.org/</dc:title>
     </cc:Agent>
    </dc:creator>
   </cc:Work>
  </rdf:RDF>
 </metadata>
 <defs>
  <style type="text/css">*{stroke-linejoin: round; stroke-linecap: butt}</style>
 </defs>
 <g id="figure_1">
  <g id="patch_1">
   <path d="M 0 568.637812 
L 856.8 568.637812 
L 856.8 0 
L 0 0 
z
" style="fill: #ffffff"/>
  </g>
  <g id="axes_1">
   <g id="patch_2">
    <path d="M 135.630585 456.372187 
Q 131.065639 470.35575 126.847655 483.276479 
" clip-path="url(#p1764f9dd46)" style="fill: none; stroke: #666666; stroke-linecap: round"/>
    <path d="M 129.990244 480.094634 
L 126.847655 483.276479 
L 126.187733 478.853301 
z
" clip-path="url(#p1764f9dd46)" style="fill: #666666; stroke: #666666; stroke-linecap: round"/>
   </g>
   <g id="patch_3">
    <path d="M 116.098165 496.510553 
Q 102.055837 503.679741 89.009276 510.34055 
" clip-path="url(#p1764f9dd46)" style="fill: none; stroke: #666666; stroke-linecap: round"/>
    <path d="M 93.481254 510.302996 
L 89.009276 510.34055 
L 91.66242 506.740435 
z
" clip-path="url(#p1764f9dd46)" style="fill: #666666; stroke: #666666; stroke-linecap: round"/>
   </g>
   <g id="patch_4">
    <path d="M 128.549375 485.317694 
Q 131.06649 481.46242 132.972381 478.543311 
" clip-path="url(#p1764f9dd46)" style="fill: none; stroke: #666666; stroke-linecap: round"/>
    <path d="M 129.110937 480.799247 
L 132.972381 478.543311 
L 132.460263 482.986028 
z
" clip-path="url(#p1764f9dd46)" style="fill: #666666; stroke: #666666; stroke-linecap: round"/>
   </g>
   <g id="patch_5">
    <path d="M 138.317355 461.698117 
Q 138.317355 459.250659 138.317355 457.921234 
" clip-path="url(#p1764f9dd46)" style="fill: none; stroke: #666666; stroke-linecap: round"/>
    <path d="M 136.317355 461.921234 
L 138.317355 457.921234 
L 140.317355 461.921234 
z
" clip-path="url(#p1764f9dd46)" style="fill: #666666; stroke: #666666; stroke-linecap: round"/>
   </g>
   <g id="patch_6">
    <path d="M 88.961344 514.786573 
Q 428.401412 514.786573 766.723446 514.786573 
" clip-path="url(#p1764f9dd46)" style="fill: none; stroke: #666666; stroke-linecap: round"/>
    <path d="M 762.723446 512.786573 
L 766.723446 514.786573 
L 762.723446 516.786573 
z
" clip-path="url(#p1764f9dd46)" style="fill: #666666; stroke: #666666; stroke-linecap: round"/>
   </g>
   <g id="patch_7">
    <path d="M 771.763907 507.533926 
Q 732.986022 448.140789 694.819361 389.683818 
" clip-path="url(#p1764f9dd46)" style="fill: none; stroke: #666666; stroke-linecap: round"/>
    <path d="M 695.331479 394.126535 
L 694.819361 389.683818 
L 698.680806 391.939754 
z
" clip-path="url(#p1764f9dd46)" style="fill: #666666; stroke: #666666; stroke-linecap: round"/>
   </g>
   <g id="patch_8">
    <path d="M 767.924969 513.592713 
Q 457.408308 470.356827 147.998998 427.275127 
" clip-path="url(#p1764f9dd46)" style="fill: none; stroke: #666666; stroke-linecap: round"/>
    <path d="M 151.684962 429.807649 
L 147.998998 427.275127 
L 152.236595 425.845869 
z
" clip-path="url(#p1764f9dd46)" style="fill: #666666; stroke: #666666; stroke-linecap: round"/>
   </g>
   <g id="patch_9">
    <path d="M 133.581204 433.181072 
Q 109.307641 470.359042 85.645302 506.600847 
" clip-path="url(#p1764f9dd46)" style="fill: none; stroke: #666666; stroke-linecap: round"/>
    <path d="M 89.506746 504.344911 
L 85.645302 506.600847 
L 86.15742 502.15813 
z
" clip-path="url(#p1764f9dd46)" style="fill: #666666; stroke: #666666; stroke-linecap: round"/>
   </g>
   <g id="patch_10">
    <path d="M 684.738229 374.243314 
Q 682.221113 370.38804 680.315222 367.468931 
" clip-path="url(#p1764f9dd46)" style="fill: none; stroke: #666666; stroke-linecap: round"/>
    <path d="M 680.82734 371.911648 
L 680.315222 367.468931 
L 684.176667 369.724867 
z
" clip-path="url(#p1764f9dd46)" style="fill: #666666; stroke: #666666; stroke-linecap: round"/>
   </g>
   <g id="patch_11">
    <path d="M 670.234096 352.028437 
Q 667.716981 348.173164 665.81109 345.254055 
" clip-path="url(#p1764f9dd46)" style="fill: none; stroke: #666666; stroke-linecap: round"/>
    <path d="M 666.323208 349.696772 
L 665.81109 345.254055 
L 669.672535 347.509991 
z
" clip-path="url(#p1764f9dd46)" style="fill: #666666; stroke: #666666; stroke-linecap: round"/>
   </g>
   <g id="patch_12">
    <path d="M 655.729964 329.813561 
Q 653.212849 325.958288 651.306958 323.039179 
" clip-path="url(#p1764f9dd46)" style="fill: none; stroke: #666666; stroke-linecap: round"/>
    <path d="M 651.819076 327.481896 
L 651.306958 323.039179 
L 655.168402 325.295115 
z
" clip-path="url(#p1764f9dd46)" style="fill: #666666; stroke: #666666; stroke-linecap: round"/>
   </g>
   <g id="patch_13">
    <path d="M 637.44023 316.388232 
Q 399.392052 359.282384 162.444188 401.978268 
" clip-path="url(#p1764f9dd46)" style="fill: none; stroke: #666666; stroke-linecap: round"/>
    <path d="M 166.73546 403.237229 
L 162.444188 401.978268 
L 166.026119 399.300627 
z
" clip-path="url(#p1764f9dd46)" style="fill: #666666; stroke: #666666; stroke-linecap: round"/>
   </g>
   <g id="patch_14">
    <path d="M 641.225832 307.598685 
Q 631.456395 292.635583 622.298183 278.608645 
" clip-path="url(#p1764f9dd46)" style="fill: none; stroke: #666666; stroke-linecap: round"/>
    <path d="M 622.810301 283.051362 
L 622.298183 278.608645 
L 626.159627 280.864581 
z
" clip-path="url(#p1764f9dd46)" style="fill: #666666; stroke: #666666; stroke-linecap: round"/>
   </g>
   <g id="patch_15">
    <path d="M 157.556533 396.459884 
Q 232.593612 281.531297 307.019468 167.538875 
" clip-path="url(#p1764f9dd46)" style="fill: none; stroke: #666666; stroke-linecap: round"/>
    <path d="M 303.158024 169.794811 
L 307.019468 167.538875 
L 306.50735 171.981592 
z
" clip-path="url(#p1764f9dd46)" style="fill: #666666; stroke: #666666; stroke-linecap: round"/>
   </g>
   <g id="patch_16">
    <path d="M 317.102208 166.601204 
Q 334.122822 192.670383 350.532212 217.803397 
" clip-path="url(#p1764f9dd46)" style="fill: none; stroke: #666666; stroke-linecap: round"/>
    <path d="M 350.020094 213.360679 
L 350.532212 217.803397 
L 346.670767 215.547461 
z
" clip-path="url(#p1764f9dd46)" style="fill: #666666; stroke: #666666; stroke-linecap: round"/>
   </g>
   <g id="patch_17">
    <path d="M 308.557217 167.128644 
Q 290.609957 203.779915 273.154387 239.427074 
" clip-path="url(#p1764f9dd46)" style="fill: none; stroke: #666666; stroke-linecap: round"/>
    <path d="M 276.70972 236.714216 
L 273.154387 239.427074 
L 273.1173 234.955092 
z
" clip-path="url(#p1764f9dd46)" style="fill: #666666; stroke: #666666; stroke-linecap: round"/>
   </g>
   <g id="patch_18">
    <path d="M 273.590697 255.462064 
Q 276.107812 259.317337 278.013703 262.236446 
" clip-path="url(#p1764f9dd46)" style="fill: none; stroke: #666666; stroke-linecap: round"/>
    <path d="M 277.501585 257.793729 
L 278.013703 262.236446 
L 274.152259 259.98051 
z
" clip-path="url(#p1764f9dd46)" style="fill: #666666; stroke: #666666; stroke-linecap: round"/>
   </g>
   <g id="patch_19">
    <path d="M 288.094829 277.67694 
Q 290.611944 281.532213 292.517836 284.451322 
" clip-path="url(#p1764f9dd46)" style="fill: none; stroke: #666666; stroke-linecap: round"/>
    <path d="M 292.005718 280.008605 
L 292.517836 284.451322 
L 288.656391 282.195386 
z
" clip-path="url(#p1764f9dd46)" style="fill: #666666; stroke: #666666; stroke-linecap: round"/>
   </g>
   <g id="patch_20">
    <path d="M 303.547962 286.107176 
Q 326.869346 259.317484 349.456633 233.371062 
" clip-path="url(#p1764f9dd46)" style="fill: none; stroke: #666666; stroke-linecap: round"/>
    <path d="M 345.321765 235.074843 
L 349.456633 233.371062 
L 348.338737 237.701224 
z
" clip-path="url(#p1764f9dd46)" style="fill: #666666; stroke: #666666; stroke-linecap: round"/>
   </g>
   <g id="patch_21">
    <path d="M 306.50518 292.036137 
Q 457.411611 281.530141 607.202708 271.101795 
" clip-path="url(#p1764f9dd46)" style="fill: none; stroke: #666666; stroke-linecap: round"/>
    <path d="M 603.073465 269.384429 
L 607.202708 271.101795 
L 603.351269 273.37477 
z
" clip-path="url(#p1764f9dd46)" style="fill: #666666; stroke: #666666; stroke-linecap: round"/>
   </g>
   <g id="patch_22">
    <path d="M 290.986538 297.903744 
Q 225.341484 348.175512 160.584075 397.76751 
" clip-path="url(#p1764f9dd46)" style="fill: none; stroke: #666666; stroke-linecap: round"/>
    <path d="M 164.975819 396.923362 
L 160.584075 397.76751 
L 162.543803 393.747626 
z
" clip-path="url(#p1764f9dd46)" style="fill: #666666; stroke: #666666; stroke-linecap: round"/>
   </g>
   <g id="patch_23">
    <path d="M 360.61549 233.247187 
Q 363.132606 237.102461 365.038497 240.02157 
" clip-path="url(#p1764f9dd46)" style="fill: none; stroke: #666666; stroke-linecap: round"/>
    <path d="M 364.526379 235.578853 
L 365.038497 240.02157 
L 361.177052 237.765634 
z
" clip-path="url(#p1764f9dd46)" style="fill: #666666; stroke: #666666; stroke-linecap: round"/>
   </g>
   <g id="patch_24">
    <path d="M 375.119623 240.954057 
Q 428.401556 159.346173 481.072265 78.674454 
" clip-path="url(#p1764f9dd46)" style="fill: none; stroke: #666666; stroke-linecap: round"/>
    <path d="M 477.210821 80.93039 
L 481.072265 78.674454 
L 480.560147 83.117171 
z
" clip-path="url(#p1764f9dd46)" style="fill: #666666; stroke: #666666; stroke-linecap: round"/>
   </g>
   <g id="patch_25">
    <path d="M 379.01057 248.985323 
Q 493.67066 259.315684 607.217225 269.545722 
" clip-path="url(#p1764f9dd46)" style="fill: none; stroke: #666666; stroke-linecap: round"/>
    <path d="M 603.412825 267.194862 
L 607.217225 269.545722 
L 603.053897 271.178726 
z
" clip-path="url(#p1764f9dd46)" style="fill: #666666; stroke: #666666; stroke-linecap: round"/>
   </g>
   <g id="patch_26">
    <path d="M 612.217567 263.168933 
Q 602.448131 248.205831 593.289918 234.178893 
" clip-path="url(#p1764f9dd46)" style="fill: none; stroke: #666666; stroke-linecap: round"/>
    <path d="M 593.802036 238.62161 
L 593.289918 234.178893 
L 597.151363 236.434829 
z
" clip-path="url(#p1764f9dd46)" style="fill: #666666; stroke: #666666; stroke-linecap: round"/>
   </g>
   <g id="patch_27">
    <path d="M 583.209303 218.739181 
Q 580.692188 214.883908 578.786297 211.964799 
" clip-path="url(#p1764f9dd46)" style="fill: none; stroke: #666666; stroke-linecap: round"/>
    <path d="M 579.298415 216.407516 
L 578.786297 211.964799 
L 582.647741 214.220735 
z
" clip-path="url(#p1764f9dd46)" style="fill: #666666; stroke: #666666; stroke-linecap: round"/>
   </g>
   <g id="patch_28">
    <path d="M 568.705171 196.524305 
Q 566.188056 192.669031 564.282164 189.749923 
" clip-path="url(#p1764f9dd46)" style="fill: none; stroke: #666666; stroke-linecap: round"/>
    <path d="M 564.794282 194.19264 
L 564.282164 189.749923 
L 568.143609 192.005859 
z
" clip-path="url(#p1764f9dd46)" style="fill: #666666; stroke: #666666; stroke-linecap: round"/>
   </g>
   <g id="patch_29">
    <path d="M 554.203252 174.312819 
Q 522.677502 126.027226 491.762977 78.677799 
" clip-path="url(#p1764f9dd46)" style="fill: none; stroke: #666666; stroke-linecap: round"/>
    <path d="M 492.275095 83.120516 
L 491.762977 78.677799 
L 495.624421 80.933735 
z
" clip-path="url(#p1764f9dd46)" style="fill: #666666; stroke: #666666; stroke-linecap: round"/>
   </g>
   <g id="patch_30">
    <path d="M 486.416529 79.147756 
Q 486.416529 81.595214 486.416529 82.924638 
" clip-path="url(#p1764f9dd46)" style="fill: none; stroke: #666666; stroke-linecap: round"/>
    <path d="M 488.416529 78.924638 
L 486.416529 82.924638 
L 484.416529 78.924638 
z
" clip-path="url(#p1764f9dd46)" style="fill: #666666; stroke: #666666; stroke-linecap: round"/>
   </g>
   <g id="patch_31">
    <path d="M 522.213867 155.4097 
Q 508.17154 148.240512 495.124978 141.579703 
" clip-path="url(#p1764f9dd46)" style="fill: none; stroke: #666666; stroke-linecap: round"/>
    <path d="M 497.778122 145.179819 
L 495.124978 141.579703 
L 499.596957 141.617258 
z
" clip-path="url(#p1764f9dd46)" style="fill: #666666; stroke: #666666; stroke-linecap: round"/>
   </g>
   <g id="patch_32">
    <path d="M 486.416529 128.474977 
Q 486.416529 126.027518 486.416529 124.698094 
" clip-path="url(#p1764f9dd46)" style="fill: none; stroke: #666666; stroke-linecap: round"/>
    <path d="M 484.416529 128.698094 
L 486.416529 124.698094 
L 488.416529 128.698094 
z
" clip-path="url(#p1764f9dd46)" style="fill: #666666; stroke: #666666; stroke-linecap: round"/>
   </g>
   <g id="patch_33">
    <path d="M 486.416529 106.260101 
Q 486.416529 103.812642 486.416529 102.483218 
" clip-path="url(#p1764f9dd46)" style="fill: none; stroke: #666666; stroke-linecap: round"/>
    <path d="M 484.416529 106.483218 
L 486.416529 102.483218 
L 488.416529 106.483218 
z
" clip-path="url(#p1764f9dd46)" style="fill: #666666; stroke: #666666; stroke-linecap: round"/>
   </g>
   <g id="text_1">
    <g id="patch_34">
     <path d="M 98.153817 511.833006 
L 110.948143 505.300974 
Q 112.818487 504.346086 111.863599 502.475742 
L 108.78309 496.441932 
Q 107.828202 494.571588 105.957858 495.526476 
L 93.163532 502.058508 
Q 91.293188 503.013396 92.248076 504.88374 
L 95.328585 510.91755 
Q 96.283473 512.787894 98.153817 511.833006 
z
" clip-path="url(#p1764f9dd46)" style="fill: #ffffff; stroke: #ffffff; stroke-linejoin: miter"/>
    </g>
    <g clip-path="url(#p1764f9dd46)">
     <!-- true -->
     <g transform="translate(96.536973 508.666084) rotate(-27.046189) scale(0.07 -0.07)">
      <defs>
       <path id="DejaVuSans-74" d="M 1172 4494 
L 1172 3500 
L 2356 3500 
L 2356 3053 
L 1172 3053 
L 1172 1153 
Q 1172 725 1289 603 
Q 1406 481 1766 481 
L 2356 481 
L 2356 0 
L 1766 0 
Q 1100 0 847 248 
Q 594 497 594 1153 
L 594 3053 
L 172 3053 
L 172 3500 
L 594 3500 
L 594 4494 
L 1172 4494 
z
" transform="scale(0.015625)"/>
       <path id="DejaVuSans-72" d="M 2631 2963 
Q 2534 3019 2420 3045 
Q 2306 3072 2169 3072 
Q 1681 3072 1420 2755 
Q 1159 2438 1159 1844 
L 1159 0 
L 581 0 
L 581 3500 
L 1159 3500 
L 1159 2956 
Q 1341 3275 1631 3429 
Q 1922 3584 2338 3584 
Q 2397 3584 2469 3576 
Q 2541 3569 2628 3553 
L 2631 2963 
z
" transform="scale(0.015625)"/>
       <path id="DejaVuSans-75" d="M 544 1381 
L 544 3500 
L 1119 3500 
L 1119 1403 
Q 1119 906 1312 657 
Q 1506 409 1894 409 
Q 2359 409 2629 706 
Q 2900 1003 2900 1516 
L 2900 3500 
L 3475 3500 
L 3475 0 
L 2900 0 
L 2900 538 
Q 2691 219 2414 64 
Q 2138 -91 1772 -91 
Q 1169 -91 856 284 
Q 544 659 544 1381 
z
M 1991 3584 
L 1991 3584 
z
" transform="scale(0.015625)"/>
       <path id="DejaVuSans-65" d="M 3597 1894 
L 3597 1613 
L 953 1613 
Q 991 1019 1311 708 
Q 1631 397 2203 397 
Q 2534 397 2845 478 
Q 3156 559 3463 722 
L 3463 178 
Q 3153 47 2828 -22 
Q 2503 -91 2169 -91 
Q 1331 -91 842 396 
Q 353 884 353 1716 
Q 353 2575 817 3079 
Q 1281 3584 2069 3584 
Q 2775 3584 3186 3129 
Q 3597 2675 3597 1894 
z
M 3022 2063 
Q 3016 2534 2758 2815 
Q 2500 3097 2075 3097 
Q 1594 3097 1305 2825 
Q 1016 2553 972 2059 
L 3022 2063 
z
" transform="scale(0.015625)"/>
      </defs>
      <use xlink:href="#DejaVuSans-74"/>
      <use xlink:href="#DejaVuSans-72" transform="translate(39.208984 0)"/>
      <use xlink:href="#DejaVuSans-75" transform="translate(80.322266 0)"/>
      <use xlink:href="#DejaVuSans-65" transform="translate(143.701172 0)"/>
     </g>
    </g>
   </g>
   <g id="text_2">
    <g id="patch_35">
     <path d="M 131.109337 491.434092 
L 140.213095 477.490558 
Q 141.361156 475.732162 139.602759 474.584101 
L 133.930099 470.880412 
Q 132.171703 469.732351 131.023643 471.490748 
L 121.919884 485.434282 
Q 120.771824 487.192678 122.530221 488.340738 
L 128.202881 492.044428 
Q 129.961277 493.192488 131.109337 491.434092 
z
" clip-path="url(#p1764f9dd46)" style="fill: #ffffff; stroke: #ffffff; stroke-linejoin: miter"/>
    </g>
    <g clip-path="url(#p1764f9dd46)">
     <!-- false -->
     <g transform="translate(128.131969 489.490163) rotate(-56.859409) scale(0.07 -0.07)">
      <defs>
       <path id="DejaVuSans-66" d="M 2375 4863 
L 2375 4384 
L 1825 4384 
Q 1516 4384 1395 4259 
Q 1275 4134 1275 3809 
L 1275 3500 
L 2222 3500 
L 2222 3053 
L 1275 3053 
L 1275 0 
L 697 0 
L 697 3053 
L 147 3053 
L 147 3500 
L 697 3500 
L 697 3744 
Q 697 4328 969 4595 
Q 1241 4863 1831 4863 
L 2375 4863 
z
" transform="scale(0.015625)"/>
       <path id="DejaVuSans-61" d="M 2194 1759 
Q 1497 1759 1228 1600 
Q 959 1441 959 1056 
Q 959 750 1161 570 
Q 1363 391 1709 391 
Q 2188 391 2477 730 
Q 2766 1069 2766 1631 
L 2766 1759 
L 2194 1759 
z
M 3341 1997 
L 3341 0 
L 2766 0 
L 2766 531 
Q 2569 213 2275 61 
Q 1981 -91 1556 -91 
Q 1019 -91 701 211 
Q 384 513 384 1019 
Q 384 1609 779 1909 
Q 1175 2209 1959 2209 
L 2766 2209 
L 2766 2266 
Q 2766 2663 2505 2880 
Q 2244 3097 1772 3097 
Q 1472 3097 1187 3025 
Q 903 2953 641 2809 
L 641 3341 
Q 956 3463 1253 3523 
Q 1550 3584 1831 3584 
Q 2591 3584 2966 3190 
Q 3341 2797 3341 1997 
z
" transform="scale(0.015625)"/>
       <path id="DejaVuSans-6c" d="M 603 4863 
L 1178 4863 
L 1178 0 
L 603 0 
L 603 4863 
z
" transform="scale(0.015625)"/>
       <path id="DejaVuSans-73" d="M 2834 3397 
L 2834 2853 
Q 2591 2978 2328 3040 
Q 2066 3103 1784 3103 
Q 1356 3103 1142 2972 
Q 928 2841 928 2578 
Q 928 2378 1081 2264 
Q 1234 2150 1697 2047 
L 1894 2003 
Q 2506 1872 2764 1633 
Q 3022 1394 3022 966 
Q 3022 478 2636 193 
Q 2250 -91 1575 -91 
Q 1294 -91 989 -36 
Q 684 19 347 128 
L 347 722 
Q 666 556 975 473 
Q 1284 391 1588 391 
Q 1994 391 2212 530 
Q 2431 669 2431 922 
Q 2431 1156 2273 1281 
Q 2116 1406 1581 1522 
L 1381 1569 
Q 847 1681 609 1914 
Q 372 2147 372 2553 
Q 372 3047 722 3315 
Q 1072 3584 1716 3584 
Q 2034 3584 2315 3537 
Q 2597 3491 2834 3397 
z
" transform="scale(0.015625)"/>
      </defs>
      <use xlink:href="#DejaVuSans-66"/>
      <use xlink:href="#DejaVuSans-61" transform="translate(35.205078 0)"/>
      <use xlink:href="#DejaVuSans-6c" transform="translate(96.484375 0)"/>
      <use xlink:href="#DejaVuSans-73" transform="translate(124.267578 0)"/>
      <use xlink:href="#DejaVuSans-65" transform="translate(176.367188 0)"/>
     </g>
    </g>
   </g>
   <g id="text_3">
    <g id="patch_36">
     <path d="M 724.464571 445.126429 
L 732.31802 457.154959 
Q 733.466081 458.913356 735.224477 457.765296 
L 740.897137 454.061606 
Q 742.655533 452.913546 741.507473 451.155149 
L 733.654024 439.126619 
Q 732.505964 437.368222 730.747568 438.516283 
L 725.074908 442.219972 
Q 723.316511 443.368033 724.464571 445.126429 
z
" clip-path="url(#p1764f9dd46)" style="fill: #ffffff; stroke: #ffffff; stroke-linejoin: miter"/>
    </g>
    <g clip-path="url(#p1764f9dd46)">
     <!-- true -->
     <g transform="translate(727.44194 443.1825) rotate(-303.140591) scale(0.07 -0.07)">
      <use xlink:href="#DejaVuSans-74"/>
      <use xlink:href="#DejaVuSans-72" transform="translate(39.208984 0)"/>
      <use xlink:href="#DejaVuSans-75" transform="translate(80.322266 0)"/>
      <use xlink:href="#DejaVuSans-65" transform="translate(143.701172 0)"/>
     </g>
    </g>
   </g>
   <g id="text_4">
    <g id="patch_37">
     <path d="M 448.404943 474.643492 
L 464.898174 476.939986 
Q 466.978109 477.229593 467.267716 475.149658 
L 468.202 468.439703 
Q 468.491607 466.359768 466.411673 466.070161 
L 449.918442 463.773668 
Q 447.838507 463.484061 447.5489 465.563995 
L 446.614616 472.273951 
Q 446.325009 474.353885 448.404943 474.643492 
z
" clip-path="url(#p1764f9dd46)" style="fill: #ffffff; stroke: #ffffff; stroke-linejoin: miter"/>
    </g>
    <g clip-path="url(#p1764f9dd46)">
     <!-- false -->
     <g transform="translate(448.895314 471.121687) rotate(-352.073184) scale(0.07 -0.07)">
      <use xlink:href="#DejaVuSans-66"/>
      <use xlink:href="#DejaVuSans-61" transform="translate(35.205078 0)"/>
      <use xlink:href="#DejaVuSans-6c" transform="translate(96.484375 0)"/>
      <use xlink:href="#DejaVuSans-73" transform="translate(124.267578 0)"/>
      <use xlink:href="#DejaVuSans-65" transform="translate(176.367188 0)"/>
     </g>
    </g>
   </g>
   <g id="text_5">
    <g id="patch_38">
     <path d="M 393.296336 365.956493 
L 407.433966 363.409019 
Q 409.500682 363.036615 409.128278 360.969899 
L 407.926888 354.302586 
Q 407.554484 352.23587 405.487768 352.608274 
L 391.350138 355.155749 
Q 389.283422 355.528152 389.655826 357.594868 
L 390.857216 364.262181 
Q 391.22962 366.328897 393.296336 365.956493 
z
" clip-path="url(#p1764f9dd46)" style="fill: #ffffff; stroke: #ffffff; stroke-linejoin: miter"/>
    </g>
    <g clip-path="url(#p1764f9dd46)">
     <!-- true -->
     <g transform="translate(392.665771 362.457069) rotate(-10.214576) scale(0.07 -0.07)">
      <use xlink:href="#DejaVuSans-74"/>
      <use xlink:href="#DejaVuSans-72" transform="translate(39.208984 0)"/>
      <use xlink:href="#DejaVuSans-75" transform="translate(80.322266 0)"/>
      <use xlink:href="#DejaVuSans-65" transform="translate(143.701172 0)"/>
     </g>
    </g>
   </g>
   <g id="text_6">
    <g id="patch_39">
     <path d="M 622.30979 288.663721 
L 631.413548 302.607255 
Q 632.561608 304.365651 634.320005 303.217591 
L 639.992665 299.513901 
Q 641.751061 298.365841 640.603001 296.607445 
L 631.499243 282.663911 
Q 630.351183 280.905514 628.592786 282.053574 
L 622.920126 285.757264 
Q 621.16173 286.905324 622.30979 288.663721 
z
" clip-path="url(#p1764f9dd46)" style="fill: #ffffff; stroke: #ffffff; stroke-linejoin: miter"/>
    </g>
    <g clip-path="url(#p1764f9dd46)">
     <!-- false -->
     <g transform="translate(625.287158 286.719792) rotate(-303.140591) scale(0.07 -0.07)">
      <use xlink:href="#DejaVuSans-66"/>
      <use xlink:href="#DejaVuSans-61" transform="translate(35.205078 0)"/>
      <use xlink:href="#DejaVuSans-6c" transform="translate(96.484375 0)"/>
      <use xlink:href="#DejaVuSans-73" transform="translate(124.267578 0)"/>
      <use xlink:href="#DejaVuSans-65" transform="translate(176.367188 0)"/>
     </g>
    </g>
   </g>
   <g id="text_7">
    <g id="patch_40">
     <path d="M 325.601371 189.656023 
L 333.45482 201.684553 
Q 334.60288 203.442949 336.361277 202.294889 
L 342.033937 198.591199 
Q 343.792333 197.443139 342.644273 195.684743 
L 334.790824 183.656212 
Q 333.642764 181.897816 331.884367 183.045876 
L 326.211707 186.749566 
Q 324.453311 187.897626 325.601371 189.656023 
z
" clip-path="url(#p1764f9dd46)" style="fill: #ffffff; stroke: #ffffff; stroke-linejoin: miter"/>
    </g>
    <g clip-path="url(#p1764f9dd46)">
     <!-- true -->
     <g transform="translate(328.578739 187.712094) rotate(-303.140591) scale(0.07 -0.07)">
      <use xlink:href="#DejaVuSans-74"/>
      <use xlink:href="#DejaVuSans-72" transform="translate(39.208984 0)"/>
      <use xlink:href="#DejaVuSans-75" transform="translate(80.322266 0)"/>
      <use xlink:href="#DejaVuSans-65" transform="translate(143.701172 0)"/>
     </g>
    </g>
   </g>
   <g id="text_8">
    <g id="patch_41">
     <path d="M 291.876478 213.670922 
L 299.199859 198.715366 
Q 300.123399 196.829345 298.237378 195.905806 
L 292.152997 192.926428 
Q 290.266976 192.002888 289.343436 193.888909 
L 282.020055 208.844464 
Q 281.096515 210.730485 282.982536 211.654025 
L 289.066917 214.633403 
Q 290.952938 215.556942 291.876478 213.670922 
z
" clip-path="url(#p1764f9dd46)" style="fill: #ffffff; stroke: #ffffff; stroke-linejoin: miter"/>
    </g>
    <g clip-path="url(#p1764f9dd46)">
     <!-- false -->
     <g transform="translate(288.683012 212.107157) rotate(-63.910102) scale(0.07 -0.07)">
      <use xlink:href="#DejaVuSans-66"/>
      <use xlink:href="#DejaVuSans-61" transform="translate(35.205078 0)"/>
      <use xlink:href="#DejaVuSans-6c" transform="translate(96.484375 0)"/>
      <use xlink:href="#DejaVuSans-73" transform="translate(124.267578 0)"/>
      <use xlink:href="#DejaVuSans-65" transform="translate(176.367188 0)"/>
     </g>
    </g>
   </g>
   <g id="text_9">
    <g id="patch_42">
     <path d="M 320.674658 274.790701 
L 341.341614 251.050197 
Q 342.720465 249.466287 341.136555 248.087436 
L 336.026794 243.639207 
Q 334.442884 242.260357 333.064034 243.844267 
L 312.397077 267.584771 
Q 311.018227 269.168682 312.602137 270.547532 
L 317.711897 274.995761 
Q 319.295807 276.374611 320.674658 274.790701 
z
" clip-path="url(#p1764f9dd46)" style="fill: #ffffff; stroke: #ffffff; stroke-linejoin: miter"/>
    </g>
    <g clip-path="url(#p1764f9dd46)">
     <!-- Continue -->
     <g transform="translate(317.992735 272.455991) rotate(-48.959265) scale(0.07 -0.07)">
      <defs>
       <path id="DejaVuSans-43" d="M 4122 4306 
L 4122 3641 
Q 3803 3938 3442 4084 
Q 3081 4231 2675 4231 
Q 1875 4231 1450 3742 
Q 1025 3253 1025 2328 
Q 1025 1406 1450 917 
Q 1875 428 2675 428 
Q 3081 428 3442 575 
Q 3803 722 4122 1019 
L 4122 359 
Q 3791 134 3420 21 
Q 3050 -91 2638 -91 
Q 1578 -91 968 557 
Q 359 1206 359 2328 
Q 359 3453 968 4101 
Q 1578 4750 2638 4750 
Q 3056 4750 3426 4639 
Q 3797 4528 4122 4306 
z
" transform="scale(0.015625)"/>
       <path id="DejaVuSans-6f" d="M 1959 3097 
Q 1497 3097 1228 2736 
Q 959 2375 959 1747 
Q 959 1119 1226 758 
Q 1494 397 1959 397 
Q 2419 397 2687 759 
Q 2956 1122 2956 1747 
Q 2956 2369 2687 2733 
Q 2419 3097 1959 3097 
z
M 1959 3584 
Q 2709 3584 3137 3096 
Q 3566 2609 3566 1747 
Q 3566 888 3137 398 
Q 2709 -91 1959 -91 
Q 1206 -91 779 398 
Q 353 888 353 1747 
Q 353 2609 779 3096 
Q 1206 3584 1959 3584 
z
" transform="scale(0.015625)"/>
       <path id="DejaVuSans-6e" d="M 3513 2113 
L 3513 0 
L 2938 0 
L 2938 2094 
Q 2938 2591 2744 2837 
Q 2550 3084 2163 3084 
Q 1697 3084 1428 2787 
Q 1159 2491 1159 1978 
L 1159 0 
L 581 0 
L 581 3500 
L 1159 3500 
L 1159 2956 
Q 1366 3272 1645 3428 
Q 1925 3584 2291 3584 
Q 2894 3584 3203 3211 
Q 3513 2838 3513 2113 
z
" transform="scale(0.015625)"/>
       <path id="DejaVuSans-69" d="M 603 3500 
L 1178 3500 
L 1178 0 
L 603 0 
L 603 3500 
z
M 603 4863 
L 1178 4863 
L 1178 4134 
L 603 4134 
L 603 4863 
z
" transform="scale(0.015625)"/>
      </defs>
      <use xlink:href="#DejaVuSans-43"/>
      <use xlink:href="#DejaVuSans-6f" transform="translate(69.824219 0)"/>
      <use xlink:href="#DejaVuSans-6e" transform="translate(131.005859 0)"/>
      <use xlink:href="#DejaVuSans-74" transform="translate(194.384766 0)"/>
      <use xlink:href="#DejaVuSans-69" transform="translate(233.59375 0)"/>
      <use xlink:href="#DejaVuSans-6e" transform="translate(261.376953 0)"/>
      <use xlink:href="#DejaVuSans-75" transform="translate(324.755859 0)"/>
      <use xlink:href="#DejaVuSans-65" transform="translate(388.134766 0)"/>
     </g>
    </g>
   </g>
   <g id="text_10">
    <g id="patch_43">
     <path d="M 443.149486 288.023686 
L 472.435942 285.984784 
Q 474.530871 285.838937 474.385024 283.744008 
L 473.914514 276.985679 
Q 473.768666 274.890749 471.673737 275.036597 
L 442.387281 277.075499 
Q 440.292352 277.221346 440.438199 279.316275 
L 440.908709 286.074604 
Q 441.054556 288.169534 443.149486 288.023686 
z
" clip-path="url(#p1764f9dd46)" style="fill: #ffffff; stroke: #ffffff; stroke-linejoin: miter"/>
    </g>
    <g clip-path="url(#p1764f9dd46)">
     <!-- Rollback -->
     <g transform="translate(442.902533 284.476491) rotate(-3.982464) scale(0.07 -0.07)">
      <defs>
       <path id="DejaVuSans-52" d="M 2841 2188 
Q 3044 2119 3236 1894 
Q 3428 1669 3622 1275 
L 4263 0 
L 3584 0 
L 2988 1197 
Q 2756 1666 2539 1819 
Q 2322 1972 1947 1972 
L 1259 1972 
L 1259 0 
L 628 0 
L 628 4666 
L 2053 4666 
Q 2853 4666 3247 4331 
Q 3641 3997 3641 3322 
Q 3641 2881 3436 2590 
Q 3231 2300 2841 2188 
z
M 1259 4147 
L 1259 2491 
L 2053 2491 
Q 2509 2491 2742 2702 
Q 2975 2913 2975 3322 
Q 2975 3731 2742 3939 
Q 2509 4147 2053 4147 
L 1259 4147 
z
" transform="scale(0.015625)"/>
       <path id="DejaVuSans-62" d="M 3116 1747 
Q 3116 2381 2855 2742 
Q 2594 3103 2138 3103 
Q 1681 3103 1420 2742 
Q 1159 2381 1159 1747 
Q 1159 1113 1420 752 
Q 1681 391 2138 391 
Q 2594 391 2855 752 
Q 3116 1113 3116 1747 
z
M 1159 2969 
Q 1341 3281 1617 3432 
Q 1894 3584 2278 3584 
Q 2916 3584 3314 3078 
Q 3713 2572 3713 1747 
Q 3713 922 3314 415 
Q 2916 -91 2278 -91 
Q 1894 -91 1617 61 
Q 1341 213 1159 525 
L 1159 0 
L 581 0 
L 581 4863 
L 1159 4863 
L 1159 2969 
z
" transform="scale(0.015625)"/>
       <path id="DejaVuSans-63" d="M 3122 3366 
L 3122 2828 
Q 2878 2963 2633 3030 
Q 2388 3097 2138 3097 
Q 1578 3097 1268 2742 
Q 959 2388 959 1747 
Q 959 1106 1268 751 
Q 1578 397 2138 397 
Q 2388 397 2633 464 
Q 2878 531 3122 666 
L 3122 134 
Q 2881 22 2623 -34 
Q 2366 -91 2075 -91 
Q 1284 -91 818 406 
Q 353 903 353 1747 
Q 353 2603 823 3093 
Q 1294 3584 2113 3584 
Q 2378 3584 2631 3529 
Q 2884 3475 3122 3366 
z
" transform="scale(0.015625)"/>
       <path id="DejaVuSans-6b" d="M 581 4863 
L 1159 4863 
L 1159 1991 
L 2875 3500 
L 3609 3500 
L 1753 1863 
L 3688 0 
L 2938 0 
L 1159 1709 
L 1159 0 
L 581 0 
L 581 4863 
z
" transform="scale(0.015625)"/>
      </defs>
      <use xlink:href="#DejaVuSans-52"/>
      <use xlink:href="#DejaVuSans-6f" transform="translate(64.982422 0)"/>
      <use xlink:href="#DejaVuSans-6c" transform="translate(126.164062 0)"/>
      <use xlink:href="#DejaVuSans-6c" transform="translate(153.947266 0)"/>
      <use xlink:href="#DejaVuSans-62" transform="translate(181.730469 0)"/>
      <use xlink:href="#DejaVuSans-61" transform="translate(245.207031 0)"/>
      <use xlink:href="#DejaVuSans-63" transform="translate(306.486328 0)"/>
      <use xlink:href="#DejaVuSans-6b" transform="translate(361.466797 0)"/>
     </g>
    </g>
   </g>
   <g id="text_11">
    <g id="patch_44">
     <path d="M 221.285852 358.192951 
L 236.06977 346.87125 
Q 237.737031 345.594441 236.460223 343.92718 
L 232.341185 338.548526 
Q 231.064376 336.881265 229.397115 338.158073 
L 214.613198 349.479774 
Q 212.945936 350.756583 214.222745 352.423844 
L 218.341783 357.802498 
Q 219.618591 359.469759 221.285852 358.192951 
z
" clip-path="url(#p1764f9dd46)" style="fill: #ffffff; stroke: #ffffff; stroke-linejoin: miter"/>
    </g>
    <g clip-path="url(#p1764f9dd46)">
     <!-- Retry -->
     <g transform="translate(219.123923 355.369895) rotate(-37.445325) scale(0.07 -0.07)">
      <defs>
       <path id="DejaVuSans-79" d="M 2059 -325 
Q 1816 -950 1584 -1140 
Q 1353 -1331 966 -1331 
L 506 -1331 
L 506 -850 
L 844 -850 
Q 1081 -850 1212 -737 
Q 1344 -625 1503 -206 
L 1606 56 
L 191 3500 
L 800 3500 
L 1894 763 
L 2988 3500 
L 3597 3500 
L 2059 -325 
z
" transform="scale(0.015625)"/>
      </defs>
      <use xlink:href="#DejaVuSans-52"/>
      <use xlink:href="#DejaVuSans-65" transform="translate(64.982422 0)"/>
      <use xlink:href="#DejaVuSans-74" transform="translate(126.505859 0)"/>
      <use xlink:href="#DejaVuSans-72" transform="translate(165.714844 0)"/>
      <use xlink:href="#DejaVuSans-79" transform="translate(206.828125 0)"/>
     </g>
    </g>
   </g>
   <g id="text_12">
    <g id="patch_45">
     <path d="M 429.069558 168.360343 
L 436.923007 156.331813 
Q 438.071067 154.573417 436.312671 153.425356 
L 430.640011 149.721667 
Q 428.881614 148.573606 427.733554 150.332003 
L 419.880105 162.360533 
Q 418.732045 164.11893 420.490441 165.26699 
L 426.163101 168.97068 
Q 427.921498 170.11874 429.069558 168.360343 
z
" clip-path="url(#p1764f9dd46)" style="fill: #ffffff; stroke: #ffffff; stroke-linejoin: miter"/>
    </g>
    <g clip-path="url(#p1764f9dd46)">
     <!-- true -->
     <g transform="translate(426.09219 166.416414) rotate(-56.859409) scale(0.07 -0.07)">
      <use xlink:href="#DejaVuSans-74"/>
      <use xlink:href="#DejaVuSans-72" transform="translate(39.208984 0)"/>
      <use xlink:href="#DejaVuSans-75" transform="translate(80.322266 0)"/>
      <use xlink:href="#DejaVuSans-65" transform="translate(143.701172 0)"/>
     </g>
    </g>
   </g>
   <g id="text_13">
    <g id="patch_46">
     <path d="M 484.885685 264.033767 
L 501.470852 265.528017 
Q 503.562381 265.716454 503.750818 263.624925 
L 504.358725 256.877567 
Q 504.547162 254.786039 502.455634 254.597602 
L 485.870467 253.103352 
Q 483.778938 252.914915 483.590501 255.006443 
L 482.982594 261.753801 
Q 482.794157 263.84533 484.885685 264.033767 
z
" clip-path="url(#p1764f9dd46)" style="fill: #ffffff; stroke: #ffffff; stroke-linejoin: miter"/>
    </g>
    <g clip-path="url(#p1764f9dd46)">
     <!-- false -->
     <g transform="translate(485.204753 260.49233) rotate(-354.851806) scale(0.07 -0.07)">
      <use xlink:href="#DejaVuSans-66"/>
      <use xlink:href="#DejaVuSans-61" transform="translate(35.205078 0)"/>
      <use xlink:href="#DejaVuSans-6c" transform="translate(96.484375 0)"/>
      <use xlink:href="#DejaVuSans-73" transform="translate(124.267578 0)"/>
      <use xlink:href="#DejaVuSans-65" transform="translate(176.367188 0)"/>
     </g>
    </g>
   </g>
   <g id="PathCollection_1">
    <defs>
     <path id="C0_0_9bca9b977f" d="M 0 22.36068 
C 5.930122 22.36068 11.618159 20.004617 15.811388 15.811388 
C 20.004617 11.618159 22.36068 5.930122 22.36068 -0 
C 22.36068 -5.930122 20.004617 -11.618159 15.811388 -15.811388 
C 11.618159 -20.004617 5.930122 -22.36068 0 -22.36068 
C -5.930122 -22.36068 -11.618159 -20.004617 -15.811388 -15.811388 
C -20.004617 -11.618159 -22.36068 -5.930122 -22.36068 0 
C -22.36068 5.930122 -20.004617 11.618159 -15.811388 15.811388 
C -11.618159 20.004617 -5.930122 22.36068 0 22.36068 
z
"/>
    </defs>
    <g clip-path="url(#p1764f9dd46)">
     <use xlink:href="#C0_0_9bca9b977f" x="138.317355" y="448.141945" style="fill: #e8f5e9; stroke: #e8f5e9"/>
    </g>
    <g clip-path="url(#p1764f9dd46)">
     <use xlink:href="#C0_0_9bca9b977f" x="123.813223" y="492.571697" style="fill: #fff3e0; stroke: #fff3e0"/>
    </g>
    <g clip-path="url(#p1764f9dd46)">
     <use xlink:href="#C0_0_9bca9b977f" x="138.317355" y="470.356821" style="fill: #e3f2fd; stroke: #e3f2fd"/>
    </g>
    <g clip-path="url(#p1764f9dd46)">
     <use xlink:href="#C0_0_9bca9b977f" x="80.300826" y="514.786573" style="fill: #e8f5e9; stroke: #e8f5e9"/>
    </g>
    <g clip-path="url(#p1764f9dd46)">
     <use xlink:href="#C0_0_9bca9b977f" x="776.499174" y="514.786573" style="fill: #fff3e0; stroke: #fff3e0"/>
    </g>
    <g clip-path="url(#p1764f9dd46)">
     <use xlink:href="#C0_0_9bca9b977f" x="138.317355" y="425.927069" style="fill: #ffebee; stroke: #ffebee"/>
    </g>
    <g clip-path="url(#p1764f9dd46)">
     <use xlink:href="#C0_0_9bca9b977f" x="689.47438" y="381.497317" style="fill: #e8f5e9; stroke: #e8f5e9"/>
    </g>
    <g clip-path="url(#p1764f9dd46)">
     <use xlink:href="#C0_0_9bca9b977f" x="674.970248" y="359.282441" style="fill: #ffebee; stroke: #ffebee"/>
    </g>
    <g clip-path="url(#p1764f9dd46)">
     <use xlink:href="#C0_0_9bca9b977f" x="660.466116" y="337.067565" style="fill: #e8f5e9; stroke: #e8f5e9"/>
    </g>
    <g clip-path="url(#p1764f9dd46)">
     <use xlink:href="#C0_0_9bca9b977f" x="645.961983" y="314.852689" style="fill: #fff3e0; stroke: #fff3e0"/>
    </g>
    <g clip-path="url(#p1764f9dd46)">
     <use xlink:href="#C0_0_9bca9b977f" x="152.821488" y="403.712193" style="fill: #e8f5e9; stroke: #e8f5e9"/>
    </g>
    <g clip-path="url(#p1764f9dd46)">
     <use xlink:href="#C0_0_9bca9b977f" x="312.366942" y="159.348556" style="fill: #fff3e0; stroke: #fff3e0"/>
    </g>
    <g clip-path="url(#p1764f9dd46)">
     <use xlink:href="#C0_0_9bca9b977f" x="268.854545" y="248.20806" style="fill: #e3f2fd; stroke: #e3f2fd"/>
    </g>
    <g clip-path="url(#p1764f9dd46)">
     <use xlink:href="#C0_0_9bca9b977f" x="283.358678" y="270.422936" style="fill: #ffebee; stroke: #ffebee"/>
    </g>
    <g clip-path="url(#p1764f9dd46)">
     <use xlink:href="#C0_0_9bca9b977f" x="297.86281" y="292.637812" style="fill: #fff3e0; stroke: #fff3e0"/>
    </g>
    <g clip-path="url(#p1764f9dd46)">
     <use xlink:href="#C0_0_9bca9b977f" x="355.879339" y="225.993184" style="fill: #e8f5e9; stroke: #e8f5e9"/>
    </g>
    <g clip-path="url(#p1764f9dd46)">
     <use xlink:href="#C0_0_9bca9b977f" x="370.383471" y="248.20806" style="fill: #fff3e0; stroke: #fff3e0"/>
    </g>
    <g clip-path="url(#p1764f9dd46)">
     <use xlink:href="#C0_0_9bca9b977f" x="616.953719" y="270.422936" style="fill: #e8f5e9; stroke: #e8f5e9"/>
    </g>
    <g clip-path="url(#p1764f9dd46)">
     <use xlink:href="#C0_0_9bca9b977f" x="587.945455" y="225.993184" style="fill: #e8f5e9; stroke: #e8f5e9"/>
    </g>
    <g clip-path="url(#p1764f9dd46)">
     <use xlink:href="#C0_0_9bca9b977f" x="573.441322" y="203.778308" style="fill: #e3f2fd; stroke: #e3f2fd"/>
    </g>
    <g clip-path="url(#p1764f9dd46)">
     <use xlink:href="#C0_0_9bca9b977f" x="558.93719" y="181.563432" style="fill: #eceff1; stroke: #eceff1"/>
    </g>
    <g clip-path="url(#p1764f9dd46)">
     <use xlink:href="#C0_0_9bca9b977f" x="486.416529" y="70.489052" style="fill: #f3e5f5; stroke: #f3e5f5"/>
    </g>
    <g clip-path="url(#p1764f9dd46)">
     <use xlink:href="#C0_0_9bca9b977f" x="529.928926" y="159.348556" style="fill: #e8f5e9; stroke: #e8f5e9"/>
    </g>
    <g clip-path="url(#p1764f9dd46)">
     <use xlink:href="#C0_0_9bca9b977f" x="486.416529" y="137.13368" style="fill: #e8f5e9; stroke: #e8f5e9"/>
    </g>
    <g clip-path="url(#p1764f9dd46)">
     <use xlink:href="#C0_0_9bca9b977f" x="486.416529" y="114.918804" style="fill: #e3f2fd; stroke: #e3f2fd"/>
    </g>
    <g clip-path="url(#p1764f9dd46)">
     <use xlink:href="#C0_0_9bca9b977f" x="486.416529" y="92.703928" style="fill: #eceff1; stroke: #eceff1"/>
    </g>
   </g>
   <g id="text_14">
    <g clip-path="url(#p1764f9dd46)">
     <!-- validate_config -->
     <g transform="translate(108.01548 450.238195) scale(0.08 -0.08)">
      <defs>
       <path id="DejaVuSans-76" d="M 191 3500 
L 800 3500 
L 1894 563 
L 2988 3500 
L 3597 3500 
L 2284 0 
L 1503 0 
L 191 3500 
z
" transform="scale(0.015625)"/>
       <path id="DejaVuSans-64" d="M 2906 2969 
L 2906 4863 
L 3481 4863 
L 3481 0 
L 2906 0 
L 2906 525 
Q 2725 213 2448 61 
Q 2172 -91 1784 -91 
Q 1150 -91 751 415 
Q 353 922 353 1747 
Q 353 2572 751 3078 
Q 1150 3584 1784 3584 
Q 2172 3584 2448 3432 
Q 2725 3281 2906 2969 
z
M 947 1747 
Q 947 1113 1208 752 
Q 1469 391 1925 391 
Q 2381 391 2643 752 
Q 2906 1113 2906 1747 
Q 2906 2381 2643 2742 
Q 2381 3103 1925 3103 
Q 1469 3103 1208 2742 
Q 947 2381 947 1747 
z
" transform="scale(0.015625)"/>
       <path id="DejaVuSans-5f" d="M 3263 -1063 
L 3263 -1509 
L -63 -1509 
L -63 -1063 
L 3263 -1063 
z
" transform="scale(0.015625)"/>
       <path id="DejaVuSans-67" d="M 2906 1791 
Q 2906 2416 2648 2759 
Q 2391 3103 1925 3103 
Q 1463 3103 1205 2759 
Q 947 2416 947 1791 
Q 947 1169 1205 825 
Q 1463 481 1925 481 
Q 2391 481 2648 825 
Q 2906 1169 2906 1791 
z
M 3481 434 
Q 3481 -459 3084 -895 
Q 2688 -1331 1869 -1331 
Q 1566 -1331 1297 -1286 
Q 1028 -1241 775 -1147 
L 775 -588 
Q 1028 -725 1275 -790 
Q 1522 -856 1778 -856 
Q 2344 -856 2625 -561 
Q 2906 -266 2906 331 
L 2906 616 
Q 2728 306 2450 153 
Q 2172 0 1784 0 
Q 1141 0 747 490 
Q 353 981 353 1791 
Q 353 2603 747 3093 
Q 1141 3584 1784 3584 
Q 2172 3584 2450 3431 
Q 2728 3278 2906 2969 
L 2906 3500 
L 3481 3500 
L 3481 434 
z
" transform="scale(0.015625)"/>
      </defs>
      <use xlink:href="#DejaVuSans-76"/>
      <use xlink:href="#DejaVuSans-61" transform="translate(59.179688 0)"/>
      <use xlink:href="#DejaVuSans-6c" transform="translate(120.458984 0)"/>
      <use xlink:href="#DejaVuSans-69" transform="translate(148.242188 0)"/>
      <use xlink:href="#DejaVuSans-64" transform="translate(176.025391 0)"/>
      <use xlink:href="#DejaVuSans-61" transform="translate(239.501953 0)"/>
      <use xlink:href="#DejaVuSans-74" transform="translate(300.78125 0)"/>
      <use xlink:href="#DejaVuSans-65" transform="translate(339.990234 0)"/>
      <use xlink:href="#DejaVuSans-5f" transform="translate(401.513672 0)"/>
      <use xlink:href="#DejaVuSans-63" transform="translate(451.513672 0)"/>
      <use xlink:href="#DejaVuSans-6f" transform="translate(506.494141 0)"/>
      <use xlink:href="#DejaVuSans-6e" transform="translate(567.675781 0)"/>
      <use xlink:href="#DejaVuSans-66" transform="translate(631.054688 0)"/>
      <use xlink:href="#DejaVuSans-69" transform="translate(666.259766 0)"/>
      <use xlink:href="#DejaVuSans-67" transform="translate(694.042969 0)"/>
     </g>
    </g>
   </g>
   <g id="text_15">
    <g clip-path="url(#p1764f9dd46)">
     <!-- check_config -->
     <g transform="translate(97.861348 494.667947) scale(0.08 -0.08)">
      <defs>
       <path id="DejaVuSans-68" d="M 3513 2113 
L 3513 0 
L 2938 0 
L 2938 2094 
Q 2938 2591 2744 2837 
Q 2550 3084 2163 3084 
Q 1697 3084 1428 2787 
Q 1159 2491 1159 1978 
L 1159 0 
L 581 0 
L 581 4863 
L 1159 4863 
L 1159 2956 
Q 1366 3272 1645 3428 
Q 1925 3584 2291 3584 
Q 2894 3584 3203 3211 
Q 3513 2838 3513 2113 
z
" transform="scale(0.015625)"/>
      </defs>
      <use xlink:href="#DejaVuSans-63"/>
      <use xlink:href="#DejaVuSans-68" transform="translate(54.980469 0)"/>
      <use xlink:href="#DejaVuSans-65" transform="translate(118.359375 0)"/>
      <use xlink:href="#DejaVuSans-63" transform="translate(179.882812 0)"/>
      <use xlink:href="#DejaVuSans-6b" transform="translate(234.863281 0)"/>
      <use xlink:href="#DejaVuSans-5f" transform="translate(292.773438 0)"/>
      <use xlink:href="#DejaVuSans-63" transform="translate(342.773438 0)"/>
      <use xlink:href="#DejaVuSans-6f" transform="translate(397.753906 0)"/>
      <use xlink:href="#DejaVuSans-6e" transform="translate(458.935547 0)"/>
      <use xlink:href="#DejaVuSans-66" transform="translate(522.314453 0)"/>
      <use xlink:href="#DejaVuSans-69" transform="translate(557.519531 0)"/>
      <use xlink:href="#DejaVuSans-67" transform="translate(585.302734 0)"/>
     </g>
    </g>
   </g>
   <g id="text_16">
    <g clip-path="url(#p1764f9dd46)">
     <!-- fix_config -->
     <g transform="translate(119.189855 472.453071) scale(0.08 -0.08)">
      <defs>
       <path id="DejaVuSans-78" d="M 3513 3500 
L 2247 1797 
L 3578 0 
L 2900 0 
L 1881 1375 
L 863 0 
L 184 0 
L 1544 1831 
L 300 3500 
L 978 3500 
L 1906 2253 
L 2834 3500 
L 3513 3500 
z
" transform="scale(0.015625)"/>
      </defs>
      <use xlink:href="#DejaVuSans-66"/>
      <use xlink:href="#DejaVuSans-69" transform="translate(35.205078 0)"/>
      <use xlink:href="#DejaVuSans-78" transform="translate(62.988281 0)"/>
      <use xlink:href="#DejaVuSans-5f" transform="translate(122.167969 0)"/>
      <use xlink:href="#DejaVuSans-63" transform="translate(172.167969 0)"/>
      <use xlink:href="#DejaVuSans-6f" transform="translate(227.148438 0)"/>
      <use xlink:href="#DejaVuSans-6e" transform="translate(288.330078 0)"/>
      <use xlink:href="#DejaVuSans-66" transform="translate(351.708984 0)"/>
      <use xlink:href="#DejaVuSans-69" transform="translate(386.914062 0)"/>
      <use xlink:href="#DejaVuSans-67" transform="translate(414.697266 0)"/>
     </g>
    </g>
   </g>
   <g id="text_17">
    <g clip-path="url(#p1764f9dd46)">
     <!-- check_dependencies -->
     <g transform="translate(38.662076 516.882823) scale(0.08 -0.08)">
      <defs>
       <path id="DejaVuSans-70" d="M 1159 525 
L 1159 -1331 
L 581 -1331 
L 581 3500 
L 1159 3500 
L 1159 2969 
Q 1341 3281 1617 3432 
Q 1894 3584 2278 3584 
Q 2916 3584 3314 3078 
Q 3713 2572 3713 1747 
Q 3713 922 3314 415 
Q 2916 -91 2278 -91 
Q 1894 -91 1617 61 
Q 1341 213 1159 525 
z
M 3116 1747 
Q 3116 2381 2855 2742 
Q 2594 3103 2138 3103 
Q 1681 3103 1420 2742 
Q 1159 2381 1159 1747 
Q 1159 1113 1420 752 
Q 1681 391 2138 391 
Q 2594 391 2855 752 
Q 3116 1113 3116 1747 
z
" transform="scale(0.015625)"/>
      </defs>
      <use xlink:href="#DejaVuSans-63"/>
      <use xlink:href="#DejaVuSans-68" transform="translate(54.980469 0)"/>
      <use xlink:href="#DejaVuSans-65" transform="translate(118.359375 0)"/>
      <use xlink:href="#DejaVuSans-63" transform="translate(179.882812 0)"/>
      <use xlink:href="#DejaVuSans-6b" transform="translate(234.863281 0)"/>
      <use xlink:href="#DejaVuSans-5f" transform="translate(292.773438 0)"/>
      <use xlink:href="#DejaVuSans-64" transform="translate(342.773438 0)"/>
      <use xlink:href="#DejaVuSans-65" transform="translate(406.25 0)"/>
      <use xlink:href="#DejaVuSans-70" transform="translate(467.773438 0)"/>
      <use xlink:href="#DejaVuSans-65" transform="translate(531.25 0)"/>
      <use xlink:href="#DejaVuSans-6e" transform="translate(592.773438 0)"/>
      <use xlink:href="#DejaVuSans-64" transform="translate(656.152344 0)"/>
      <use xlink:href="#DejaVuSans-65" transform="translate(719.628906 0)"/>
      <use xlink:href="#DejaVuSans-6e" transform="translate(781.152344 0)"/>
      <use xlink:href="#DejaVuSans-63" transform="translate(844.53125 0)"/>
      <use xlink:href="#DejaVuSans-69" transform="translate(899.511719 0)"/>
      <use xlink:href="#DejaVuSans-65" transform="translate(927.294922 0)"/>
      <use xlink:href="#DejaVuSans-73" transform="translate(988.818359 0)"/>
     </g>
    </g>
   </g>
   <g id="text_18">
    <g clip-path="url(#p1764f9dd46)">
     <!-- verify_dependencies -->
     <g transform="translate(735.281674 516.882823) scale(0.08 -0.08)">
      <use xlink:href="#DejaVuSans-76"/>
      <use xlink:href="#DejaVuSans-65" transform="translate(59.179688 0)"/>
      <use xlink:href="#DejaVuSans-72" transform="translate(120.703125 0)"/>
      <use xlink:href="#DejaVuSans-69" transform="translate(161.816406 0)"/>
      <use xlink:href="#DejaVuSans-66" transform="translate(189.599609 0)"/>
      <use xlink:href="#DejaVuSans-79" transform="translate(223.054688 0)"/>
      <use xlink:href="#DejaVuSans-5f" transform="translate(282.234375 0)"/>
      <use xlink:href="#DejaVuSans-64" transform="translate(332.234375 0)"/>
      <use xlink:href="#DejaVuSans-65" transform="translate(395.710938 0)"/>
      <use xlink:href="#DejaVuSans-70" transform="translate(457.234375 0)"/>
      <use xlink:href="#DejaVuSans-65" transform="translate(520.710938 0)"/>
      <use xlink:href="#DejaVuSans-6e" transform="translate(582.234375 0)"/>
      <use xlink:href="#DejaVuSans-64" transform="translate(645.613281 0)"/>
      <use xlink:href="#DejaVuSans-65" transform="translate(709.089844 0)"/>
      <use xlink:href="#DejaVuSans-6e" transform="translate(770.613281 0)"/>
      <use xlink:href="#DejaVuSans-63" transform="translate(833.992188 0)"/>
      <use xlink:href="#DejaVuSans-69" transform="translate(888.972656 0)"/>
      <use xlink:href="#DejaVuSans-65" transform="translate(916.755859 0)"/>
      <use xlink:href="#DejaVuSans-73" transform="translate(978.279297 0)"/>
     </g>
    </g>
   </g>
   <g id="text_19">
    <g clip-path="url(#p1764f9dd46)">
     <!-- resolve_dependencies -->
     <g transform="translate(93.90298 428.023319) scale(0.08 -0.08)">
      <use xlink:href="#DejaVuSans-72"/>
      <use xlink:href="#DejaVuSans-65" transform="translate(38.863281 0)"/>
      <use xlink:href="#DejaVuSans-73" transform="translate(100.386719 0)"/>
      <use xlink:href="#DejaVuSans-6f" transform="translate(152.486328 0)"/>
      <use xlink:href="#DejaVuSans-6c" transform="translate(213.667969 0)"/>
      <use xlink:href="#DejaVuSans-76" transform="translate(241.451172 0)"/>
      <use xlink:href="#DejaVuSans-65" transform="translate(300.630859 0)"/>
      <use xlink:href="#DejaVuSans-5f" transform="translate(362.154297 0)"/>
      <use xlink:href="#DejaVuSans-64" transform="translate(412.154297 0)"/>
      <use xlink:href="#DejaVuSans-65" transform="translate(475.630859 0)"/>
      <use xlink:href="#DejaVuSans-70" transform="translate(537.154297 0)"/>
      <use xlink:href="#DejaVuSans-65" transform="translate(600.630859 0)"/>
      <use xlink:href="#DejaVuSans-6e" transform="translate(662.154297 0)"/>
      <use xlink:href="#DejaVuSans-64" transform="translate(725.533203 0)"/>
      <use xlink:href="#DejaVuSans-65" transform="translate(789.009766 0)"/>
      <use xlink:href="#DejaVuSans-6e" transform="translate(850.533203 0)"/>
      <use xlink:href="#DejaVuSans-63" transform="translate(913.912109 0)"/>
      <use xlink:href="#DejaVuSans-69" transform="translate(968.892578 0)"/>
      <use xlink:href="#DejaVuSans-65" transform="translate(996.675781 0)"/>
      <use xlink:href="#DejaVuSans-73" transform="translate(1058.199219 0)"/>
     </g>
    </g>
   </g>
   <g id="text_20">
    <g clip-path="url(#p1764f9dd46)">
     <!-- backup_current -->
     <g transform="translate(658.591255 383.593567) scale(0.08 -0.08)">
      <use xlink:href="#DejaVuSans-62"/>
      <use xlink:href="#DejaVuSans-61" transform="translate(63.476562 0)"/>
      <use xlink:href="#DejaVuSans-63" transform="translate(124.755859 0)"/>
      <use xlink:href="#DejaVuSans-6b" transform="translate(179.736328 0)"/>
      <use xlink:href="#DejaVuSans-75" transform="translate(234.521484 0)"/>
      <use xlink:href="#DejaVuSans-70" transform="translate(297.900391 0)"/>
      <use xlink:href="#DejaVuSans-5f" transform="translate(361.376953 0)"/>
      <use xlink:href="#DejaVuSans-63" transform="translate(411.376953 0)"/>
      <use xlink:href="#DejaVuSans-75" transform="translate(466.357422 0)"/>
      <use xlink:href="#DejaVuSans-72" transform="translate(529.736328 0)"/>
      <use xlink:href="#DejaVuSans-72" transform="translate(569.099609 0)"/>
      <use xlink:href="#DejaVuSans-65" transform="translate(607.962891 0)"/>
      <use xlink:href="#DejaVuSans-6e" transform="translate(669.486328 0)"/>
      <use xlink:href="#DejaVuSans-74" transform="translate(732.865234 0)"/>
     </g>
    </g>
   </g>
   <g id="text_21">
    <g clip-path="url(#p1764f9dd46)">
     <!-- approval_gate -->
     <g transform="translate(646.488373 361.378691) scale(0.08 -0.08)">
      <use xlink:href="#DejaVuSans-61"/>
      <use xlink:href="#DejaVuSans-70" transform="translate(61.279297 0)"/>
      <use xlink:href="#DejaVuSans-70" transform="translate(124.755859 0)"/>
      <use xlink:href="#DejaVuSans-72" transform="translate(188.232422 0)"/>
      <use xlink:href="#DejaVuSans-6f" transform="translate(227.095703 0)"/>
      <use xlink:href="#DejaVuSans-76" transform="translate(288.277344 0)"/>
      <use xlink:href="#DejaVuSans-61" transform="translate(347.457031 0)"/>
      <use xlink:href="#DejaVuSans-6c" transform="translate(408.736328 0)"/>
      <use xlink:href="#DejaVuSans-5f" transform="translate(436.519531 0)"/>
      <use xlink:href="#DejaVuSans-67" transform="translate(486.519531 0)"/>
      <use xlink:href="#DejaVuSans-61" transform="translate(549.996094 0)"/>
      <use xlink:href="#DejaVuSans-74" transform="translate(611.275391 0)"/>
      <use xlink:href="#DejaVuSans-65" transform="translate(650.484375 0)"/>
     </g>
    </g>
   </g>
   <g id="text_22">
    <g clip-path="url(#p1764f9dd46)">
     <!-- deploy -->
     <g transform="translate(646.999866 339.275065) scale(0.08 -0.08)">
      <use xlink:href="#DejaVuSans-64"/>
      <use xlink:href="#DejaVuSans-65" transform="translate(63.476562 0)"/>
      <use xlink:href="#DejaVuSans-70" transform="translate(125 0)"/>
      <use xlink:href="#DejaVuSans-6c" transform="translate(188.476562 0)"/>
      <use xlink:href="#DejaVuSans-6f" transform="translate(216.259766 0)"/>
      <use xlink:href="#DejaVuSans-79" transform="translate(277.441406 0)"/>
     </g>
    </g>
   </g>
   <g id="text_23">
    <g clip-path="url(#p1764f9dd46)">
     <!-- check_deploy -->
     <g transform="translate(618.784483 316.948939) scale(0.08 -0.08)">
      <use xlink:href="#DejaVuSans-63"/>
      <use xlink:href="#DejaVuSans-68" transform="translate(54.980469 0)"/>
      <use xlink:href="#DejaVuSans-65" transform="translate(118.359375 0)"/>
      <use xlink:href="#DejaVuSans-63" transform="translate(179.882812 0)"/>
      <use xlink:href="#DejaVuSans-6b" transform="translate(234.863281 0)"/>
      <use xlink:href="#DejaVuSans-5f" transform="translate(292.773438 0)"/>
      <use xlink:href="#DejaVuSans-64" transform="translate(342.773438 0)"/>
      <use xlink:href="#DejaVuSans-65" transform="translate(406.25 0)"/>
      <use xlink:href="#DejaVuSans-70" transform="translate(467.773438 0)"/>
      <use xlink:href="#DejaVuSans-6c" transform="translate(531.25 0)"/>
      <use xlink:href="#DejaVuSans-6f" transform="translate(559.033203 0)"/>
      <use xlink:href="#DejaVuSans-79" transform="translate(620.214844 0)"/>
     </g>
    </g>
   </g>
   <g id="text_24">
    <g clip-path="url(#p1764f9dd46)">
     <!-- health_check -->
     <g transform="translate(126.448363 405.808443) scale(0.08 -0.08)">
      <use xlink:href="#DejaVuSans-68"/>
      <use xlink:href="#DejaVuSans-65" transform="translate(63.378906 0)"/>
      <use xlink:href="#DejaVuSans-61" transform="translate(124.902344 0)"/>
      <use xlink:href="#DejaVuSans-6c" transform="translate(186.181641 0)"/>
      <use xlink:href="#DejaVuSans-74" transform="translate(213.964844 0)"/>
      <use xlink:href="#DejaVuSans-68" transform="translate(253.173828 0)"/>
      <use xlink:href="#DejaVuSans-5f" transform="translate(316.552734 0)"/>
      <use xlink:href="#DejaVuSans-63" transform="translate(366.552734 0)"/>
      <use xlink:href="#DejaVuSans-68" transform="translate(421.533203 0)"/>
      <use xlink:href="#DejaVuSans-65" transform="translate(484.912109 0)"/>
      <use xlink:href="#DejaVuSans-63" transform="translate(546.435547 0)"/>
      <use xlink:href="#DejaVuSans-6b" transform="translate(601.416016 0)"/>
     </g>
    </g>
   </g>
   <g id="text_25">
    <g clip-path="url(#p1764f9dd46)">
     <!-- verify_health -->
     <g transform="translate(286.415067 161.444806) scale(0.08 -0.08)">
      <use xlink:href="#DejaVuSans-76"/>
      <use xlink:href="#DejaVuSans-65" transform="translate(59.179688 0)"/>
      <use xlink:href="#DejaVuSans-72" transform="translate(120.703125 0)"/>
      <use xlink:href="#DejaVuSans-69" transform="translate(161.816406 0)"/>
      <use xlink:href="#DejaVuSans-66" transform="translate(189.599609 0)"/>
      <use xlink:href="#DejaVuSans-79" transform="translate(223.054688 0)"/>
      <use xlink:href="#DejaVuSans-5f" transform="translate(282.234375 0)"/>
      <use xlink:href="#DejaVuSans-68" transform="translate(332.234375 0)"/>
      <use xlink:href="#DejaVuSans-65" transform="translate(395.613281 0)"/>
      <use xlink:href="#DejaVuSans-61" transform="translate(457.136719 0)"/>
      <use xlink:href="#DejaVuSans-6c" transform="translate(518.416016 0)"/>
      <use xlink:href="#DejaVuSans-74" transform="translate(546.199219 0)"/>
      <use xlink:href="#DejaVuSans-68" transform="translate(585.408203 0)"/>
     </g>
    </g>
   </g>
   <g id="text_26">
    <g clip-path="url(#p1764f9dd46)">
     <!-- investigate_health -->
     <g transform="translate(231.934545 250.30431) scale(0.08 -0.08)">
      <use xlink:href="#DejaVuSans-69"/>
      <use xlink:href="#DejaVuSans-6e" transform="translate(27.783203 0)"/>
      <use xlink:href="#DejaVuSans-76" transform="translate(91.162109 0)"/>
      <use xlink:href="#DejaVuSans-65" transform="translate(150.341797 0)"/>
      <use xlink:href="#DejaVuSans-73" transform="translate(211.865234 0)"/>
      <use xlink:href="#DejaVuSans-74" transform="translate(263.964844 0)"/>
      <use xlink:href="#DejaVuSans-69" transform="translate(303.173828 0)"/>
      <use xlink:href="#DejaVuSans-67" transform="translate(330.957031 0)"/>
      <use xlink:href="#DejaVuSans-61" transform="translate(394.433594 0)"/>
      <use xlink:href="#DejaVuSans-74" transform="translate(455.712891 0)"/>
      <use xlink:href="#DejaVuSans-65" transform="translate(494.921875 0)"/>
      <use xlink:href="#DejaVuSans-5f" transform="translate(556.445312 0)"/>
      <use xlink:href="#DejaVuSans-68" transform="translate(606.445312 0)"/>
      <use xlink:href="#DejaVuSans-65" transform="translate(669.824219 0)"/>
      <use xlink:href="#DejaVuSans-61" transform="translate(731.347656 0)"/>
      <use xlink:href="#DejaVuSans-6c" transform="translate(792.626953 0)"/>
      <use xlink:href="#DejaVuSans-74" transform="translate(820.410156 0)"/>
      <use xlink:href="#DejaVuSans-68" transform="translate(859.619141 0)"/>
     </g>
    </g>
   </g>
   <g id="text_27">
    <g clip-path="url(#p1764f9dd46)">
     <!-- health_decision -->
     <g transform="translate(252.208053 272.519186) scale(0.08 -0.08)">
      <use xlink:href="#DejaVuSans-68"/>
      <use xlink:href="#DejaVuSans-65" transform="translate(63.378906 0)"/>
      <use xlink:href="#DejaVuSans-61" transform="translate(124.902344 0)"/>
      <use xlink:href="#DejaVuSans-6c" transform="translate(186.181641 0)"/>
      <use xlink:href="#DejaVuSans-74" transform="translate(213.964844 0)"/>
      <use xlink:href="#DejaVuSans-68" transform="translate(253.173828 0)"/>
      <use xlink:href="#DejaVuSans-5f" transform="translate(316.552734 0)"/>
      <use xlink:href="#DejaVuSans-64" transform="translate(366.552734 0)"/>
      <use xlink:href="#DejaVuSans-65" transform="translate(430.029297 0)"/>
      <use xlink:href="#DejaVuSans-63" transform="translate(491.552734 0)"/>
      <use xlink:href="#DejaVuSans-69" transform="translate(546.533203 0)"/>
      <use xlink:href="#DejaVuSans-73" transform="translate(574.316406 0)"/>
      <use xlink:href="#DejaVuSans-69" transform="translate(626.416016 0)"/>
      <use xlink:href="#DejaVuSans-6f" transform="translate(654.199219 0)"/>
      <use xlink:href="#DejaVuSans-6e" transform="translate(715.380859 0)"/>
     </g>
    </g>
   </g>
   <g id="text_28">
    <g clip-path="url(#p1764f9dd46)">
     <!-- handle_health_decision -->
     <g transform="translate(251.07906 294.734062) scale(0.08 -0.08)">
      <use xlink:href="#DejaVuSans-68"/>
      <use xlink:href="#DejaVuSans-61" transform="translate(63.378906 0)"/>
      <use xlink:href="#DejaVuSans-6e" transform="translate(124.658203 0)"/>
      <use xlink:href="#DejaVuSans-64" transform="translate(188.037109 0)"/>
      <use xlink:href="#DejaVuSans-6c" transform="translate(251.513672 0)"/>
      <use xlink:href="#DejaVuSans-65" transform="translate(279.296875 0)"/>
      <use xlink:href="#DejaVuSans-5f" transform="translate(340.820312 0)"/>
      <use xlink:href="#DejaVuSans-68" transform="translate(390.820312 0)"/>
      <use xlink:href="#DejaVuSans-65" transform="translate(454.199219 0)"/>
      <use xlink:href="#DejaVuSans-61" transform="translate(515.722656 0)"/>
      <use xlink:href="#DejaVuSans-6c" transform="translate(577.001953 0)"/>
      <use xlink:href="#DejaVuSans-74" transform="translate(604.785156 0)"/>
      <use xlink:href="#DejaVuSans-68" transform="translate(643.994141 0)"/>
      <use xlink:href="#DejaVuSans-5f" transform="translate(707.373047 0)"/>
      <use xlink:href="#DejaVuSans-64" transform="translate(757.373047 0)"/>
      <use xlink:href="#DejaVuSans-65" transform="translate(820.849609 0)"/>
      <use xlink:href="#DejaVuSans-63" transform="translate(882.373047 0)"/>
      <use xlink:href="#DejaVuSans-69" transform="translate(937.353516 0)"/>
      <use xlink:href="#DejaVuSans-73" transform="translate(965.136719 0)"/>
      <use xlink:href="#DejaVuSans-69" transform="translate(1017.236328 0)"/>
      <use xlink:href="#DejaVuSans-6f" transform="translate(1045.019531 0)"/>
      <use xlink:href="#DejaVuSans-6e" transform="translate(1106.201172 0)"/>
     </g>
    </g>
   </g>
   <g id="text_29">
    <g clip-path="url(#p1764f9dd46)">
     <!-- smoke_tests -->
     <g transform="translate(331.054339 228.089434) scale(0.08 -0.08)">
      <defs>
       <path id="DejaVuSans-6d" d="M 3328 2828 
Q 3544 3216 3844 3400 
Q 4144 3584 4550 3584 
Q 5097 3584 5394 3201 
Q 5691 2819 5691 2113 
L 5691 0 
L 5113 0 
L 5113 2094 
Q 5113 2597 4934 2840 
Q 4756 3084 4391 3084 
Q 3944 3084 3684 2787 
Q 3425 2491 3425 1978 
L 3425 0 
L 2847 0 
L 2847 2094 
Q 2847 2600 2669 2842 
Q 2491 3084 2119 3084 
Q 1678 3084 1418 2786 
Q 1159 2488 1159 1978 
L 1159 0 
L 581 0 
L 581 3500 
L 1159 3500 
L 1159 2956 
Q 1356 3278 1631 3431 
Q 1906 3584 2284 3584 
Q 2666 3584 2933 3390 
Q 3200 3197 3328 2828 
z
" transform="scale(0.015625)"/>
      </defs>
      <use xlink:href="#DejaVuSans-73"/>
      <use xlink:href="#DejaVuSans-6d" transform="translate(52.099609 0)"/>
      <use xlink:href="#DejaVuSans-6f" transform="translate(149.511719 0)"/>
      <use xlink:href="#DejaVuSans-6b" transform="translate(210.693359 0)"/>
      <use xlink:href="#DejaVuSans-65" transform="translate(264.978516 0)"/>
      <use xlink:href="#DejaVuSans-5f" transform="translate(326.501953 0)"/>
      <use xlink:href="#DejaVuSans-74" transform="translate(376.501953 0)"/>
      <use xlink:href="#DejaVuSans-65" transform="translate(415.710938 0)"/>
      <use xlink:href="#DejaVuSans-73" transform="translate(477.234375 0)"/>
      <use xlink:href="#DejaVuSans-74" transform="translate(529.333984 0)"/>
      <use xlink:href="#DejaVuSans-73" transform="translate(568.542969 0)"/>
     </g>
    </g>
   </g>
   <g id="text_30">
    <g clip-path="url(#p1764f9dd46)">
     <!-- verify_smoke -->
     <g transform="translate(344.033471 250.30431) scale(0.08 -0.08)">
      <use xlink:href="#DejaVuSans-76"/>
      <use xlink:href="#DejaVuSans-65" transform="translate(59.179688 0)"/>
      <use xlink:href="#DejaVuSans-72" transform="translate(120.703125 0)"/>
      <use xlink:href="#DejaVuSans-69" transform="translate(161.816406 0)"/>
      <use xlink:href="#DejaVuSans-66" transform="translate(189.599609 0)"/>
      <use xlink:href="#DejaVuSans-79" transform="translate(223.054688 0)"/>
      <use xlink:href="#DejaVuSans-5f" transform="translate(282.234375 0)"/>
      <use xlink:href="#DejaVuSans-73" transform="translate(332.234375 0)"/>
      <use xlink:href="#DejaVuSans-6d" transform="translate(384.333984 0)"/>
      <use xlink:href="#DejaVuSans-6f" transform="translate(481.746094 0)"/>
      <use xlink:href="#DejaVuSans-6b" transform="translate(542.927734 0)"/>
      <use xlink:href="#DejaVuSans-65" transform="translate(597.212891 0)"/>
     </g>
    </g>
   </g>
   <g id="text_31">
    <g clip-path="url(#p1764f9dd46)">
     <!-- rollback -->
     <g transform="translate(601.223094 272.630436) scale(0.08 -0.08)">
      <use xlink:href="#DejaVuSans-72"/>
      <use xlink:href="#DejaVuSans-6f" transform="translate(38.863281 0)"/>
      <use xlink:href="#DejaVuSans-6c" transform="translate(100.044922 0)"/>
      <use xlink:href="#DejaVuSans-6c" transform="translate(127.828125 0)"/>
      <use xlink:href="#DejaVuSans-62" transform="translate(155.611328 0)"/>
      <use xlink:href="#DejaVuSans-61" transform="translate(219.087891 0)"/>
      <use xlink:href="#DejaVuSans-63" transform="translate(280.367188 0)"/>
      <use xlink:href="#DejaVuSans-6b" transform="translate(335.347656 0)"/>
     </g>
    </g>
   </g>
   <g id="text_32">
    <g clip-path="url(#p1764f9dd46)">
     <!-- verify_rollback -->
     <g transform="translate(558.92483 228.089434) scale(0.08 -0.08)">
      <use xlink:href="#DejaVuSans-76"/>
      <use xlink:href="#DejaVuSans-65" transform="translate(59.179688 0)"/>
      <use xlink:href="#DejaVuSans-72" transform="translate(120.703125 0)"/>
      <use xlink:href="#DejaVuSans-69" transform="translate(161.816406 0)"/>
      <use xlink:href="#DejaVuSans-66" transform="translate(189.599609 0)"/>
      <use xlink:href="#DejaVuSans-79" transform="translate(223.054688 0)"/>
      <use xlink:href="#DejaVuSans-5f" transform="translate(282.234375 0)"/>
      <use xlink:href="#DejaVuSans-72" transform="translate(332.234375 0)"/>
      <use xlink:href="#DejaVuSans-6f" transform="translate(371.097656 0)"/>
      <use xlink:href="#DejaVuSans-6c" transform="translate(432.279297 0)"/>
      <use xlink:href="#DejaVuSans-6c" transform="translate(460.0625 0)"/>
      <use xlink:href="#DejaVuSans-62" transform="translate(487.845703 0)"/>
      <use xlink:href="#DejaVuSans-61" transform="translate(551.322266 0)"/>
      <use xlink:href="#DejaVuSans-63" transform="translate(612.601562 0)"/>
      <use xlink:href="#DejaVuSans-6b" transform="translate(667.582031 0)"/>
     </g>
    </g>
   </g>
   <g id="text_33">
    <g clip-path="url(#p1764f9dd46)">
     <!-- notify_rollback -->
     <g transform="translate(544.343197 205.874558) scale(0.08 -0.08)">
      <use xlink:href="#DejaVuSans-6e"/>
      <use xlink:href="#DejaVuSans-6f" transform="translate(63.378906 0)"/>
      <use xlink:href="#DejaVuSans-74" transform="translate(124.560547 0)"/>
      <use xlink:href="#DejaVuSans-69" transform="translate(163.769531 0)"/>
      <use xlink:href="#DejaVuSans-66" transform="translate(191.552734 0)"/>
      <use xlink:href="#DejaVuSans-79" transform="translate(225.007812 0)"/>
      <use xlink:href="#DejaVuSans-5f" transform="translate(284.1875 0)"/>
      <use xlink:href="#DejaVuSans-72" transform="translate(334.1875 0)"/>
      <use xlink:href="#DejaVuSans-6f" transform="translate(373.050781 0)"/>
      <use xlink:href="#DejaVuSans-6c" transform="translate(434.232422 0)"/>
      <use xlink:href="#DejaVuSans-6c" transform="translate(462.015625 0)"/>
      <use xlink:href="#DejaVuSans-62" transform="translate(489.798828 0)"/>
      <use xlink:href="#DejaVuSans-61" transform="translate(553.275391 0)"/>
      <use xlink:href="#DejaVuSans-63" transform="translate(614.554688 0)"/>
      <use xlink:href="#DejaVuSans-6b" transform="translate(669.535156 0)"/>
     </g>
    </g>
   </g>
   <g id="text_34">
    <g clip-path="url(#p1764f9dd46)">
     <!-- failed -->
     <g transform="translate(547.85469 183.770932) scale(0.08 -0.08)">
      <use xlink:href="#DejaVuSans-66"/>
      <use xlink:href="#DejaVuSans-61" transform="translate(35.205078 0)"/>
      <use xlink:href="#DejaVuSans-69" transform="translate(96.484375 0)"/>
      <use xlink:href="#DejaVuSans-6c" transform="translate(124.267578 0)"/>
      <use xlink:href="#DejaVuSans-65" transform="translate(152.050781 0)"/>
      <use xlink:href="#DejaVuSans-64" transform="translate(213.574219 0)"/>
     </g>
    </g>
   </g>
   <g id="text_35">
    <g clip-path="url(#p1764f9dd46)">
     <!-- complete -->
     <g transform="translate(467.732154 72.696552) scale(0.08 -0.08)">
      <use xlink:href="#DejaVuSans-63"/>
      <use xlink:href="#DejaVuSans-6f" transform="translate(54.980469 0)"/>
      <use xlink:href="#DejaVuSans-6d" transform="translate(116.162109 0)"/>
      <use xlink:href="#DejaVuSans-70" transform="translate(213.574219 0)"/>
      <use xlink:href="#DejaVuSans-6c" transform="translate(277.050781 0)"/>
      <use xlink:href="#DejaVuSans-65" transform="translate(304.833984 0)"/>
      <use xlink:href="#DejaVuSans-74" transform="translate(366.357422 0)"/>
      <use xlink:href="#DejaVuSans-65" transform="translate(405.566406 0)"/>
     </g>
    </g>
   </g>
   <g id="text_36">
    <g clip-path="url(#p1764f9dd46)">
     <!-- update_monitoring -->
     <g transform="translate(491.998926 161.444806) scale(0.08 -0.08)">
      <use xlink:href="#DejaVuSans-75"/>
      <use xlink:href="#DejaVuSans-70" transform="translate(63.378906 0)"/>
      <use xlink:href="#DejaVuSans-64" transform="translate(126.855469 0)"/>
      <use xlink:href="#DejaVuSans-61" transform="translate(190.332031 0)"/>
      <use xlink:href="#DejaVuSans-74" transform="translate(251.611328 0)"/>
      <use xlink:href="#DejaVuSans-65" transform="translate(290.820312 0)"/>
      <use xlink:href="#DejaVuSans-5f" transform="translate(352.34375 0)"/>
      <use xlink:href="#DejaVuSans-6d" transform="translate(402.34375 0)"/>
      <use xlink:href="#DejaVuSans-6f" transform="translate(499.755859 0)"/>
      <use xlink:href="#DejaVuSans-6e" transform="translate(560.9375 0)"/>
      <use xlink:href="#DejaVuSans-69" transform="translate(624.316406 0)"/>
      <use xlink:href="#DejaVuSans-74" transform="translate(652.099609 0)"/>
      <use xlink:href="#DejaVuSans-6f" transform="translate(691.308594 0)"/>
      <use xlink:href="#DejaVuSans-72" transform="translate(752.490234 0)"/>
      <use xlink:href="#DejaVuSans-69" transform="translate(793.603516 0)"/>
      <use xlink:href="#DejaVuSans-6e" transform="translate(821.386719 0)"/>
      <use xlink:href="#DejaVuSans-67" transform="translate(884.765625 0)"/>
     </g>
    </g>
   </g>
   <g id="text_37">
    <g clip-path="url(#p1764f9dd46)">
     <!-- notify_success -->
     <g transform="translate(457.402779 139.22993) scale(0.08 -0.08)">
      <use xlink:href="#DejaVuSans-6e"/>
      <use xlink:href="#DejaVuSans-6f" transform="translate(63.378906 0)"/>
      <use xlink:href="#DejaVuSans-74" transform="translate(124.560547 0)"/>
      <use xlink:href="#DejaVuSans-69" transform="translate(163.769531 0)"/>
      <use xlink:href="#DejaVuSans-66" transform="translate(191.552734 0)"/>
      <use xlink:href="#DejaVuSans-79" transform="translate(225.007812 0)"/>
      <use xlink:href="#DejaVuSans-5f" transform="translate(284.1875 0)"/>
      <use xlink:href="#DejaVuSans-73" transform="translate(334.1875 0)"/>
      <use xlink:href="#DejaVuSans-75" transform="translate(386.287109 0)"/>
      <use xlink:href="#DejaVuSans-63" transform="translate(449.666016 0)"/>
      <use xlink:href="#DejaVuSans-63" transform="translate(504.646484 0)"/>
      <use xlink:href="#DejaVuSans-65" transform="translate(559.626953 0)"/>
      <use xlink:href="#DejaVuSans-73" transform="translate(621.150391 0)"/>
      <use xlink:href="#DejaVuSans-73" transform="translate(673.25 0)"/>
     </g>
    </g>
   </g>
   <g id="text_38">
    <g clip-path="url(#p1764f9dd46)">
     <!-- update_docs -->
     <g transform="translate(461.052154 117.015054) scale(0.08 -0.08)">
      <use xlink:href="#DejaVuSans-75"/>
      <use xlink:href="#DejaVuSans-70" transform="translate(63.378906 0)"/>
      <use xlink:href="#DejaVuSans-64" transform="translate(126.855469 0)"/>
      <use xlink:href="#DejaVuSans-61" transform="translate(190.332031 0)"/>
      <use xlink:href="#DejaVuSans-74" transform="translate(251.611328 0)"/>
      <use xlink:href="#DejaVuSans-65" transform="translate(290.820312 0)"/>
      <use xlink:href="#DejaVuSans-5f" transform="translate(352.34375 0)"/>
      <use xlink:href="#DejaVuSans-64" transform="translate(402.34375 0)"/>
      <use xlink:href="#DejaVuSans-6f" transform="translate(465.820312 0)"/>
      <use xlink:href="#DejaVuSans-63" transform="translate(527.001953 0)"/>
      <use xlink:href="#DejaVuSans-73" transform="translate(581.982422 0)"/>
     </g>
    </g>
   </g>
   <g id="text_39">
    <g clip-path="url(#p1764f9dd46)">
     <!-- done -->
     <g transform="translate(476.433404 94.911428) scale(0.08 -0.08)">
      <use xlink:href="#DejaVuSans-64"/>
      <use xlink:href="#DejaVuSans-6f" transform="translate(63.476562 0)"/>
      <use xlink:href="#DejaVuSans-6e" transform="translate(124.658203 0)"/>
      <use xlink:href="#DejaVuSans-65" transform="translate(188.037109 0)"/>
     </g>
    </g>
   </g>
   <g id="text_40">
    <!-- deploy -->
    <g transform="translate(401.859062 17.837812) scale(0.14 -0.14)">
     <defs>
      <path id="DejaVuSans-Bold-64" d="M 2919 2988 
L 2919 4863 
L 4044 4863 
L 4044 0 
L 2919 0 
L 2919 506 
Q 2688 197 2409 53 
Q 2131 -91 1766 -91 
Q 1119 -91 703 423 
Q 288 938 288 1747 
Q 288 2556 703 3070 
Q 1119 3584 1766 3584 
Q 2128 3584 2408 3439 
Q 2688 3294 2919 2988 
z
M 2181 722 
Q 2541 722 2730 984 
Q 2919 1247 2919 1747 
Q 2919 2247 2730 2509 
Q 2541 2772 2181 2772 
Q 1825 2772 1636 2509 
Q 1447 2247 1447 1747 
Q 1447 1247 1636 984 
Q 1825 722 2181 722 
z
" transform="scale(0.015625)"/>
      <path id="DejaVuSans-Bold-65" d="M 4031 1759 
L 4031 1441 
L 1416 1441 
Q 1456 1047 1700 850 
Q 1944 653 2381 653 
Q 2734 653 3104 758 
Q 3475 863 3866 1075 
L 3866 213 
Q 3469 63 3072 -14 
Q 2675 -91 2278 -91 
Q 1328 -91 801 392 
Q 275 875 275 1747 
Q 275 2603 792 3093 
Q 1309 3584 2216 3584 
Q 3041 3584 3536 3087 
Q 4031 2591 4031 1759 
z
M 2881 2131 
Q 2881 2450 2695 2645 
Q 2509 2841 2209 2841 
Q 1884 2841 1681 2658 
Q 1478 2475 1428 2131 
L 2881 2131 
z
" transform="scale(0.015625)"/>
      <path id="DejaVuSans-Bold-70" d="M 1656 506 
L 1656 -1331 
L 538 -1331 
L 538 3500 
L 1656 3500 
L 1656 2988 
Q 1888 3294 2169 3439 
Q 2450 3584 2816 3584 
Q 3463 3584 3878 3070 
Q 4294 2556 4294 1747 
Q 4294 938 3878 423 
Q 3463 -91 2816 -91 
Q 2450 -91 2169 54 
Q 1888 200 1656 506 
z
M 2400 2772 
Q 2041 2772 1848 2508 
Q 1656 2244 1656 1747 
Q 1656 1250 1848 986 
Q 2041 722 2400 722 
Q 2759 722 2948 984 
Q 3138 1247 3138 1747 
Q 3138 2247 2948 2509 
Q 2759 2772 2400 2772 
z
" transform="scale(0.015625)"/>
      <path id="DejaVuSans-Bold-6c" d="M 538 4863 
L 1656 4863 
L 1656 0 
L 538 0 
L 538 4863 
z
" transform="scale(0.015625)"/>
      <path id="DejaVuSans-Bold-6f" d="M 2203 2784 
Q 1831 2784 1636 2517 
Q 1441 2250 1441 1747 
Q 1441 1244 1636 976 
Q 1831 709 2203 709 
Q 2569 709 2762 976 
Q 2956 1244 2956 1747 
Q 2956 2250 2762 2517 
Q 2569 2784 2203 2784 
z
M 2203 3584 
Q 3106 3584 3614 3096 
Q 4122 2609 4122 1747 
Q 4122 884 3614 396 
Q 3106 -91 2203 -91 
Q 1297 -91 786 396 
Q 275 884 275 1747 
Q 275 2609 786 3096 
Q 1297 3584 2203 3584 
z
" transform="scale(0.015625)"/>
      <path id="DejaVuSans-Bold-79" d="M 78 3500 
L 1197 3500 
L 2138 1125 
L 2938 3500 
L 4056 3500 
L 2584 -331 
Q 2363 -916 2067 -1148 
Q 1772 -1381 1288 -1381 
L 641 -1381 
L 641 -647 
L 991 -647 
Q 1275 -647 1404 -556 
Q 1534 -466 1606 -231 
L 1638 -134 
L 78 3500 
z
" transform="scale(0.015625)"/>
     </defs>
     <use xlink:href="#DejaVuSans-Bold-64"/>
     <use xlink:href="#DejaVuSans-Bold-65" transform="translate(71.582031 0)"/>
     <use xlink:href="#DejaVuSans-Bold-70" transform="translate(139.404297 0)"/>
     <use xlink:href="#DejaVuSans-Bold-6c" transform="translate(210.986328 0)"/>
     <use xlink:href="#DejaVuSans-Bold-6f" transform="translate(245.263672 0)"/>
     <use xlink:href="#DejaVuSans-Bold-79" transform="translate(313.964844 0)"/>
    </g>
   </g>
  </g>
 </g>
 <defs>
  <clipPath id="p1764f9dd46">
   <rect x="7.2" y="23.837812" width="842.4" height="537.6"/>
  </clipPath>
 </defs>
</svg>
